<svg width="168" height="352" viewBox="0 0 168 352" fill="none" xmlns="http://www.w3.org/2000/svg">
<mask id="path-1-inside-1" fill="white">
<path d="M75.2 1.99991C68.7 5.99991 67.5 14.2999 72.5 20.9999C73.8 22.7999 74.7 24.6999 74.4 25.1999C74.1 25.6999 71.1 27.3999 67.8 29.0999C59.6 33.1999 53.5 39.0999 50.1 46.1999L47.3 52.0999L45.6 49.5999C44.7 48.0999 43.1 46.9999 42 46.9999C40.9 46.9999 40 46.4999 40 45.8999C40 44.5999 33.1 45.5999 31.6 47.0999C31 47.5999 31.4 50.3999 32.8 54.1999C34 57.6999 36.4 66.0999 38.1 72.8999C41.5 86.2999 45.5 97.0999 51.9 109.9C54.2 114.3 56 118.4 56 119C56 119.5 53.8 121.1 51 122.5C47.3 124.4 46 125.6 46 127.3C46 130.8 43.7 134.4 41 135C39.5 135.4 38.1 136.7 37.6 138.3C36.3 141.8 38.8 144.5 44 145.4C47.3 145.9 47.9 146.5 48.5 149C49.2 152 52.6 155.2 56.7 156.4C57.9 156.8 59.2 158.1 59.6 159.3C60.7 162.6 60.3 195.8 59 210.3C56.8 235.8 48.2 259.8 35.6 275.4C32.5 279.2 30 283.2 30 284.2C30 287.4 28.2 289.7 23.8 292.3C17.7 295.8 9.39997 305 6.49997 311.2C3.29997 318 3.09997 325.6 5.99997 329.3C7.09997 330.7 7.99997 332 7.99997 332.3C7.99997 332.5 6.19997 333.9 3.89997 335.4C0.299971 337.9 -0.100029 338.4 0.199971 341.8C0.599971 347.1 4.39997 348.6 20.5 350.2C37.7 351.8 118.1 351.8 138.9 350.1C163.3 348.2 168 346.7 168 340.8C168 339.3 167.2 337.3 166.3 336.5C165.3 335.8 163.4 334.3 162.2 333.3L159.8 331.4L162 327.7C167.6 318.2 159.2 302 143.5 291.7C139.8 289.3 138.3 287.6 137.6 285C137.1 283.1 134.9 279.4 132.8 276.8C117.9 258.6 109.3 234.7 107 204.4C105.8 189.2 105.4 162.4 106.4 159.3C106.7 158.3 109 156.4 111.5 155.2C114.9 153.6 116.1 152.3 116.8 149.8C117.5 147 118.3 146.3 122.3 145.2C127.7 143.7 129.7 141.1 128 137.9C127.3 136.8 125.5 135.4 123.9 134.8C121.6 134 120.8 132.9 119.9 129.3C118.9 125.4 118.1 124.6 113.9 122.4C111.2 121.1 109 119.7 109 119.3C109 118.9 111 114.6 113.4 109.6C120.1 95.6999 122.8 88.1999 127 71.6999C129.1 63.2999 131.6 54.3999 132.4 51.7999C133.8 47.2999 133.8 47.0999 131.9 46.4999C130.8 46.0999 129.3 46.2999 128.6 46.8999C127.7 47.6999 126.8 47.5999 125.4 46.4999C122.5 44.2999 120.6 44.6999 118.6 48.0999L116.8 51.1999L113.8 45.8999C109.8 38.4999 104.9 33.6999 96.9 29.4999C93.1 27.4999 89.8 25.5999 89.6 25.0999C89.3 24.6999 90.2 22.7999 91.5 20.9999C94.9 16.3999 95.4 12.9999 93.4 8.19989C90.4 0.69989 82 -2.2001 75.2 1.99991Z"/>
</mask>
<path d="M75.2 1.99991C68.7 5.99991 67.5 14.2999 72.5 20.9999C73.8 22.7999 74.7 24.6999 74.4 25.1999C74.1 25.6999 71.1 27.3999 67.8 29.0999C59.6 33.1999 53.5 39.0999 50.1 46.1999L47.3 52.0999L45.6 49.5999C44.7 48.0999 43.1 46.9999 42 46.9999C40.9 46.9999 40 46.4999 40 45.8999C40 44.5999 33.1 45.5999 31.6 47.0999C31 47.5999 31.4 50.3999 32.8 54.1999C34 57.6999 36.4 66.0999 38.1 72.8999C41.5 86.2999 45.5 97.0999 51.9 109.9C54.2 114.3 56 118.4 56 119C56 119.5 53.8 121.1 51 122.5C47.3 124.4 46 125.6 46 127.3C46 130.8 43.7 134.4 41 135C39.5 135.4 38.1 136.7 37.6 138.3C36.3 141.8 38.8 144.5 44 145.4C47.3 145.9 47.9 146.5 48.5 149C49.2 152 52.6 155.2 56.7 156.4C57.9 156.8 59.2 158.1 59.6 159.3C60.7 162.6 60.3 195.8 59 210.3C56.8 235.8 48.2 259.8 35.6 275.4C32.5 279.2 30 283.2 30 284.2C30 287.4 28.2 289.7 23.8 292.3C17.7 295.8 9.39997 305 6.49997 311.2C3.29997 318 3.09997 325.6 5.99997 329.3C7.09997 330.7 7.99997 332 7.99997 332.3C7.99997 332.5 6.19997 333.9 3.89997 335.4C0.299971 337.9 -0.100029 338.4 0.199971 341.8C0.599971 347.1 4.39997 348.6 20.5 350.2C37.7 351.8 118.1 351.8 138.9 350.1C163.3 348.2 168 346.7 168 340.8C168 339.3 167.2 337.3 166.3 336.5C165.3 335.8 163.4 334.3 162.2 333.3L159.8 331.4L162 327.7C167.6 318.2 159.2 302 143.5 291.7C139.8 289.3 138.3 287.6 137.6 285C137.1 283.1 134.9 279.4 132.8 276.8C117.9 258.6 109.3 234.7 107 204.4C105.8 189.2 105.4 162.4 106.4 159.3C106.7 158.3 109 156.4 111.5 155.2C114.9 153.6 116.1 152.3 116.8 149.8C117.5 147 118.3 146.3 122.3 145.2C127.7 143.7 129.7 141.1 128 137.9C127.3 136.8 125.5 135.4 123.9 134.8C121.6 134 120.8 132.9 119.9 129.3C118.9 125.4 118.1 124.6 113.9 122.4C111.2 121.1 109 119.7 109 119.3C109 118.9 111 114.6 113.4 109.6C120.1 95.6999 122.8 88.1999 127 71.6999C129.1 63.2999 131.6 54.3999 132.4 51.7999C133.8 47.2999 133.8 47.0999 131.9 46.4999C130.8 46.0999 129.3 46.2999 128.6 46.8999C127.7 47.6999 126.8 47.5999 125.4 46.4999C122.5 44.2999 120.6 44.6999 118.6 48.0999L116.8 51.1999L113.8 45.8999C109.8 38.4999 104.9 33.6999 96.9 29.4999C93.1 27.4999 89.8 25.5999 89.6 25.0999C89.3 24.6999 90.2 22.7999 91.5 20.9999C94.9 16.3999 95.4 12.9999 93.4 8.19989C90.4 0.69989 82 -2.2001 75.2 1.99991Z" fill="#40B3A2" stroke="#E27D5F" stroke-width="2" mask="url(#path-1-inside-1)"/>
</svg>
