<svg width="160" height="271" viewBox="0 0 160 271" fill="none" xmlns="http://www.w3.org/2000/svg">
<mask id="path-1-inside-1" fill="white">
<path d="M77.8223 0.53833C76.5223 0.73833 75.5223 1.43832 75.5223 1.93832C75.5223 2.43832 73.8223 2.83835 71.7223 2.83835C66.6223 2.83835 65.5223 4.23832 65.5223 10.9383V16.5383L60.5223 19.6383L55.5223 22.7383V13.7383C55.5223 1.93834 54.9223 0.838348 48.1223 0.838348C42.8223 0.838348 36.9223 2.23833 35.0223 4.03833C34.5223 4.53833 33.8223 11.2383 33.5223 18.9383L33.0223 32.9383L29.8223 35.4383C28.0223 36.8383 26.5223 38.6383 26.5223 39.4383C26.5223 40.3383 28.9223 43.5383 31.9223 46.6383C34.8223 49.7383 37.5223 53.6383 37.9223 55.1383C38.3223 56.7383 40.1223 60.2383 42.0223 63.0383C43.9223 65.7383 46.0223 69.9383 46.6223 72.1383C48.3223 78.2383 47.2223 102.838 43.5223 140.838C38.4223 194.138 34.7223 207.138 22.3223 215.138C11.5223 222.038 4.5223 232.738 4.5223 242.138C4.5223 245.738 5.0223 248.038 6.0223 248.838C8.3223 250.738 7.8223 252.538 4.1223 254.738C0.322304 257.138 -0.777696 259.838 0.522304 263.438C2.4223 268.438 17.4223 269.938 74.1223 270.538C119.322 271.038 145.122 270.138 153.822 267.738C160.522 265.938 161.222 259.838 155.222 255.738C153.522 254.538 151.822 253.338 151.622 253.238C151.422 253.038 152.222 251.438 153.422 249.538C154.522 247.638 155.522 244.738 155.522 243.038C155.522 234.338 146.622 221.138 136.722 215.038C128.722 210.138 123.322 197.238 120.622 176.338C118.522 160.438 114.522 103.638 114.522 89.6383C114.522 73.2383 115.222 70.0383 120.022 63.2383C121.922 60.5383 124.022 56.7383 124.722 54.8383C125.322 52.9383 127.622 49.5383 129.822 47.3383C137.122 40.0383 137.822 37.2383 133.122 35.0383C130.122 33.7383 129.522 30.4383 129.522 15.9383C129.522 9.53832 129.022 3.63835 128.522 2.83835C126.922 0.338349 110.122 1.43834 108.322 4.23834C107.922 4.83834 107.522 9.03833 107.522 13.5383C107.522 18.0383 107.122 22.0383 106.522 22.3383C106.022 22.6383 105.522 22.5383 105.522 22.0383C105.522 21.6383 103.722 20.2383 101.522 18.9383L97.5223 16.7383V8.93832V1.03833L94.4223 0.438324C91.0223 -0.161676 81.4223 -0.16167 77.8223 0.53833Z"/>
</mask>
<path d="M77.8223 0.53833C76.5223 0.73833 75.5223 1.43832 75.5223 1.93832C75.5223 2.43832 73.8223 2.83835 71.7223 2.83835C66.6223 2.83835 65.5223 4.23832 65.5223 10.9383V16.5383L60.5223 19.6383L55.5223 22.7383V13.7383C55.5223 1.93834 54.9223 0.838348 48.1223 0.838348C42.8223 0.838348 36.9223 2.23833 35.0223 4.03833C34.5223 4.53833 33.8223 11.2383 33.5223 18.9383L33.0223 32.9383L29.8223 35.4383C28.0223 36.8383 26.5223 38.6383 26.5223 39.4383C26.5223 40.3383 28.9223 43.5383 31.9223 46.6383C34.8223 49.7383 37.5223 53.6383 37.9223 55.1383C38.3223 56.7383 40.1223 60.2383 42.0223 63.0383C43.9223 65.7383 46.0223 69.9383 46.6223 72.1383C48.3223 78.2383 47.2223 102.838 43.5223 140.838C38.4223 194.138 34.7223 207.138 22.3223 215.138C11.5223 222.038 4.5223 232.738 4.5223 242.138C4.5223 245.738 5.0223 248.038 6.0223 248.838C8.3223 250.738 7.8223 252.538 4.1223 254.738C0.322304 257.138 -0.777696 259.838 0.522304 263.438C2.4223 268.438 17.4223 269.938 74.1223 270.538C119.322 271.038 145.122 270.138 153.822 267.738C160.522 265.938 161.222 259.838 155.222 255.738C153.522 254.538 151.822 253.338 151.622 253.238C151.422 253.038 152.222 251.438 153.422 249.538C154.522 247.638 155.522 244.738 155.522 243.038C155.522 234.338 146.622 221.138 136.722 215.038C128.722 210.138 123.322 197.238 120.622 176.338C118.522 160.438 114.522 103.638 114.522 89.6383C114.522 73.2383 115.222 70.0383 120.022 63.2383C121.922 60.5383 124.022 56.7383 124.722 54.8383C125.322 52.9383 127.622 49.5383 129.822 47.3383C137.122 40.0383 137.822 37.2383 133.122 35.0383C130.122 33.7383 129.522 30.4383 129.522 15.9383C129.522 9.53832 129.022 3.63835 128.522 2.83835C126.922 0.338349 110.122 1.43834 108.322 4.23834C107.922 4.83834 107.522 9.03833 107.522 13.5383C107.522 18.0383 107.122 22.0383 106.522 22.3383C106.022 22.6383 105.522 22.5383 105.522 22.0383C105.522 21.6383 103.722 20.2383 101.522 18.9383L97.5223 16.7383V8.93832V1.03833L94.4223 0.438324C91.0223 -0.161676 81.4223 -0.16167 77.8223 0.53833Z" fill="#40B3A2" stroke="#E27D5F" stroke-width="2" mask="url(#path-1-inside-1)"/>
</svg>
