<svg width="182" height="309" viewBox="0 0 182 309" fill="none" xmlns="http://www.w3.org/2000/svg">
<mask id="path-1-inside-1" fill="white">
<path d="M107.3 1.20007C106.8 1.90005 105.6 5.40005 104.6 9.00006C103.7 12.6001 102.5 16.2001 102 17.0001C101.4 18.0001 98.4001 18.6001 92.3001 19.1001C82.2001 19.8001 81.0001 20.3001 67.6001 29.9001C55.6001 38.4001 42.1001 45.5001 36.0001 46.5001C28.8001 47.6001 19.6001 53.2001 17.1001 57.9001C15.4001 61.0001 14.4001 74.5001 15.8001 75.4001C16.4001 75.8001 19.7001 75.4001 23.2001 74.6001C26.7001 73.8001 29.6001 73.3001 29.8001 73.5001C30.0001 73.6001 26.8001 75.5001 22.8001 77.7001C15.1001 81.9001 13.5001 84.3001 16.5001 87.4001C17.8001 88.7001 20.2001 89.0001 28.1001 89.0001C39.1001 89.0001 45.6001 87.2001 51.1001 82.6001C54.1001 80.1001 54.5001 80.0001 68.1001 80.0001C80.1001 80.0001 82.6001 79.7001 86.4001 77.9001C88.8001 76.8001 91.6001 75.0001 92.6001 73.9001C95.4001 70.8001 96.0001 71.6001 96.0001 78.4001C96.0001 83.8001 95.4001 85.9001 92.5001 91.5001C87.7001 100.8 81.9001 108.7 70.0001 122C51.5001 142.8 45.3001 151.3 39.5001 164.5C33.7001 177.6 31.5001 191.8 34.1001 198.6C34.6001 200.2 37.8001 204 41.1001 207.1C44.3001 210.3 47.0001 213.7 47.0001 214.7C47.0001 215.7 44.1001 220.3 40.5001 224.8C36.9001 229.3 34.0001 233.7 34.0001 234.5C34.0001 237.8 30.8001 242.1 26.7001 244.1C24.4001 245.3 20.0001 248.9 16.9001 252C6.8001 262.4 2.6001 275.2 6.9001 282.5C8.0001 284.5 9.0001 286.5 9.0001 286.9C9.0001 287.4 7.3001 288.9 5.1001 290.3C-0.9999 294.4 -0.8999 300.9 5.3001 303.5C20.1001 309.7 147.7 310.7 174 304.9C179.8 303.6 182 301.5 182 297.3C182 294.6 181.3 293.5 178 291.2C173.6 288.2 173.2 286.6 175.8 283.7C178.5 280.6 178 270.8 174.8 264.5C170.7 256.6 165.1 250.3 157.5 245.2C151.7 241.2 150.4 239.8 149.4 236.3C148.7 234 145.4 228.6 142.1 224.3C138.7 219.9 136 215.7 136 214.7C136 212.1 141.4 206.6 149.1 201.3L156.2 196.5L155.6 191.8C155.1 188.6 155.6 184.5 157.1 178.5C159 170.9 159.1 169.1 158.1 163C156.2 151.1 156.6 145.9 160.5 135.9C163.8 127.4 164 126 164 115.3C164 105.2 164.4 102.8 167.1 94.4001L170.3 85.0001L166.2 74.6001C163.9 68.8001 161.1 59.5001 160 53.9001C158.8 48.2001 157.7 43.3001 157.4 42.9001C157.2 42.5001 152.1 38.8001 146.2 34.6001C138.5 29.2001 134.9 26.0001 133.7 23.5001C132.2 20.3001 131.7 20.0001 127.6 20.0001C120 20.0001 118.7 19.0001 113.6 9.10007C111 4.10007 108.8 6.10352e-05 108.6 6.10352e-05C108.4 6.10352e-05 107.8 0.600067 107.3 1.20007Z"/>
</mask>
<path d="M107.3 1.20007C106.8 1.90005 105.6 5.40005 104.6 9.00006C103.7 12.6001 102.5 16.2001 102 17.0001C101.4 18.0001 98.4001 18.6001 92.3001 19.1001C82.2001 19.8001 81.0001 20.3001 67.6001 29.9001C55.6001 38.4001 42.1001 45.5001 36.0001 46.5001C28.8001 47.6001 19.6001 53.2001 17.1001 57.9001C15.4001 61.0001 14.4001 74.5001 15.8001 75.4001C16.4001 75.8001 19.7001 75.4001 23.2001 74.6001C26.7001 73.8001 29.6001 73.3001 29.8001 73.5001C30.0001 73.6001 26.8001 75.5001 22.8001 77.7001C15.1001 81.9001 13.5001 84.3001 16.5001 87.4001C17.8001 88.7001 20.2001 89.0001 28.1001 89.0001C39.1001 89.0001 45.6001 87.2001 51.1001 82.6001C54.1001 80.1001 54.5001 80.0001 68.1001 80.0001C80.1001 80.0001 82.6001 79.7001 86.4001 77.9001C88.8001 76.8001 91.6001 75.0001 92.6001 73.9001C95.4001 70.8001 96.0001 71.6001 96.0001 78.4001C96.0001 83.8001 95.4001 85.9001 92.5001 91.5001C87.7001 100.8 81.9001 108.7 70.0001 122C51.5001 142.8 45.3001 151.3 39.5001 164.5C33.7001 177.6 31.5001 191.8 34.1001 198.6C34.6001 200.2 37.8001 204 41.1001 207.1C44.3001 210.3 47.0001 213.7 47.0001 214.7C47.0001 215.7 44.1001 220.3 40.5001 224.8C36.9001 229.3 34.0001 233.7 34.0001 234.5C34.0001 237.8 30.8001 242.1 26.7001 244.1C24.4001 245.3 20.0001 248.9 16.9001 252C6.8001 262.4 2.6001 275.2 6.9001 282.5C8.0001 284.5 9.0001 286.5 9.0001 286.9C9.0001 287.4 7.3001 288.9 5.1001 290.3C-0.9999 294.4 -0.8999 300.9 5.3001 303.5C20.1001 309.7 147.7 310.7 174 304.9C179.8 303.6 182 301.5 182 297.3C182 294.6 181.3 293.5 178 291.2C173.6 288.2 173.2 286.6 175.8 283.7C178.5 280.6 178 270.8 174.8 264.5C170.7 256.6 165.1 250.3 157.5 245.2C151.7 241.2 150.4 239.8 149.4 236.3C148.7 234 145.4 228.6 142.1 224.3C138.7 219.9 136 215.7 136 214.7C136 212.1 141.4 206.6 149.1 201.3L156.2 196.5L155.6 191.8C155.1 188.6 155.6 184.5 157.1 178.5C159 170.9 159.1 169.1 158.1 163C156.2 151.1 156.6 145.9 160.5 135.9C163.8 127.4 164 126 164 115.3C164 105.2 164.4 102.8 167.1 94.4001L170.3 85.0001L166.2 74.6001C163.9 68.8001 161.1 59.5001 160 53.9001C158.8 48.2001 157.7 43.3001 157.4 42.9001C157.2 42.5001 152.1 38.8001 146.2 34.6001C138.5 29.2001 134.9 26.0001 133.7 23.5001C132.2 20.3001 131.7 20.0001 127.6 20.0001C120 20.0001 118.7 19.0001 113.6 9.10007C111 4.10007 108.8 6.10352e-05 108.6 6.10352e-05C108.4 6.10352e-05 107.8 0.600067 107.3 1.20007Z" fill="#40B3A2" stroke="#E27D5F" stroke-width="2" mask="url(#path-1-inside-1)"/>
</svg>
