<svg xmlns="http://www.w3.org/2000/svg" viewBox="0 0 446 405.5"><defs><style>.cls-1{fill:#a4c9ff;}.cls-2{fill:#e0ebfc;}.cls-3{fill:#4671c6;}.cls-4{fill:#f9a7a7;}.cls-5{fill:#6bdddd;}</style></defs><g id="Слой_2" data-name="Слой 2"><g id="Layer_1" data-name="Layer 1"><path class="cls-1" d="M269,298.17H177l-14.67,80H283.67Z"/><path class="cls-2" d="M299.33,405.5H146.67a13.67,13.67,0,1,1,0-27.33H299.33a13.67,13.67,0,1,1,0,27.33Z"/><path class="cls-3" d="M434,331H12A12,12,0,0,1,0,319V12A12,12,0,0,1,12,0H434a12,12,0,0,1,12,12V319A12,12,0,0,1,434,331Z"/><path class="cls-2" d="M30,295V36a6,6,0,0,1,6-6H410a6,6,0,0,1,6,6V295a6,6,0,0,1-6,6H36A6,6,0,0,1,30,295Z"/><path class="cls-4" d="M181.59,131.44v68.12a8.8,8.8,0,0,0,13.28,7.58l57.53-34.07a8.8,8.8,0,0,0,0-15.14l-57.53-34.06a8.79,8.79,0,0,0-13.28,7.57Z"/><path class="cls-5" d="M236.06,259.93a7,7,0,1,1,8.82,4.48,6.77,6.77,0,0,1-2.16.34A7,7,0,0,1,236.06,259.93Zm22.74-8.78a7,7,0,1,1,5.9,3.22A7,7,0,0,1,258.8,251.15ZM278.62,237a7,7,0,1,1,4.78,1.9,6.88,6.88,0,0,1-4.78-1.9Zm15.7-18.62a7,7,0,1,1,3.38.86,7.13,7.13,0,0,1-3.38-.86Zm10.6-22a7,7,0,1,1,1.72.22A6.45,6.45,0,0,1,304.92,196.39Z"/><path class="cls-5" d="M331.32,144.83H314.6A104,104,0,1,0,212.67,269.5a7,7,0,0,0,0-14,90,90,0,1,1,87.57-110.67H288a2.5,2.5,0,0,0-2,4l21.64,28.41a2.51,2.51,0,0,0,4,0l21.64-28.41A2.5,2.5,0,0,0,331.32,144.83Z"/></g></g></svg>