<svg width="154" height="340" viewBox="0 0 154 340" fill="none" xmlns="http://www.w3.org/2000/svg">
<mask id="path-1-inside-1" fill="white">
<path d="M70.4 1.40005C63.7 4.40005 61.9 12.3001 66.6 18.0001L69.3 21.1001L66.5 27.5001C65 31.1001 59.4 40.1001 54 47.6001C39.7 67.6001 37.9 70.9001 37.3 77.9001C36.8 83.1001 37.1 84.6001 39.7 90.2001C41.4 93.7001 45.1 99.6001 47.9 103.5L53 110.5L50 113C46.5 115.9 46.7 118.5 50.6 119.4C52.5 119.9 53 120.7 53 123.3C53 126.3 52.5 126.9 48.8 128.6C45.2 130.2 44.3 131.2 43.1 134.8C42.1 138.1 41 139.4 38.9 140.2C35.9 141.2 34.6 143.7 35.5 146.2C36.2 147.9 40.2 150 42.6 150C43.4 150 44.8 151.6 45.6 153.5C46.5 155.8 48.3 157.6 50.9 158.9C53 160 55 161.6 55.4 162.5C57.2 167.3 55.2 210.4 52.5 223.5C49 240.1 42.5 255.1 33.6 266.7C30.5 270.7 28 274.8 28 275.8C28 278.2 26.3 280.2 21.9 282.8C9.09998 290.5 0.199985 309 5.89998 316.1L7.79998 318.5L3.89998 322.1C-0.400015 326.1 -1.00002 329 1.89998 331.9C5.89998 335.9 18.2 337.6 53.8 339.1C89.3 340.6 132.5 338.6 146.2 334.9C154 332.8 155.4 327.1 149.3 322.3C145.8 319.4 145.7 319.3 147.3 316.9C149.8 313.5 149.4 306.4 146.5 300.3C143.8 294.4 136.1 285.6 131.7 283.4C127.6 281.2 125 278.3 125 275.9C125 274.7 122.8 271 120.1 267.6C107.1 251.3 100.2 231.7 98 204.5C96.8 189.8 96.7 163 97.8 161.4C98.2 160.8 100.2 159.5 102.2 158.6C104.8 157.3 106.2 155.8 107 153.4C107.9 150.8 108.7 150 110.5 150C111.8 150 114.1 149 115.6 147.7C117.9 145.7 118.1 145.1 117.1 143.2C116.5 142.1 114.8 140.5 113.3 139.8C111.5 138.9 110.3 137.2 109.6 134.6C108.7 131.4 107.7 130.4 104 128.6C100.5 127 99.4 125.9 99.2 123.8C98.9 121.7 99.5 120.8 101.9 119.5C105.7 117.6 106 114.3 102.5 113C101.1 112.5 100 111.6 100 111C100 110.5 102.1 107.2 104.6 103.8C112.1 93.6001 115.3 86.4001 115.3 79.9001C115.2 72.2001 113.1 68.1001 100.5 50.5001C94.6 42.2001 88.2 32.2001 86.3 28.2001L82.9 20.9001L86.1 17.3001C88.7 14.3001 89.1 13.1001 88.6 10.2001C88 6.00006 85.6 3.20007 81.3 1.40005C77.3 -0.299927 74.4 -0.299927 70.4 1.40005Z"/>
</mask>
<path d="M70.4 1.40005C63.7 4.40005 61.9 12.3001 66.6 18.0001L69.3 21.1001L66.5 27.5001C65 31.1001 59.4 40.1001 54 47.6001C39.7 67.6001 37.9 70.9001 37.3 77.9001C36.8 83.1001 37.1 84.6001 39.7 90.2001C41.4 93.7001 45.1 99.6001 47.9 103.5L53 110.5L50 113C46.5 115.9 46.7 118.5 50.6 119.4C52.5 119.9 53 120.7 53 123.3C53 126.3 52.5 126.9 48.8 128.6C45.2 130.2 44.3 131.2 43.1 134.8C42.1 138.1 41 139.4 38.9 140.2C35.9 141.2 34.6 143.7 35.5 146.2C36.2 147.9 40.2 150 42.6 150C43.4 150 44.8 151.6 45.6 153.5C46.5 155.8 48.3 157.6 50.9 158.9C53 160 55 161.6 55.4 162.5C57.2 167.3 55.2 210.4 52.5 223.5C49 240.1 42.5 255.1 33.6 266.7C30.5 270.7 28 274.8 28 275.8C28 278.2 26.3 280.2 21.9 282.8C9.09998 290.5 0.199985 309 5.89998 316.1L7.79998 318.5L3.89998 322.1C-0.400015 326.1 -1.00002 329 1.89998 331.9C5.89998 335.9 18.2 337.6 53.8 339.1C89.3 340.6 132.5 338.6 146.2 334.9C154 332.8 155.4 327.1 149.3 322.3C145.8 319.4 145.7 319.3 147.3 316.9C149.8 313.5 149.4 306.4 146.5 300.3C143.8 294.4 136.1 285.6 131.7 283.4C127.6 281.2 125 278.3 125 275.9C125 274.7 122.8 271 120.1 267.6C107.1 251.3 100.2 231.7 98 204.5C96.8 189.8 96.7 163 97.8 161.4C98.2 160.8 100.2 159.5 102.2 158.6C104.8 157.3 106.2 155.8 107 153.4C107.9 150.8 108.7 150 110.5 150C111.8 150 114.1 149 115.6 147.7C117.9 145.7 118.1 145.1 117.1 143.2C116.5 142.1 114.8 140.5 113.3 139.8C111.5 138.9 110.3 137.2 109.6 134.6C108.7 131.4 107.7 130.4 104 128.6C100.5 127 99.4 125.9 99.2 123.8C98.9 121.7 99.5 120.8 101.9 119.5C105.7 117.6 106 114.3 102.5 113C101.1 112.5 100 111.6 100 111C100 110.5 102.1 107.2 104.6 103.8C112.1 93.6001 115.3 86.4001 115.3 79.9001C115.2 72.2001 113.1 68.1001 100.5 50.5001C94.6 42.2001 88.2 32.2001 86.3 28.2001L82.9 20.9001L86.1 17.3001C88.7 14.3001 89.1 13.1001 88.6 10.2001C88 6.00006 85.6 3.20007 81.3 1.40005C77.3 -0.299927 74.4 -0.299927 70.4 1.40005Z" fill="#F0F7F4" stroke="#E27D5F" stroke-width="2" mask="url(#path-1-inside-1)"/>
</svg>
