<svg width="47" height="74" viewBox="0 0 47 74" fill="none" xmlns="http://www.w3.org/2000/svg">
<path d="M20.8456 0.940308L20.8452 0.940445C16.0998 2.43269 13.0081 6.10509 13.0081 9.98888C13.0081 11.5874 13.1759 12.7194 13.6158 13.732C14.0566 14.7469 14.7903 15.6871 16.0019 16.8675C16.6794 17.5189 17.2396 18.1493 17.6253 18.6746C17.8174 18.9362 17.9749 19.1835 18.0813 19.4025C18.1344 19.5119 18.1803 19.6254 18.2094 19.738C18.237 19.8446 18.2593 19.9873 18.2288 20.1384L18.2289 20.1384L18.2266 20.1489C18.176 20.3742 18.0269 20.5558 17.9011 20.6817C17.7624 20.8204 17.5861 20.9556 17.3895 21.0827C16.9955 21.3374 16.4754 21.5881 15.8943 21.7866C13.876 22.5025 12.741 22.9556 12.1086 23.3293C11.7971 23.5134 11.6518 23.6535 11.5803 23.7583C11.5192 23.848 11.4919 23.9402 11.4919 24.0895C11.4919 24.2278 11.5502 24.4292 11.8664 24.7627C12.1867 25.1004 12.7166 25.5157 13.5456 26.075C16.2286 27.8832 18.0237 30.1064 18.7478 32.4948C18.9353 33.113 19.0589 34.0263 19.1329 35.0569C19.2076 36.0974 19.2338 37.2913 19.2147 38.4887C19.1767 40.8616 18.9597 43.3228 18.5586 44.6346C17.6933 47.5515 15.9997 49.9651 13.5292 51.8275L13.5262 51.8297C13.0241 52.2023 12.4974 52.6869 12.0653 53.1549C11.6211 53.636 11.3242 54.049 11.227 54.2809C11.0139 54.807 10.7413 55.2234 10.3066 55.5662C9.88648 55.8977 9.34594 56.1351 8.64794 56.3654C5.33301 57.4708 2.87245 60.2179 2.00153 63.7362C1.78961 64.5939 1.72118 65.0048 1.75729 65.3336C1.79107 65.6411 1.92172 65.9209 2.28185 66.5023C2.282 66.5026 2.28216 66.5028 2.28231 66.5031L3.07737 67.7766L3.34812 68.2104L2.90846 68.4714L1.58185 69.2589L1.58191 69.259L1.57269 69.2642C1.04974 69.5599 0.805606 69.7576 0.675728 69.9443C0.560823 70.1094 0.5 70.3179 0.5 70.7415C0.5 71.2068 0.559262 71.3735 0.640092 71.4802C0.737048 71.6081 0.932695 71.7427 1.44626 71.9689C1.93832 72.1695 2.92073 72.3692 4.33185 72.5508C5.72902 72.7306 7.49438 72.8868 9.50882 73.0177C13.5367 73.2795 18.5385 73.4386 23.5378 73.4855C28.5372 73.5323 33.5271 73.4667 37.5311 73.2797C39.5336 73.1862 41.2838 73.0626 42.6628 72.9084C44.058 72.7524 45.0144 72.5705 45.4779 72.3814C45.9771 72.1615 46.22 72.0008 46.3464 71.8583C46.4456 71.7464 46.5 71.6162 46.5 71.3416C46.5 70.8995 46.4706 70.7683 46.3274 70.5804C46.131 70.3226 45.7338 69.9941 44.8445 69.3054L43.9051 68.6362L43.476 68.3305L43.8036 67.918L44.6375 66.8679L44.6379 66.8674C45.1191 66.2632 45.2892 65.9441 45.3166 65.5244C45.3475 65.0499 45.2006 64.3991 44.8157 63.1231L44.8151 63.1212C43.9119 60.0827 41.1519 57.299 38.4173 56.5611L38.4159 56.5608C37.8394 56.4034 37.3666 56.2126 36.9817 55.9079C36.5885 55.5967 36.327 55.1988 36.1158 54.6974L36.1157 54.6974L36.1113 54.6862C36.0693 54.5794 35.9679 54.4058 35.7936 54.1699C35.6246 53.9411 35.4051 53.6777 35.1493 53.395C34.6379 52.8298 33.9984 52.2059 33.3671 51.6549L33.3658 51.6536C31.6181 50.1166 30.6261 48.8649 29.7209 46.9959L29.7191 46.9921C29.1503 45.7914 28.8268 45.0678 28.663 44.0141C28.504 42.9916 28.496 41.6608 28.496 39.2402C28.496 36.1106 28.6263 34.0281 29.1089 32.4037C29.6013 30.7462 30.4501 29.5968 31.7955 28.3041L31.7973 28.3024C32.7915 27.3566 34.3365 26.0911 35.2971 25.5351C35.949 25.1349 36.3329 24.7957 36.516 24.5187C36.6034 24.3866 36.6334 24.2859 36.639 24.2111C36.6443 24.1404 36.6305 24.0611 36.5755 23.9622C36.4529 23.7417 36.1418 23.4547 35.5188 23.1194C34.9103 22.7918 34.0674 22.4509 32.9708 22.0892L32.9708 22.0893L32.9626 22.0864C32.3039 21.8564 31.6418 21.587 31.1055 21.329C30.8379 21.2002 30.5944 21.0709 30.3957 20.9475C30.2155 20.8355 30.0238 20.6996 29.8991 20.5453C29.7868 20.4134 29.6672 20.2539 29.5999 20.0669C29.5221 19.8511 29.5236 19.627 29.6113 19.4054C29.6893 19.208 29.8271 19.035 29.9772 18.8786C30.1312 18.7182 30.3313 18.5419 30.5715 18.3422L30.575 18.3394C32.4038 16.8471 33.5257 15.7268 34.2338 14.5943C34.9321 13.4776 35.2492 12.3144 35.3964 10.6937L35.3965 10.6932C35.7147 7.23 33.3697 3.46849 29.5755 1.62673C28.3549 1.04065 26.7977 0.667709 25.2189 0.544754C23.6393 0.421722 22.0767 0.551949 20.8456 0.940308Z" fill="#40B3A2" stroke="#E27D5F"/>
</svg>
