<svg width="37" height="78" viewBox="0 0 37 78" fill="none" xmlns="http://www.w3.org/2000/svg">
<path d="M14.7865 3.57545H15.8161H16.3412L16.3155 3.05091L16.2579 1.88081L16.2577 1.87557C16.2389 1.56093 16.2375 1.33652 16.2552 1.16866C16.2726 1.00379 16.3055 0.925407 16.3327 0.883034C16.3826 0.805244 16.5037 0.704781 17.0472 0.568642C17.3639 0.491486 17.8071 0.478722 18.2462 0.533638C18.6935 0.589577 19.055 0.70549 19.2403 0.826225C19.3297 0.885979 19.3616 0.915596 19.3756 0.931793L19.3761 0.932388C19.3815 0.93856 19.388 0.946098 19.3962 0.977959C19.4254 1.09078 19.4304 1.30612 19.4002 1.85896L19.4001 1.86201L19.3426 3.0513L19.3172 3.57545H19.842H20.9698C21.3171 3.58022 21.5575 3.60258 21.7269 3.64357C21.8907 3.68317 21.9494 3.73092 21.9759 3.76091C22.0038 3.7926 22.0469 3.86288 22.0707 4.04225C22.0951 4.22588 22.0938 4.47994 22.0658 4.83974L22.0657 4.84081C22.0176 5.47522 21.9151 5.67453 21.8211 5.75969C21.7233 5.84831 21.5054 5.93231 20.858 5.93231C20.5986 5.93231 20.3509 5.94219 20.1612 5.96117C20.0697 5.97032 19.9736 5.98329 19.8916 6.00354C19.8547 6.01266 19.7905 6.0303 19.7248 6.06474C19.6924 6.0817 19.6335 6.11606 19.5771 6.17661C19.5176 6.24035 19.4378 6.35989 19.4378 6.52822C19.4378 6.59081 19.4504 6.64344 19.4522 6.65118L19.4524 6.65196C19.4566 6.67037 19.4613 6.68758 19.4651 6.70076C19.4729 6.72791 19.4829 6.75909 19.4935 6.79102C19.515 6.856 19.5449 6.94115 19.5804 7.03901C19.6516 7.23558 19.749 7.49392 19.8558 7.76597C19.9552 8.01902 20.0457 8.29096 20.1107 8.52191C20.1432 8.63741 20.1681 8.73834 20.1845 8.81863C20.1926 8.85871 20.1981 8.89074 20.2013 8.91492C20.2043 8.9367 20.2046 8.94621 20.2047 8.94621L20.2047 8.94515C20.2047 9.09238 20.2484 9.22743 20.2901 9.32717C20.3348 9.4341 20.3942 9.5401 20.4592 9.63911C20.5886 9.83625 20.7619 10.0387 20.9504 10.2037L20.9595 10.2117L20.9596 10.2115C21.1963 10.4089 21.3103 10.5989 21.3439 10.7137C21.3467 10.7232 21.3487 10.7315 21.3502 10.7386C21.2902 10.7786 21.2263 10.8281 21.1696 10.8891C21.0968 10.9674 20.9995 11.1045 20.9893 11.2965C20.9784 11.4999 21.0702 11.6557 21.1586 11.7526C21.2414 11.8435 21.3411 11.9068 21.425 11.9516C21.5944 12.0422 21.8238 12.1222 22.0929 12.2002C22.3692 12.2803 22.7179 12.3667 23.143 12.4633C24.822 12.8548 25.8718 13.2451 26.4988 13.6977C26.8029 13.9172 26.9956 14.1434 27.1156 14.3825C27.2359 14.6221 27.2979 14.904 27.2979 15.256C27.2979 16.15 26.961 17.678 26.3854 19.4486C25.8153 21.2025 25.0295 23.1394 24.17 24.8312C24.1699 24.8313 24.1698 24.8314 24.1698 24.8316L24.6155 25.058C24.1554 25.9596 23.772 26.7844 23.772 26.8995C23.772 27.0146 24.2321 27.3023 24.8073 27.5325L14.7865 3.57545ZM14.7865 3.57545C14.3651 3.58522 14.1626 3.61019 14.0387 3.65103C13.9536 3.67909 13.8951 3.71624 13.793 3.84554L13.7885 3.85135L13.7837 3.85703C13.6333 4.03647 13.5327 4.34322 13.5386 4.70502C13.5444 5.06369 13.6543 5.40072 13.8305 5.62272L13.8346 5.62797C13.9741 5.80865 14.038 5.84796 14.1039 5.87235C14.2037 5.90934 14.3733 5.93231 14.7808 5.93231C15.0414 5.93231 15.2869 5.93837 15.4857 5.9762C15.6766 6.01253 15.9615 6.10325 16.1154 6.39034C16.2553 6.65141 16.2048 6.93317 16.1571 7.11665C16.1043 7.3194 16.0087 7.56087 15.8954 7.8303C15.8283 7.99875 15.7636 8.20118 15.7161 8.3891C15.6655 8.58946 15.6451 8.73169 15.6451 8.79169C15.6451 9.0489 15.5298 9.3145 15.4136 9.51743C15.2879 9.73666 15.1151 9.96194 14.9157 10.1504C14.6642 10.3941 14.5425 10.6041 14.5062 10.7292C14.505 10.7333 14.504 10.7372 14.503 10.7409C14.5612 10.7799 14.6224 10.8273 14.6771 10.8848C14.7483 10.9596 14.8434 11.0884 14.8628 11.2701C14.8839 11.467 14.8064 11.627 14.7192 11.7331C14.6393 11.8304 14.5408 11.8976 14.4597 11.9442C14.2962 12.0382 14.0754 12.1197 13.8213 12.1978C13.5598 12.2783 13.2301 12.3649 12.8294 12.4615C11.9105 12.6867 10.6458 13.1171 10.0393 13.4206L10.0329 13.4237C9.23082 13.8108 8.89914 14.093 8.74585 14.4172C8.58541 14.7564 8.56488 15.2535 8.71783 16.2305C9.05258 18.1996 10.1047 21.2 11.4718 23.9738C11.8183 24.6769 12.1318 25.3331 12.3593 25.8272C12.4729 26.0737 12.5664 26.2829 12.6323 26.4385C12.6649 26.5157 12.6928 26.5846 12.7134 26.6405C12.7235 26.6679 12.7341 26.6982 12.7428 26.728L12.7434 26.73C12.7481 26.7456 12.7694 26.8169 12.7694 26.8995C12.7694 27.0808 12.6773 27.2068 12.6498 27.2435C12.6087 27.2985 12.5622 27.3438 12.5248 27.3771C12.4481 27.4456 12.3523 27.5145 12.2531 27.5794C12.0509 27.7115 11.782 27.8609 11.49 28.0019L11.49 28.002L11.4846 28.0045C11.0222 28.2211 10.8617 28.3228 10.7646 28.4306C10.6728 28.5326 10.6026 28.6787 10.4655 29.1196L10.4647 29.1222C10.3387 29.52 10.2116 29.8505 10.0029 30.1166C9.78438 30.3951 9.51172 30.5603 9.18776 30.7075C9.03983 30.7826 8.89223 30.8851 8.77673 30.9876C8.7184 31.0394 8.67415 31.0859 8.64435 31.1229C8.62964 31.1412 8.62134 31.1536 8.61725 31.16C8.59665 31.2446 8.61402 31.387 8.74562 31.5585C8.88205 31.7362 9.10003 31.8827 9.34114 31.9342C9.62817 31.9916 9.86407 32.0417 10.0538 32.0904C10.2394 32.1381 10.4101 32.1916 10.552 32.2645C10.7026 32.3418 10.8508 32.4563 10.9455 32.6378C11.034 32.8077 11.044 32.9785 11.044 33.0953C11.044 33.0949 11.044 33.0999 11.046 33.1108C11.048 33.1218 11.0517 33.1371 11.0583 33.1569C11.0716 33.1974 11.0943 33.2492 11.1292 33.3112C11.1995 33.4361 11.3067 33.5795 11.4424 33.7236C11.7214 34.0197 12.0617 34.2573 12.3318 34.3474C12.899 34.5366 13.295 34.8603 13.4723 35.3926L13.4779 35.4094L13.4823 35.4265C13.5212 35.5783 13.5417 35.8465 13.5568 36.139C13.5729 36.4541 13.5848 36.8605 13.5928 37.3293C13.6088 38.2678 13.6094 39.4697 13.5962 40.7183C13.5698 43.205 13.4885 45.9145 13.3609 47.0939C12.7783 52.5725 10.9891 57.4272 8.23145 60.8762L8.2315 60.8762L8.22671 60.882C7.92079 61.253 7.63418 61.6418 7.4192 61.9668C7.31151 62.1295 7.22509 62.2713 7.16406 62.3836C7.11159 62.48 7.09128 62.5308 7.08546 62.5453C7.08382 62.5494 7.08333 62.5506 7.0836 62.5492C6.97448 63.0648 6.84251 63.4831 6.59413 63.8304C6.33973 64.1861 5.99934 64.4177 5.57675 64.6343L5.57612 64.6346C4.73235 65.0656 3.85864 65.8156 3.1208 66.7148C2.38384 67.613 1.80907 68.6276 1.5349 69.5644C1.36306 70.1712 1.31201 70.6334 1.35475 71.0125C1.39627 71.3807 1.52928 71.6979 1.77463 72.0151L2.19532 72.5508L2.50896 72.9502L2.10472 73.2576L1.62712 73.6208C1.62683 73.621 1.62654 73.6212 1.62625 73.6215C1.0392 74.0718 0.761604 74.3079 0.619789 74.4844C0.558649 74.5605 0.535471 74.611 0.523121 74.6514C0.509372 74.6964 0.5 74.7586 0.5 74.8737C0.5 75.1704 0.526023 75.3575 0.57327 75.489C0.614421 75.6034 0.677351 75.6922 0.79911 75.7805C0.934497 75.8786 1.14814 75.9796 1.49769 76.0871C1.84401 76.1937 2.29213 76.2976 2.87762 76.4167C5.86784 77.0015 12.1564 77.3758 18.4694 77.4741C24.7852 77.5724 31.034 77.3932 33.9439 76.8938L33.9469 76.8933C35.1808 76.6891 35.8206 76.5127 36.1595 76.2978C36.3076 76.2038 36.3787 76.1134 36.4216 76.0173C36.4695 75.91 36.5 75.7554 36.5 75.5067C36.5 75.227 36.4313 75.0182 36.2943 74.8339C36.1491 74.6385 35.9022 74.4374 35.4898 74.2265C35.2286 74.0956 34.8265 73.8574 34.7994 73.3821C34.7872 73.1685 34.8594 72.9785 34.9403 72.8271C35.022 72.6743 35.1366 72.5169 35.2675 72.3556C35.4467 72.1273 35.5415 71.8471 35.5415 71.0757C35.5415 70.1655 35.1303 69.0492 34.3919 67.9467C33.659 66.8525 32.6341 65.8182 31.4769 65.0704C30.3321 64.3379 29.6141 63.6564 29.5987 62.7423C29.5955 62.7323 29.5878 62.7091 29.5706 62.6702C29.5371 62.5944 29.4836 62.4935 29.4102 62.3729C29.2644 62.1334 29.0595 61.8474 28.8344 61.5769C25.3552 57.5045 23.4521 52.2348 22.8712 45.2984L22.871 45.2964C22.7452 43.7178 22.6635 41.4663 22.637 39.5185C22.6238 38.5438 22.6243 37.6406 22.6404 36.9318C22.6484 36.5777 22.6604 36.2683 22.6768 36.021C22.6924 35.7876 22.7139 35.5708 22.7509 35.4265L22.7553 35.4093L22.7609 35.3926C22.9382 34.8604 23.3341 34.5366 23.9014 34.3474C24.1712 34.2574 24.5112 34.0201 24.7895 33.7225C24.925 33.5777 25.032 33.433 25.1023 33.3061C25.1773 33.1709 25.1891 33.0947 25.1891 33.0761C25.1891 32.82 25.2915 32.5933 25.4709 32.4244C25.6368 32.2682 25.8462 32.1809 26.0471 32.1307L26.0553 32.1286L26.0636 32.1269C26.2023 32.0971 26.3783 32.0629 26.548 32.0299L26.5522 32.029C26.7263 31.9952 26.8936 31.9626 27.0221 31.935C27.067 31.9254 27.1567 31.8878 27.2601 31.8128C27.3621 31.739 27.4346 31.6598 27.4679 31.6057L27.4726 31.598L27.4777 31.5904C27.5922 31.4185 27.5917 31.2537 27.5271 31.1155C27.4587 30.9692 27.2968 30.8129 27.0199 30.7402C26.7161 30.6613 26.4262 30.5454 26.1934 30.2417C25.9972 29.9859 25.87 29.6274 25.7309 29.1823C25.5489 28.6362 25.4783 28.4829 25.3867 28.3853C25.2954 28.2879 25.1503 28.2104 24.6204 27.9963L14.7865 3.57545Z" fill="#F0F7F4" stroke="#E27D5F"/>
</svg>
