<svg width="153" height="340" viewBox="0 0 153 340" fill="none" xmlns="http://www.w3.org/2000/svg">
<mask id="path-1-inside-1" fill="white">
<path d="M69.3 1.60004C66.1 3.20004 63 8.20004 63 11.8C63 12.8 64.3 15.4001 66 17.4001L68.9 21.2L66.9 26.3C64.7 32.1 61.2 37.7 50.5 52.6C38.7 68.9001 36.6 73.2 36.6 80.9001C36.5 86.5 37 88.4 39.8 93.5C41.6 96.8 45 102.2 47.5 105.5C50 108.8 52 112 52 112.6C52 113.2 50.9 114.2 49.5 114.8C46.1 116.3 46.3 119.5 49.8 121.2C51.8 122.2 52.5 123.2 52.5 125.5C52.5 128 51.8 128.8 48.1 130.6C44.4 132.3 43.4 133.4 42.6 136.5C41.8 139.1 40.5 140.9 38.5 142C35.1 143.9 34 148 36.5 150C37.3 150.7 39.5 151.6 41.3 151.9C43.4 152.4 44.6 153.3 44.8 154.5C45.4 157.3 47.9 159.9 51.6 161.5C54.7 162.8 54.8 163 55.5 171.2C56.2 180 54.7 211 53 221.5C50.2 238.7 42.1 258.4 33.2 269.5C30.6 272.8 27.9 277.1 27.4 279C26.7 281.6 25.1 283.4 21.6 285.7C14.3 290.4 10.2 294.8 7 301.4C3.7 308 3 315.3 5.5 318.6C7.6 321.4 7.3 322.3 3.5 324.8C0.9 326.5 0 327.7 0 329.9C0 336.3 5.3 337.5 40 339.1C65 340.3 112 339.7 132.3 337.9C145.1 336.8 150.7 335.4 152.3 332.9C153.9 330.4 152.3 326.3 149 324.3C145.6 322.3 145.3 321 147.6 317.4C150.1 313.7 148.8 306 144.8 299.3C141 293 138 290 131.4 285.6C127.9 283.4 126.2 281.4 125.3 278.8C124.6 276.8 121.9 272.4 119.2 269.1C113.6 262.1 107.2 249.7 103.7 239C99.4 225.8 97.9 214.2 97.3 188.3L96.7 164.1L101.4 161.3C104.5 159.4 106.3 157.5 107.1 155.3C107.8 153.1 108.8 152 110 152C112.7 152 116.8 150 117.4 148.3C118.2 146.2 116.4 143.3 113.3 141.8C111.5 140.9 110.3 139.2 109.6 136.6C108.7 133.4 107.7 132.4 104 130.6C100.2 128.8 99.5 128 99.5 125.5C99.5 123.2 100.2 122.2 102.3 121.2C105.7 119.5 105.9 116.3 102.5 114.8C101.1 114.2 100 113.3 100 112.9C100 112.5 102.9 107.8 106.5 102.6C114.5 90.7 116.6 84.3 115 76.6C113.8 70.7 111.3 66.4001 97.3 46.9001C92.4 39.9001 87.1 31.2 85.5 27.6L82.7 20.9001L85.2 18.2C88.7 14.5 89.3 11.8 87.6 7.60004C84.8 0.900055 76.3 -1.89996 69.3 1.60004Z"/>
</mask>
<path d="M69.3 1.60004C66.1 3.20004 63 8.20004 63 11.8C63 12.8 64.3 15.4001 66 17.4001L68.9 21.2L66.9 26.3C64.7 32.1 61.2 37.7 50.5 52.6C38.7 68.9001 36.6 73.2 36.6 80.9001C36.5 86.5 37 88.4 39.8 93.5C41.6 96.8 45 102.2 47.5 105.5C50 108.8 52 112 52 112.6C52 113.2 50.9 114.2 49.5 114.8C46.1 116.3 46.3 119.5 49.8 121.2C51.8 122.2 52.5 123.2 52.5 125.5C52.5 128 51.8 128.8 48.1 130.6C44.4 132.3 43.4 133.4 42.6 136.5C41.8 139.1 40.5 140.9 38.5 142C35.1 143.9 34 148 36.5 150C37.3 150.7 39.5 151.6 41.3 151.9C43.4 152.4 44.6 153.3 44.8 154.5C45.4 157.3 47.9 159.9 51.6 161.5C54.7 162.8 54.8 163 55.5 171.2C56.2 180 54.7 211 53 221.5C50.2 238.7 42.1 258.4 33.2 269.5C30.6 272.8 27.9 277.1 27.4 279C26.7 281.6 25.1 283.4 21.6 285.7C14.3 290.4 10.2 294.8 7 301.4C3.7 308 3 315.3 5.5 318.6C7.6 321.4 7.3 322.3 3.5 324.8C0.9 326.5 0 327.7 0 329.9C0 336.3 5.3 337.5 40 339.1C65 340.3 112 339.7 132.3 337.9C145.1 336.8 150.7 335.4 152.3 332.9C153.9 330.4 152.3 326.3 149 324.3C145.6 322.3 145.3 321 147.6 317.4C150.1 313.7 148.8 306 144.8 299.3C141 293 138 290 131.4 285.6C127.9 283.4 126.2 281.4 125.3 278.8C124.6 276.8 121.9 272.4 119.2 269.1C113.6 262.1 107.2 249.7 103.7 239C99.4 225.8 97.9 214.2 97.3 188.3L96.7 164.1L101.4 161.3C104.5 159.4 106.3 157.5 107.1 155.3C107.8 153.1 108.8 152 110 152C112.7 152 116.8 150 117.4 148.3C118.2 146.2 116.4 143.3 113.3 141.8C111.5 140.9 110.3 139.2 109.6 136.6C108.7 133.4 107.7 132.4 104 130.6C100.2 128.8 99.5 128 99.5 125.5C99.5 123.2 100.2 122.2 102.3 121.2C105.7 119.5 105.9 116.3 102.5 114.8C101.1 114.2 100 113.3 100 112.9C100 112.5 102.9 107.8 106.5 102.6C114.5 90.7 116.6 84.3 115 76.6C113.8 70.7 111.3 66.4001 97.3 46.9001C92.4 39.9001 87.1 31.2 85.5 27.6L82.7 20.9001L85.2 18.2C88.7 14.5 89.3 11.8 87.6 7.60004C84.8 0.900055 76.3 -1.89996 69.3 1.60004Z" fill="#40B3A2" stroke="#E27D5F" stroke-width="2" mask="url(#path-1-inside-1)"/>
</svg>
