<svg  id="Layer_1" enable-background="new 0 0 512.007 512.007" height="512" viewBox="0 0 512.007 512.007" width="512" xmlns="http://www.w3.org/2000/svg"><g><circle cx="112.003" cy="184.005" fill="#edebfd" r="56"/><path d="m96.003 130.346c23.105 6.902 40 28.339 40 53.659s-16.895 46.757-40 53.659c36.012 10.752 72-16.42 72-53.659 0-37.277-36.031-64.398-72-53.659z" fill="#d2d2fc"/><circle cx="400.003" cy="184.005" fill="#edebfd" r="56"/><path d="m384.003 130.346c23.105 6.902 40 28.339 40 53.659s-16.895 46.757-40 53.659c36.012 10.752 72-16.42 72-53.659 0-37.277-36.031-64.398-72-53.659z" fill="#d2d2fc"/><path d="m464.003 400.005h-128c-5.733 0-9.615-5.871-7.35-11.15 19.968-46.175 26.924-85.377 31.4-125.729.45-4.05 3.87-7.12 7.95-7.12h64c4.08 0 7.5 3.07 7.95 7.12 5.11 46.073 12.6 81.891 31.4 125.729 2.27 5.292-1.628 11.15-7.35 11.15z" fill="#edebfd"/><path d="m471.353 388.855c-19.331-45.108-26.525-81.779-31.4-125.729-.45-4.05-3.87-7.12-7.95-7.12h-32c4.08 0 7.5 3.07 7.95 7.12 4.768 42.986 11.772 79.927 31.4 125.729 2.27 5.292-1.628 11.15-7.35 11.15h32c5.734 0 9.615-5.87 7.35-11.15z" fill="#d2d2fc"/><path d="m512.003 440.005v16c0 13.23-10.77 24-24 24h-104c-2.12 0-4.16-.84-5.66-2.34-10.684-10.684-19.321-18.157-26.67-34.351-2.414-5.298 1.484-11.31 7.28-11.31h145.05c4.42.001 8 3.582 8 8.001z" fill="#9da0df"/><path d="m504.003 432.005h-40c4.42 0 8 3.58 8 8v16c0 13.23-10.77 24-24 24h40c13.23 0 24-10.77 24-24v-16c0-4.419-3.58-8-8-8z" fill="#8286c6"/><path d="m504.003 448.005h-145.05c-3.13 0-5.98-1.83-7.28-4.68-3.97-8.721-6.42-17.87-7.3-27.32-3.465 0-5.941-1.629-7.31-4.03-3.121-5.454-6.082-10.969-8.8-16.37-2.67-5.339 1.217-11.6 7.15-11.6h136.59c4.42 0 8 3.58 8 8 0 12.52 5.98 24.48 16 32l12.8 9.6c6.14 4.622 2.857 14.4-4.8 14.4z" fill="#edebfd"/><path d="m508.803 433.605-12.8-9.6c-10.02-7.52-16-19.48-16-32 0-4.42-3.58-8-8-8h-32c4.42 0 8 3.58 8 8 0 12.52 5.98 24.48 16 32l12.8 9.6c6.139 4.622 2.857 14.4-4.8 14.4h32c7.655 0 10.942-9.776 4.8-14.4z" fill="#d2d2fc"/><path d="m464.003 248.005c0 13.23-10.77 24-24 24h-80c-13.23 0-24-10.77-24-24s10.77-24 24-24h80c13.23 0 24 10.77 24 24z" fill="#edebfd"/><path d="m440.003 224.005h-32c13.23 0 24 10.77 24 24s-10.77 24-24 24h32c13.23 0 24-10.77 24-24s-10.77-24-24-24z" fill="#d2d2fc"/><path d="m176.003 400.005h-128c-5.733 0-9.615-5.871-7.35-11.15 7.714-17.987 14.22-36.872 19.27-56.029 7.453-28.21 9.718-47.949 12.13-69.7.45-4.05 3.87-7.12 7.95-7.12h64c4.08 0 7.5 3.07 7.95 7.12 5.017 45.236 12.556 82.155 31.4 125.729 2.27 5.292-1.628 11.15-7.35 11.15z" fill="#edebfd"/><path d="m183.353 388.855c-19.331-45.108-26.525-81.779-31.4-125.729-.45-4.05-3.87-7.12-7.95-7.12h-32c4.08 0 7.5 3.07 7.95 7.12 4.768 42.986 11.772 79.927 31.4 125.729 2.27 5.292-1.628 11.15-7.35 11.15h32c5.734 0 9.615-5.87 7.35-11.15z" fill="#d2d2fc"/><path d="m160.333 443.315c-.005.015-.059.129-.06.131-7.282 15.995-16.108 23.718-26.61 34.22-1.5 1.5-3.54 2.34-5.66 2.34h-104c-13.23 0-24-10.77-24-24v-16c0-4.385 3.553-8 8-8h145.05c5.799-.001 9.693 6.014 7.28 11.309z" fill="#9da0df"/><path d="m183.743 395.605c-2.82 5.601-5.78 11.11-8.8 16.37-1.353 2.373-3.814 4.03-7.31 4.03-.931 9.963-3.711 19.681-7.34 27.4-1.32 2.81-4.14 4.6-7.24 4.6h-145.05c-7.655 0-10.942-9.777-4.8-14.4l12.8-9.6c10.004-7.513 16-19.38 16-32 0-4.42 3.58-8 8-8h136.59c5.922 0 9.827 6.247 7.15 11.6z" fill="#edebfd"/><path d="m220.803 433.605-12.8-9.6c-10.02-7.52-16-19.48-16-32 0-4.42-3.58-8-8-8h-32c4.42 0 8 3.58 8 8 0 12.52 5.98 24.48 16 32l12.8 9.6c6.139 4.622 2.857 14.4-4.8 14.4h32c7.655 0 10.942-9.776 4.8-14.4z" fill="#d2d2fc"/><path d="m176.003 248.005c0 13.23-10.77 24-24 24h-80c-13.23 0-24-10.77-24-24s10.77-24 24-24h80c13.23 0 24 10.77 24 24z" fill="#edebfd"/><path d="m152.003 224.005h-32c13.23 0 24 10.77 24 24s-10.77 24-24 24h32c13.23 0 24-10.77 24-24s-10.77-24-24-24z" fill="#d2d2fc"/><path d="m312.003 56.005c0 13.23-10.77 24-24 24h-8v32c0 4.42-3.58 8-8 8h-32c-4.42 0-8-3.58-8-8v-32h-8c-13.23 0-24-10.77-24-24s10.77-24 24-24h8v-8c0-13.23 10.77-24 24-24s24 10.77 24 24v8h8c13.23 0 24 10.77 24 24z" fill="#9da0df"/><path d="m288.003 32.005h-8v-8c0-18.563-20.201-29.935-36-20.77 7.165 4.157 12 11.909 12 20.77v8h8c13.23 0 24 10.77 24 24s-10.77 24-24 24h-8v32c0 4.42-3.58 8-8 8h24c4.42 0 8-3.58 8-8v-32h8c13.23 0 24-10.77 24-24s-10.77-24-24-24z" fill="#8286c6"/><path d="m325.313 137.755-22 49.5c-1.28 2.89-4.15 4.75-7.31 4.75h-80c-3.16 0-6.03-1.86-7.31-4.75l-22-49.5c-7.063-15.918 4.605-33.75 21.93-33.75h94.76c17.345 0 28.984 17.853 21.93 33.75z" fill="#9da0df"/><path d="m303.383 104.005h-32c17.345 0 28.984 17.853 21.93 33.75l-22 49.5c-1.28 2.89-4.15 4.75-7.31 4.75h32c3.16 0 6.03-1.86 7.31-4.75l22-49.5c7.063-15.918-4.605-33.75-21.93-33.75z" fill="#8286c6"/><path d="m304.003 184.005v32c0 4.42-3.58 8-8 8h-80c-4.42 0-8-3.58-8-8v-32c0-4.42 3.58-8 8-8h80c4.42 0 8 3.58 8 8z" fill="#9da0df"/><path d="m296.003 176.005h-32c4.42 0 8 3.58 8 8v32c0 4.42-3.58 8-8 8h32c4.42 0 8-3.58 8-8v-32c0-4.42-3.58-8-8-8z" fill="#8286c6"/><path d="m176.003 400.005h-28.68c2.777-5.024 5.538-10.323 8.3-16h20.97c2.19 0 4.24.89 5.73 2.42.34.811.68 1.62 1.03 2.43 2.27 5.292-1.628 11.15-7.35 11.15z" fill="#d2d2fc"/><path d="m344.003 416.005h-176c-6.121 0-10.003-6.642-6.94-11.97 35.495-62.215 40.04-111.798 47.03-157.25.6-3.9 3.96-6.78 7.91-6.78h80c3.95 0 7.31 2.88 7.91 6.78 7.905 51.402 12.552 96.818 47.03 157.25 3.045 5.297-.782 11.97-6.94 11.97z" fill="#9da0df"/><path d="m360.003 416.005h-16c-2.87 0-5.52-1.54-6.94-4.03-3.121-5.454-6.082-10.969-8.8-16.37-1.581-3.162-.864-6.895 1.42-9.18 4.81-11.43 9.12-23.16 12.87-35.06 6.352 17.494 14.471 35.311 24.39 52.67 3.045 5.297-.782 11.97-6.94 11.97z" fill="#d2d2fc"/><g fill="#8286c6"><path d="m350.943 404.036c-34.94-61.242-39.53-108.485-47.03-157.25-.6-3.9-3.96-6.78-7.91-6.78h-32c3.95 0 7.31 2.88 7.91 6.78 7.673 49.889 11.99 95.832 47.03 157.25 3.045 5.296-.782 11.97-6.94 11.97h32c6.121-.001 10.003-6.642 6.94-11.97z"/><path d="m400.003 480.005h-16c-2.12 0-4.16-.84-5.66-2.34-10.684-10.684-19.321-18.157-26.67-34.351-2.414-5.298 1.484-11.31 7.28-11.31h21.35c5.976 16.285 15.048 24.027 25.36 34.34 5.022 5.023 1.456 13.661-5.66 13.661z"/><path d="m160.273 443.446c-7.282 15.995-16.108 23.718-26.61 34.22-1.5 1.5-3.54 2.34-5.66 2.34h-16c-7.101 0-10.692-8.628-5.66-13.66 9.35-9.35 12.775-12.422 16.93-18.34h29.78c3.08-.001 5.89-1.77 7.22-4.56z"/></g><path d="m392.003 472.005v16c0 13.23-10.77 24-24 24h-224c-13.23 0-24-10.77-24-24v-16c0-4.42 3.58-8 8-8h256c4.42 0 8 3.581 8 8z" fill="#696ead"/><path d="m181.483 400.005c-2.12 4.08-4.32 8.09-6.54 11.97-1.353 2.373-3.814 4.03-7.31 4.03-.79 8.45-2.84 16.7-6.12 24.62-1.134 2.726-2.776 7.38-8.46 7.38h-29.78c8.062-11.325 12.73-25.002 12.73-40 0-4.42 3.58-8 8-8z" fill="#d2d2fc"/><path d="m384.003 464.005h-40c4.42 0 8 3.58 8 8v16c0 13.23-10.77 24-24 24h40c13.23 0 24-10.77 24-24v-16c0-4.419-3.58-8-8-8z" fill="#505795"/><path d="m384.003 480.005h-256c-7.101 0-10.692-8.628-5.66-13.66 10.169-10.17 17.37-16.315 23.43-29.649.245-.74 6.23-11.788 6.23-28.69 0-4.42 3.58-8 8-8h192c4.42 0 8 3.58 8 8 0 18.577 7.45 36.131 20.29 48.97l9.37 9.37c5.022 5.021 1.456 13.659-5.66 13.659z" fill="#9da0df"/><path d="m388.733 448.005h-29.78c-3.13 0-5.98-1.83-7.28-4.68-3.97-8.721-6.42-17.87-7.3-27.32-3.465 0-5.941-1.629-7.31-4.03-2.22-3.88-4.42-7.89-6.54-11.97h37.48c4.42 0 8 3.58 8 8 0 14.999 4.89 28.987 12.73 40z" fill="#d2d2fc"/><path d="m389.663 466.345c-10.214-10.214-17.377-16.323-23.43-29.66-4.13-9.06-6.23-18.71-6.23-28.68 0-4.42-3.58-8-8-8h-40c4.42 0 8 3.58 8 8 0 18.577 7.45 36.131 20.29 48.97l9.37 9.37c5.022 5.022 1.456 13.66-5.66 13.66h40c7.102 0 10.693-8.627 5.66-13.66z" fill="#8286c6"/><path d="m312.003 192.005h-112c-4.418 0-8-3.582-8-8s3.582-8 8-8h112c4.418 0 8 3.582 8 8s-3.582 8-8 8z" fill="#696ead"/><path d="m312.003 176.005h-40c4.418 0 8 3.582 8 8s-3.582 8-8 8h40c4.418 0 8-3.582 8-8s-3.582-8-8-8z" fill="#505795"/><path d="m304.003 248.005h-96c-8.837 0-16-7.163-16-16 0-8.809 7.136-16 16-16h96c8.837 0 16 7.163 16 16 0 8.809-7.135 16-16 16z" fill="#696ead"/><path d="m304.003 216.005h-32c8.836 0 16 7.163 16 16 0 8.837-7.164 16-16 16h32c8.836 0 16-7.163 16-16 0-8.836-7.163-16-16-16z" fill="#505795"/></g></svg>
