<svg xmlns="http://www.w3.org/2000/svg" viewBox="0 0 382.96 294.97"><defs><style>.cls-1{fill:#1d1d1b;}.cls-2{fill:#fff;}</style></defs><g id="Слой_2" data-name="Слой 2"><g id="Layer_1" data-name="Layer 1"><path class="cls-1" d="M48.55,148.19a2.62,2.62,0,0,0-.83-5.11H46a124.74,124.74,0,0,1-11.18-35.75l0-.08h8a4.75,4.75,0,0,0,0-9.5h-10a16,16,0,1,0-11.51,0h-10a4.75,4.75,0,0,0,0,9.5h8.28l0,.08A124.43,124.43,0,0,1,8.33,143.08H6.14a2.62,2.62,0,0,0-.46,5.21C2.31,154.71-.2,159,0,162.58c.5,8.42,4,9.94,4.57,11.19-6.07,2.31-2.67,4.52-2.67,4.52l4.44,3.88H47.94l4.44-3.88s3.39-2.21-2.67-4.52c.56-1.25,4.06-2.77,4.56-11.19C54.49,159,52,154.67,48.55,148.19Z"/><path class="cls-2" d="M38.81,162.25a1.36,1.36,0,0,0,1-1.28,1.4,1.4,0,0,0-1.43-1.36h-1a62.24,62.24,0,0,1-6.09-18.49l0,0h4.38a2.46,2.46,0,1,0,0-4.92H30.21a8.3,8.3,0,0,0,5.58-7.72,8.5,8.5,0,0,0-8.72-8.27,8.51,8.51,0,0,0-8.72,8.27,8.29,8.29,0,0,0,5.59,7.72H18.49a2.46,2.46,0,1,0,0,4.92H23v0a62.21,62.21,0,0,1-6.1,18.49H15.7a1.36,1.36,0,0,0-.25,2.7c-1.84,3.32-3.21,5.53-3.09,7.39.27,4.36,2.18,5.14,2.48,5.79-3.3,1.2-1.45,2.34-1.45,2.34l2.42,2H38.48l2.41-2s1.86-1.14-1.45-2.34c.31-.65,2.22-1.43,2.49-5.79C42.05,167.83,40.66,165.61,38.81,162.25Z"/><path class="cls-1" d="M118.7,172.73v-1.12c7.4-4.11,6.69-14.67-.19-26.65a29.32,29.32,0,0,1-2.15-5h1.09a2.57,2.57,0,0,0,0-5.14h-2.62c-3.54-13.59-5.73-34-6.61-43.57h2.46a3,3,0,0,0,3.08-2.93,3,3,0,0,0-2.79-2.9c11-11.69,9.63-23.21,9.63-23.21H106.92l.37,11.62H95.54L96,62.21H84.64L85,73.83H73.26l.46-11.62H59.64C60,77.71,69.35,85.4,69.35,85.4a2.93,2.93,0,1,0,0,5.85h3c-1.13,10.62-3.22,31.9-4.45,40.08a18.39,18.39,0,0,1-.89,3.49H63.1a2.57,2.57,0,1,0,0,5.14h1.37c-3.32,5.52-7.75,10.55-7.83,18.5-.13,11.75,5,12.79,5,12.79v1.51a5.56,5.56,0,0,0,.6,11.09h56.63a5.56,5.56,0,0,0,5.56-5.56A5.67,5.67,0,0,0,118.7,172.73Z"/><path class="cls-2" d="M105.12,174.68H105c4-4.7,3.68-8.27-.06-14.54a15.47,15.47,0,0,1-1.17-2.61h.59a1.35,1.35,0,1,0,0-2.69H103C101,147.72,99.84,137,99.37,132h1.33a1.53,1.53,0,1,0,.16-3.05c5.94-6.12,5.22-12.15,5.22-12.15H98.67l.2,6.09H92.49l.25-6.09H86.58l.2,6.09H80.41l.25-6.09H73A16.52,16.52,0,0,0,78.28,129a1.54,1.54,0,1,0,0,3.06H79.9c-.61,5.56-1.74,16.7-2.41,21a9.83,9.83,0,0,1-.48,1.83H74.89a1.35,1.35,0,1,0,0,2.69h.75c-1.8,2.88-4.21,5.52-4.25,9.68-.07,6.15,2.69,6.69,2.69,6.69v.8a2.9,2.9,0,0,0,.32,5.8h30.72a2.91,2.91,0,1,0,0-5.82Z"/><path class="cls-1" d="M183,173.16v-1.37s5.27-1.89,5.27-10.39c0-5.71-3.76-12.57-6.57-18.1a2.49,2.49,0,0,0,2.32-2.4,2.53,2.53,0,0,0-2.62-2.44h-2a12.88,12.88,0,0,1-.63-2c-.58-2.73-3.27-23.41-5.8-43.15a3.87,3.87,0,0,0-.19-7.73H172c-.9-7.09-1.74-13.71-2.39-18.9,4.71-3.73,12.94-11.5,14.19-21.1,1.62-12.5-16-9.12-16-9.12V31.08H146.51v5.38s-17.62-3.38-16,9.12c1.24,9.54,9.39,17.28,14.12,21-.55,5.19-1.26,11.84-2,19h-1.3a3.88,3.88,0,1,0,0,7.75h.46c-2.13,19.73-4.44,40.4-5,43.13a10.76,10.76,0,0,1-.68,2h-3.57a2.44,2.44,0,1,0,0,4.87h1C130.3,148.85,126,155.7,126,161.4c0,8.5,5.27,10.39,5.27,10.39v1.41a6.71,6.71,0,0,0,1.58,13.22h48.76A6.71,6.71,0,0,0,183,173.16Z"/><path class="cls-1" d="M155.38,14.84c.8,3.39-2.43,7.26-4.76,9.54a13.1,13.1,0,0,0,13.82,0c-5.67-5.66-5.27-9-5.27-9,3.39-.81,7.26,2.43,9.54,4.76a13.07,13.07,0,0,0,0-13.83c-5.65,5.68-9,5.27-9,5.27-.8-3.38,2.43-7.26,4.76-9.53a13,13,0,0,0-13.82,0c5.67,5.65,5.27,9,5.27,9-3.39.81-7.26-2.43-9.54-4.75a13,13,0,0,0,0,13.82C152,14.44,155.38,14.84,155.38,14.84Z"/><path class="cls-2" d="M171.3,175.15v-.71s2.83-1,2.83-5.43c0-3-2-6.57-3.53-9.46a1.31,1.31,0,0,0,1.24-1.26,1.35,1.35,0,0,0-1.41-1.27h-1.05A5.29,5.29,0,0,1,169,156c-.31-1.42-1.77-12.23-3.12-22.54a2,2,0,1,0-.11-4h-.43l-1.28-9.88c2.54-2,7-6,7.64-11,.88-6.53-8.62-4.77-8.62-4.77v-2.8H151.65v2.8s-9.5-1.76-8.62,4.77c.67,5,5.05,9,7.6,11-.29,2.71-.68,6.18-1.09,9.91h-.7a2,2,0,1,0,0,4.05h.25c-1.15,10.31-2.39,21.11-2.7,22.53A4.85,4.85,0,0,1,146,157h-1.92a1.28,1.28,0,1,0,0,2.55h.53c-1.72,2.88-4.07,6.46-4.07,9.44,0,4.44,2.84,5.43,2.84,5.43v.73a3.5,3.5,0,0,0,.85,6.91h26.26a3.5,3.5,0,0,0,.78-6.93Z"/><path class="cls-2" d="M156.42,92.42c.44,1.77-1.31,3.79-2.56,5a7.25,7.25,0,0,0,7.45,0c-3.06-2.95-2.84-4.73-2.84-4.73,1.82-.42,3.91,1.27,5.13,2.49a6.64,6.64,0,0,0,0-7.23c-3,3-4.87,2.76-4.87,2.76-.44-1.77,1.31-3.8,2.56-5a7.25,7.25,0,0,0-7.45,0c3.06,3,2.84,4.73,2.84,4.73-1.82.42-3.91-1.27-5.13-2.48a6.62,6.62,0,0,0,0,7.22C154.59,92.21,156.42,92.42,156.42,92.42Z"/><path class="cls-1" d="M250.33,173.25V172c9.9-8.66,1.12-23.83-2.09-30.28h.23a2.38,2.38,0,1,0,0-4.75H246c-11.18-19.54-13.09-32-13.4-40.71h7.61a4.46,4.46,0,1,0,0-8.91h-7.63c.45-17.16,6.67-25.64,9.53-29.59a20.62,20.62,0,0,1,2-2.36c1.27-1.31,2.65-2.5,3.94-3.79a8.89,8.89,0,0,0,1.39-1.42A4.09,4.09,0,0,0,250,48a5,5,0,0,0-.12-1.39,3.41,3.41,0,0,0-1.28-1.91c-2.05-1.57-4.54-1.23-6.85-.53-1.16.36-2.27.83-3.41,1.24a7.84,7.84,0,0,1-2.65.63c-3.31-.06-3.75-2.12-6.25-2.12s-3.56,2.56-6.69,2.62a8.38,8.38,0,0,1-4.65-1.78,4.08,4.08,0,0,0-2.2-.86c-1-.06-2.66,1-3.45,1.55-3.55,2.32-7.32-1.2-11-1.72-6.07-.88-7.68,4.87-4.43,8.12,7.45,6.64,14.57,17.11,15.43,35.47h-7.72a4.46,4.46,0,1,0,0,8.91h7.66c-.08,1.52-.2,3.08-.37,4.7-1.39,13.73-7,25.92-12.11,36h-3.1a2.38,2.38,0,0,0,0,4.75h.65c-4,7.59-7.14,13.75-7.1,18.16.08,10.75,5.54,12.12,5.54,12.12v1.23a5.34,5.34,0,0,0,.59,10.67h52.78a5.48,5.48,0,0,0,5.59-5.35A5.41,5.41,0,0,0,250.33,173.25Z"/><circle class="cls-1" cx="223.01" cy="25.96" r="11.5"/><path class="cls-2" d="M236.89,175.27v-.68c5.19-4.55.59-12.51-1.09-15.9h.11a1.25,1.25,0,1,0,0-2.49H234.6c-5.87-10.26-6.87-16.8-7-21.37h4a2.34,2.34,0,0,0,0-4.68h-4c.24-9,3.5-13.46,5-15.53a10.37,10.37,0,0,1,1.06-1.24c.67-.69,1.39-1.31,2.07-2a5.11,5.11,0,0,0,.73-.74,2.26,2.26,0,0,0,.27-1.14,2.58,2.58,0,0,0-.06-.73,1.78,1.78,0,0,0-.67-1,3.86,3.86,0,0,0-3.6-.28c-.61.19-1.19.44-1.79.65a4,4,0,0,1-1.39.33c-1.74,0-2-1.11-3.28-1.11s-1.87,1.34-3.51,1.38a4.44,4.44,0,0,1-2.44-.94,2.22,2.22,0,0,0-1.16-.45,4.12,4.12,0,0,0-1.81.81c-1.86,1.22-3.84-.63-5.75-.9-3.19-.46-4,2.56-2.32,4.26,3.91,3.49,7.64,9,8.09,18.62H213a2.34,2.34,0,1,0,0,4.68h4c0,.8-.11,1.62-.19,2.46-.73,7.21-3.66,13.61-6.36,18.91H208.8a1.25,1.25,0,1,0,0,2.49h.33c-2.07,4-3.74,7.22-3.72,9.54,0,5.64,2.9,6.36,2.9,6.36v.64a2.8,2.8,0,0,0,.31,5.6h27.71a2.87,2.87,0,0,0,2.93-2.81A2.84,2.84,0,0,0,236.89,175.27Z"/><path class="cls-2" d="M222.55,104a6,6,0,1,0-6-6A6,6,0,0,0,222.55,104Z"/><path class="cls-1" d="M308.7,173.24v-1.59s4.68-.88,5-11.32c.15-5.28-2.74-11.11-6.31-18.52a2.42,2.42,0,0,0-.18-4.84H305.1a110.85,110.85,0,0,1-7.86-22.3c-.16-2.42-.29-5.81-.41-9.59h1.77a3.25,3.25,0,0,0,0-6.5h-2c-.08-3.45-.15-7-.21-10.16h.95a2.13,2.13,0,0,0,0-4.25h-1c0-.61,0-1.19,0-1.75,1.81-1.13,4.64-4.1,4.78-11.71.19-10.06-7.55-15.49-12.77-27.61a5.5,5.5,0,1,0-6.24,0,69.89,69.89,0,0,1-5.82,10.53l7.14,10.7a2,2,0,0,1-.56,2.77,2,2,0,0,1-1.1.34,2,2,0,0,1-1.67-.89l-6.17-9.25c-2.67,4.26-4.68,8.21-4.58,13.39.16,8.53,3.69,11.24,5.39,12.05,0,.45,0,.92,0,1.41h-1.67a2.13,2.13,0,0,0,0,4.25h1.6c-.06,3.21-.13,6.71-.22,10.16h-2.58a3.25,3.25,0,0,0,0,6.5h2.4c-.11,3.78-.25,7.17-.4,9.59A111.47,111.47,0,0,1,266,137h-2.83a2.43,2.43,0,0,0,0,4.86h.52c-3.56,7.4-6.45,13.22-6.29,18.5.31,10.44,5,11.32,5,11.32v1.59c-2.36.18-4.21,1.82-4.21,3.84s2.07,3.88,4.62,3.88h45.5c2.56,0,4.63-1.74,4.63-3.88S311.06,173.41,308.7,173.24Z"/><path class="cls-2" d="M297.44,175.63v-.84s2.48-.46,2.65-6c.08-2.79-1.45-5.87-3.34-9.78a1.28,1.28,0,0,0-.09-2.56h-1.12a58.58,58.58,0,0,1-4.16-11.78c-.08-1.28-.15-3.07-.21-5.07h.93a1.72,1.72,0,1,0,0-3.43h-1c0-1.83-.08-3.68-.11-5.37h.5a1.13,1.13,0,1,0,0-2.25h-.54c0-.32,0-.63,0-.92,1-.6,2.45-2.17,2.53-6.19.1-5.31-4-8.18-6.76-14.58a2.91,2.91,0,1,0-3.3,0,36.16,36.16,0,0,1-3.08,5.57l3.78,5.65a1.06,1.06,0,0,1-.3,1.47,1,1,0,0,1-.58.17,1,1,0,0,1-.88-.47l-3.27-4.88c-1.41,2.25-2.47,4.34-2.42,7.07.08,4.51,2,5.94,2.85,6.37,0,.24,0,.49,0,.74h-.88a1.13,1.13,0,0,0,0,2.25h.84c0,1.69-.07,3.54-.11,5.37H278a1.72,1.72,0,1,0,0,3.43h1.27c-.06,2-.13,3.79-.21,5.07a58.58,58.58,0,0,1-4.16,11.78h-1.49a1.29,1.29,0,1,0,0,2.57h.27c-1.88,3.91-3.41,7-3.33,9.77.17,5.52,2.65,6,2.65,6v.84a2.23,2.23,0,0,0-2.23,2,2.28,2.28,0,0,0,2.45,2.05h24.07a2.27,2.27,0,0,0,2.44-2.05A2.23,2.23,0,0,0,297.44,175.63Z"/><path class="cls-1" d="M370.51,71.5c-4.91-4.33-2.66-6.83-4.33-8.42s-5.67-5.91-5.67-5.91S362.85,54,364.35,52a7.14,7.14,0,0,0-9.17,2c-28.25-5.08-40.42,17.58-40.48,46.66s5.44,35.3,6.56,38.8a9.76,9.76,0,0,1,.44,2h-1.09a2.06,2.06,0,0,0,0,4.12h.45c-1.07,4.42-5.92,10.88-5.92,16,.12,8.75,4,10.38,4,10.38v1.76a4.12,4.12,0,0,0,.12,8.24h48.29a4.12,4.12,0,0,0,.66-8.18V172s3.88-1.63,4-10.38c0-5.12-4.86-11.58-5.92-16h0a2.06,2.06,0,1,0,0-4.12H364.6c-.22-4.6,1.2-13.58,1.49-19.13C348.82,108.67,347.18,86.58,347.68,85c1,.25,3.92,5,5.17,6.42S359.39,95,361.51,93s7.09-1,10.59.79,6.41.71,9.41-2.67C387,85.33,375.43,75.83,370.51,71.5Z"/><path class="cls-2" d="M356.18,122.38c-2.6-2.27-1.41-3.58-2.29-4.41s-3-3.1-3-3.1,1.23-1.66,2-2.7a3.81,3.81,0,0,0-4.86,1c-15-2.66-21.4,9.22-21.44,24.45s2.88,18.49,3.48,20.32a5.17,5.17,0,0,1,.23,1.05h-.58a1.08,1.08,0,1,0,0,2.16H330c-.56,2.32-3.14,5.7-3.14,8.39.07,4.58,2.12,5.43,2.12,5.43v.92a2.16,2.16,0,0,0,.07,4.32h25.57A2.16,2.16,0,0,0,355,176v-1s2.05-.85,2.12-5.43c0-2.69-2.57-6.07-3.13-8.39h0a1.08,1.08,0,1,0,0-2.16h-.92c-.11-2.41.64-7.11.79-10-9.15-7.16-10-18.73-9.75-19.56.53.14,2.07,2.62,2.74,3.37s3.46,1.85,4.59.8,3.75-.54,5.6.42,3.4.37,5-1.4C364.92,129.63,358.79,124.65,356.18,122.38Z"/><rect class="cls-1" x="93.39" y="178.29" width="93.13" height="116.08"/><path class="cls-1" d="M187.11,295H92.79V177.69h94.32ZM94,293.78h91.92V178.89H94Z"/><rect class="cls-2" x="1.91" y="178.29" width="91.48" height="116.08"/><path class="cls-1" d="M94,295H1.31V177.69H94ZM2.51,293.78H92.79V178.89H2.51Z"/><rect class="cls-1" x="278.26" y="178.29" width="93.41" height="116.08"/><path class="cls-1" d="M372.27,295h-94.6V177.69h94.6Zm-93.41-1.19h92.21V178.89H278.86Z"/><rect class="cls-2" x="186.51" y="178.29" width="91.75" height="116.08"/><path class="cls-1" d="M278.86,295h-93V177.69h93Zm-91.75-1.19h90.56V178.89H187.11Z"/><path class="cls-1" d="M48.92,258.34a21.75,21.75,0,0,1-8.68-1.78,22.18,22.18,0,0,1-7.35-5.14,24.84,24.84,0,0,1-5.06-8.18,29.78,29.78,0,0,1-1.89-10.9,31,31,0,0,1,1.86-11,25.75,25.75,0,0,1,5.12-8.51,22.43,22.43,0,0,1,7.66-5.46A23.4,23.4,0,0,1,50,205.45a23,23,0,0,1,6.76.92,25.54,25.54,0,0,1,5.77,2.6L64,206.55h2.85l.32,18H64.26a42.23,42.23,0,0,0-1.71-5.72,22.21,22.21,0,0,0-2.67-5.23,12.92,12.92,0,0,0-4.06-3.79,10.39,10.39,0,0,0-5.37-1.37A13.85,13.85,0,0,0,44,210a14.52,14.52,0,0,0-5.14,4.53,22.29,22.29,0,0,0-3.24,7.35,38.74,38.74,0,0,0-1.18,10,30.49,30.49,0,0,0,1.23,8.9,23.11,23.11,0,0,0,3.51,7.12,16.85,16.85,0,0,0,5.39,4.74,14.24,14.24,0,0,0,7,1.71,15.14,15.14,0,0,0,5.31-.9,14.37,14.37,0,0,0,4.2-2.41,18.44,18.44,0,0,0,3.13-3.57,19.92,19.92,0,0,0,2.21-4.34l2.67,1.28Q66,251.89,61,255.12A21.89,21.89,0,0,1,48.92,258.34Z"/><path class="cls-1" d="M248.44,233.92a11.76,11.76,0,0,1,2.37,3.91,14.5,14.5,0,0,1,.77,4.93,14.09,14.09,0,0,1-5,11.06,18,18,0,0,1-12.3,4.34,22.79,22.79,0,0,1-6.77-1.05,25.71,25.71,0,0,1-5.84-2.55l-1.54,2.6h-2.85l-.5-17.32h2.89a37.14,37.14,0,0,0,2.09,5.79,19.66,19.66,0,0,0,3.15,4.83,14.28,14.28,0,0,0,4.33,3.36,12.66,12.66,0,0,0,5.76,1.24,12.91,12.91,0,0,0,4.29-.64,7.63,7.63,0,0,0,3-1.82,7.5,7.5,0,0,0,1.69-2.77,11.09,11.09,0,0,0,.55-3.66,10.15,10.15,0,0,0-1.71-5.65,10.52,10.52,0,0,0-5.09-4q-2.33-.93-5.32-2c-2-.75-3.72-1.45-5.16-2.12a16.68,16.68,0,0,1-6.65-5,13.09,13.09,0,0,1-2.37-8.14,12.51,12.51,0,0,1,1.17-5.38,14.19,14.19,0,0,1,3.35-4.45,15.13,15.13,0,0,1,4.89-2.91,16.72,16.72,0,0,1,5.88-1.05,17.34,17.34,0,0,1,6.26,1.07,29.56,29.56,0,0,1,5,2.49l1.46-2.42h2.85l.29,16.79h-2.89q-.78-2.9-1.76-5.53a20,20,0,0,0-2.55-4.77,11.72,11.72,0,0,0-3.75-3.3,11,11,0,0,0-5.41-1.23,8.32,8.32,0,0,0-5.78,2.17,6.94,6.94,0,0,0-2.39,5.32,9.1,9.1,0,0,0,1.54,5.43A11.19,11.19,0,0,0,230.9,225a54.45,54.45,0,0,0,5.12,2.15q2.5.92,4.86,2a37.06,37.06,0,0,1,4.12,2.1A15.6,15.6,0,0,1,248.44,233.92Z"/><path class="cls-2" d="M340.94,233.92a11.76,11.76,0,0,1,2.37,3.91,14.5,14.5,0,0,1,.77,4.93,14.09,14.09,0,0,1-5,11.06,18,18,0,0,1-12.3,4.34,22.79,22.79,0,0,1-6.77-1.05,25.71,25.71,0,0,1-5.84-2.55l-1.54,2.6h-2.85l-.5-17.32h2.89a37.14,37.14,0,0,0,2.09,5.79,19.66,19.66,0,0,0,3.15,4.83,14.28,14.28,0,0,0,4.33,3.36,12.66,12.66,0,0,0,5.76,1.24,12.91,12.91,0,0,0,4.29-.64,7.63,7.63,0,0,0,3-1.82,7.5,7.5,0,0,0,1.69-2.77,11.09,11.09,0,0,0,.55-3.66,10.15,10.15,0,0,0-1.71-5.65,10.52,10.52,0,0,0-5.09-4q-2.33-.93-5.32-2c-2-.75-3.72-1.45-5.16-2.12a16.68,16.68,0,0,1-6.65-5,13.09,13.09,0,0,1-2.37-8.14,12.51,12.51,0,0,1,1.17-5.38,14.19,14.19,0,0,1,3.35-4.45,15.13,15.13,0,0,1,4.89-2.91,16.72,16.72,0,0,1,5.88-1.05,17.34,17.34,0,0,1,6.26,1.07,29.56,29.56,0,0,1,5,2.49l1.46-2.42h2.85l.29,16.79h-2.89q-.78-2.9-1.76-5.53a20,20,0,0,0-2.55-4.77,11.72,11.72,0,0,0-3.75-3.3,11,11,0,0,0-5.41-1.23,8.32,8.32,0,0,0-5.78,2.17,6.94,6.94,0,0,0-2.39,5.32,9.1,9.1,0,0,0,1.54,5.43A11.19,11.19,0,0,0,323.4,225a54.45,54.45,0,0,0,5.12,2.15q2.5.92,4.86,2a37.06,37.06,0,0,1,4.12,2.1A15.6,15.6,0,0,1,340.94,233.92Z"/><path class="cls-2" d="M150.2,257.13h-21V254.6l2.47-.21a7.6,7.6,0,0,0,2.23-.43,3.06,3.06,0,0,0,1.57-1.3,4.6,4.6,0,0,0,.5-2.27v-18H112.2V250a4.88,4.88,0,0,0,.41,2.1,3.56,3.56,0,0,0,1.62,1.5,8.79,8.79,0,0,0,2.16.64,14.9,14.9,0,0,0,2.44.36v2.53h-21V254.6l2.48-.21a7.51,7.51,0,0,0,2.22-.43,3,3,0,0,0,1.57-1.3,4.6,4.6,0,0,0,.5-2.27v-36.5a4.63,4.63,0,0,0-.46-2.08,3.21,3.21,0,0,0-1.61-1.48,13,13,0,0,0-2.33-.82,13.68,13.68,0,0,0-2.37-.43v-2.53h21v2.53a20.47,20.47,0,0,0-4.6.86,2.55,2.55,0,0,0-1.62,1.42,5.76,5.76,0,0,0-.41,2.18v15.68H136V213.89a4.64,4.64,0,0,0-.47-2.08,3.15,3.15,0,0,0-1.6-1.48,13,13,0,0,0-2.33-.82,13.68,13.68,0,0,0-2.37-.43v-2.53h21v2.53a20.47,20.47,0,0,0-4.6.86,2.52,2.52,0,0,0-1.62,1.42,5.76,5.76,0,0,0-.41,2.18V250a4.88,4.88,0,0,0,.41,2.1,3.51,3.51,0,0,0,1.62,1.5,8.51,8.51,0,0,0,2.16.64,14.9,14.9,0,0,0,2.44.36Z"/><path class="cls-2" d="M182.88,248.86a17.91,17.91,0,0,1-5.92,6.7,14.91,14.91,0,0,1-8.51,2.5,17.34,17.34,0,0,1-7.44-1.5,14.57,14.57,0,0,1-5.25-4.06,17.3,17.3,0,0,1-3.09-6,25.54,25.54,0,0,1-1-7.24,21.48,21.48,0,0,1,1.08-6.72,19.19,19.19,0,0,1,3.19-5.93,15.41,15.41,0,0,1,5-4.08,14.46,14.46,0,0,1,6.75-1.55,16.24,16.24,0,0,1,6.6,1.21,11.74,11.74,0,0,1,4.45,3.31,13,13,0,0,1,2.44,4.71,20.43,20.43,0,0,1,.81,5.88v2.35H158.75a27.67,27.67,0,0,0,.66,6.29,15.13,15.13,0,0,0,2.08,5,9.86,9.86,0,0,0,3.64,3.26,11.21,11.21,0,0,0,5.35,1.2,9.78,9.78,0,0,0,5.47-1.49,14.73,14.73,0,0,0,4.44-5.35ZM175,235.46a29.87,29.87,0,0,0-.33-4.27,13.2,13.2,0,0,0-1.09-3.8,7.2,7.2,0,0,0-2.25-2.66,6.08,6.08,0,0,0-3.67-1,7.64,7.64,0,0,0-6.22,3.1c-1.65,2.08-2.55,5-2.69,8.66Z"/><path class="cls-1" d="M36,268.26a4.32,4.32,0,0,0-1.25-.76,3.81,3.81,0,0,0-1.39-.25,3.08,3.08,0,0,0-2.29.9,3.23,3.23,0,0,0-.88,2.34,3.19,3.19,0,0,0,.86,2.29,2.87,2.87,0,0,0,2.17.9,4,4,0,0,0,1.45-.27,4.61,4.61,0,0,0,1.32-.81v1.58a4.13,4.13,0,0,1-1.23.6,5.28,5.28,0,0,1-3.25-.12,4.38,4.38,0,0,1-1.47-1,4.18,4.18,0,0,1-1-1.45,4.62,4.62,0,0,1-.34-1.78,4.54,4.54,0,0,1,.34-1.77,4.24,4.24,0,0,1,1-1.46,4.45,4.45,0,0,1,1.47-1,4.94,4.94,0,0,1,1.78-.32,4.63,4.63,0,0,1,1.45.22,4.85,4.85,0,0,1,1.33.66Z"/><path class="cls-1" d="M33.28,275.13a5.27,5.27,0,0,1-1.88-.33,4.49,4.49,0,0,1-1.52-1,4.27,4.27,0,0,1-1-1.5,5,5,0,0,1,0-3.66,4.41,4.41,0,0,1,1-1.51,4.6,4.6,0,0,1,1.51-1,5.09,5.09,0,0,1,1.84-.33,4.89,4.89,0,0,1,1.49.22,5,5,0,0,1,1.37.69l.07,0-.1,1.79-.23-.2a4.12,4.12,0,0,0-1.21-.73,3.69,3.69,0,0,0-1.33-.24,2.93,2.93,0,0,0-2.18.86,3.36,3.36,0,0,0,0,4.42,2.72,2.72,0,0,0,2.06.85,3.65,3.65,0,0,0,1.39-.26,4.45,4.45,0,0,0,1.28-.78l.25-.22v2l-.06.05a4.16,4.16,0,0,1-1.27.62A5,5,0,0,1,33.28,275.13Zm0-9a4.67,4.67,0,0,0-1.73.31,4.12,4.12,0,0,0-1.41.93,4,4,0,0,0-.94,1.4,4.65,4.65,0,0,0,0,3.44,3.82,3.82,0,0,0,.93,1.4,4.15,4.15,0,0,0,1.41.92,5.06,5.06,0,0,0,1.77.31,5.13,5.13,0,0,0,1.39-.19,4,4,0,0,0,1.12-.54v-1.19a4.54,4.54,0,0,1-1.12.64,4,4,0,0,1-1.5.28,3,3,0,0,1-2.28-.95,3.64,3.64,0,0,1,0-4.83,3.2,3.2,0,0,1,2.39-.95,4.08,4.08,0,0,1,1.44.26,4.22,4.22,0,0,1,1.07.6l0-1a4.46,4.46,0,0,0-1.22-.6A4.61,4.61,0,0,0,33.25,266.12Z"/><path class="cls-1" d="M42.8,274.75H41.53V274a2.15,2.15,0,0,1-.8.71,2.19,2.19,0,0,1-1,.24,2.28,2.28,0,0,1-1.85-.81,3.31,3.31,0,0,1-.68-2.2,3.21,3.21,0,0,1,.69-2.15,2.43,2.43,0,0,1,3-.53,1.7,1.7,0,0,1,.71.81v-.9H42.8ZM41.56,272a2,2,0,0,0-.4-1.35,1.54,1.54,0,0,0-2.25,0,2.06,2.06,0,0,0-.42,1.37,2.13,2.13,0,0,0,.4,1.37,1.39,1.39,0,0,0,1.13.48,1.4,1.4,0,0,0,1.11-.52A2.08,2.08,0,0,0,41.56,272Z"/><path class="cls-1" d="M39.69,275.13a2.46,2.46,0,0,1-2-.86A3.49,3.49,0,0,1,37,272a3.4,3.4,0,0,1,.73-2.25,2.39,2.39,0,0,1,1.92-.87,2.35,2.35,0,0,1,1.24.31,2,2,0,0,1,.48.4V269H43v5.86H41.38v-.45a2.64,2.64,0,0,1-.58.43A2.45,2.45,0,0,1,39.69,275.13Zm0-6a2.07,2.07,0,0,0-1.69.77,3,3,0,0,0-.66,2.05,3.24,3.24,0,0,0,.64,2.11,2.16,2.16,0,0,0,1.74.75,2,2,0,0,0,1.72-.89l.27-.38v1h1v-5.25h-1v1.5l-.29-.69a1.57,1.57,0,0,0-.64-.75A2.2,2.2,0,0,0,39.66,269.15ZM40,274a1.51,1.51,0,0,1-1.24-.54,2.63,2.63,0,0,1,0-2.93,1.69,1.69,0,0,1,2.49,0,2.17,2.17,0,0,1,.43,1.44,2.22,2.22,0,0,1-.46,1.46A1.54,1.54,0,0,1,40,274Zm0-3.72a1.27,1.27,0,0,0-1,.44,2,2,0,0,0-.38,1.28,1.91,1.91,0,0,0,.37,1.27,1.2,1.2,0,0,0,1,.43,1.25,1.25,0,0,0,1-.47,2,2,0,0,0,.39-1.27,1.92,1.92,0,0,0-.36-1.25A1.23,1.23,0,0,0,40,270.28Z"/><path class="cls-1" d="M45.83,270.08a1.72,1.72,0,0,1,.54-.81,1.28,1.28,0,0,1,.84-.27,2,2,0,0,1,.53.07,2.59,2.59,0,0,1,.51.18l-.46,1.08a1.26,1.26,0,0,0-.35-.17,1.44,1.44,0,0,0-.43-.06,1,1,0,0,0-.91.51,3.9,3.9,0,0,0-.27,1.7v2.44H44.56v-5.57h1.27Z"/><path class="cls-1" d="M46,274.9H44.41V269H46v.43a1.48,1.48,0,0,1,.3-.31,1.44,1.44,0,0,1,.93-.3,2.1,2.1,0,0,1,.56.07,2.49,2.49,0,0,1,.54.2l.13.06-.58,1.38-.16-.11a1.48,1.48,0,0,0-.31-.15,1.46,1.46,0,0,0-.38-.05.8.8,0,0,0-.77.43,3.57,3.57,0,0,0-.26,1.63Zm-1.27-.3h1v-2.29a3.85,3.85,0,0,1,.29-1.77,1.1,1.1,0,0,1,1-.59,1.41,1.41,0,0,1,.47.07l.24.09.33-.78a2.08,2.08,0,0,0-.84-.18,1.2,1.2,0,0,0-.75.23,1.64,1.64,0,0,0-.49.75l-.29.78v-1.58h-1Z"/><path class="cls-1" d="M50.25,265.67v4.43a1.6,1.6,0,0,1,.71-.81,2.25,2.25,0,0,1,1.17-.29,2.21,2.21,0,0,1,1.79.82,3.21,3.21,0,0,1,.69,2.15,3.26,3.26,0,0,1-.68,2.2,2.27,2.27,0,0,1-1.85.81,2.19,2.19,0,0,1-1-.24,2.12,2.12,0,0,1-.79-.71v.72H49v-9.08Zm0,6.29a2.08,2.08,0,0,0,.43,1.37,1.43,1.43,0,0,0,1.13.52,1.38,1.38,0,0,0,1.12-.48,2.55,2.55,0,0,0,0-2.74,1.42,1.42,0,0,0-1.14-.5,1.38,1.38,0,0,0-1.12.48A2,2,0,0,0,50.21,272Z"/><path class="cls-1" d="M52.08,275.13a2.48,2.48,0,0,1-1.11-.25,2.37,2.37,0,0,1-.57-.43v.45H48.82v-9.38H50.4v4.05a1.74,1.74,0,0,1,.48-.41,2.49,2.49,0,0,1,1.25-.31,2.39,2.39,0,0,1,1.91.87,3.39,3.39,0,0,1,.72,2.25,3.49,3.49,0,0,1-.71,2.3A2.45,2.45,0,0,1,52.08,275.13Zm-2-1.57.27.38a2,2,0,0,0,.74.67,2.34,2.34,0,0,0,2.71-.53,3.18,3.18,0,0,0,.64-2.11,3.09,3.09,0,0,0-.65-2.05,2.05,2.05,0,0,0-1.68-.77,2.14,2.14,0,0,0-1.1.27,1.52,1.52,0,0,0-.65.74l-.28.68v-5h-1v8.78h1Zm1.67.44a1.55,1.55,0,0,1-1.24-.58,2.52,2.52,0,0,1,0-2.9,1.69,1.69,0,0,1,2.49,0,2.66,2.66,0,0,1,0,2.93A1.49,1.49,0,0,1,51.77,274Zm0-3.72a1.25,1.25,0,0,0-1,.43,2.28,2.28,0,0,0,0,2.52,1.25,1.25,0,0,0,1,.47,1.21,1.21,0,0,0,1-.43,2.38,2.38,0,0,0,0-2.55A1.27,1.27,0,0,0,51.73,270.28Z"/><path class="cls-1" d="M55.55,272a3,3,0,0,1,.23-1.15,2.91,2.91,0,0,1,.67-1,3.08,3.08,0,0,1,1-.64A3.29,3.29,0,0,1,58.6,269a3.34,3.34,0,0,1,1.18.22,3,3,0,0,1,1,.66,3,3,0,0,1,.67,1,2.89,2.89,0,0,1,.23,1.13,3,3,0,0,1-.23,1.15,2.85,2.85,0,0,1-.66,1,3.15,3.15,0,0,1-1,.66,3.09,3.09,0,0,1-1.17.23,3,3,0,0,1-1.16-.23,3.09,3.09,0,0,1-1.66-1.62A3,3,0,0,1,55.55,272Zm4.77,0a1.85,1.85,0,0,0-.49-1.31,1.65,1.65,0,0,0-2.44,0,2,2,0,0,0,0,2.62,1.61,1.61,0,0,0,1.22.54,1.59,1.59,0,0,0,1.21-.54A1.82,1.82,0,0,0,60.32,272Z"/><path class="cls-1" d="M58.6,275.13a3.2,3.2,0,0,1-1.22-.24,3.29,3.29,0,0,1-1-.68,3.15,3.15,0,0,1-.7-1A3.11,3.11,0,0,1,55.4,272a3,3,0,0,1,.94-2.22,3.16,3.16,0,0,1,1-.67,3.32,3.32,0,0,1,2.46,0,3.11,3.11,0,0,1,1.05.68,3.2,3.2,0,0,1,.7,1,3,3,0,0,1,.24,1.19,3.07,3.07,0,0,1-.24,1.21,2.92,2.92,0,0,1-.7,1,3.3,3.3,0,0,1-2.28.93Zm0-6a3,3,0,0,0-1.11.21,2.82,2.82,0,0,0-.94.61,2.75,2.75,0,0,0-.63.92A2.66,2.66,0,0,0,55.7,272a2.79,2.79,0,0,0,.85,2,2.8,2.8,0,0,0,.94.62,3,3,0,0,0,3.19-.63,2.74,2.74,0,0,0,.62-.9,2.88,2.88,0,0,0,.22-1.1,2.81,2.81,0,0,0-.22-1.07,2.85,2.85,0,0,0-.63-.92,2.82,2.82,0,0,0-1-.63A3,3,0,0,0,58.6,269.15Zm0,4.84a1.75,1.75,0,0,1-1.33-.59,2.11,2.11,0,0,1,0-2.82,1.79,1.79,0,0,1,2.66,0,2,2,0,0,1,.53,1.41,2,2,0,0,1-.54,1.41A1.73,1.73,0,0,1,58.61,274Zm0-3.7a1.45,1.45,0,0,0-1.11.49,1.82,1.82,0,0,0,0,2.42,1.45,1.45,0,0,0,1.11.49,1.42,1.42,0,0,0,1.1-.49,1.69,1.69,0,0,0,.46-1.21,1.73,1.73,0,0,0-.45-1.21A1.45,1.45,0,0,0,58.61,270.29Z"/><path class="cls-1" d="M63,274.75V269.2h1.2v.9a2.29,2.29,0,0,1,.9-.83,2.65,2.65,0,0,1,1.25-.27,2.6,2.6,0,0,1,1.06.2,1.52,1.52,0,0,1,.89,1.11,6.18,6.18,0,0,1,.07,1.07v3.37H67.09V271.9a2.8,2.8,0,0,0-.26-1.46,1.12,1.12,0,0,0-1-.36,1.8,1.8,0,0,0-.79.16,1.27,1.27,0,0,0-.55.47,1.19,1.19,0,0,0-.2.51,6.16,6.16,0,0,0,0,1v2.53Z"/><path class="cls-1" d="M68.53,274.9H66.94v-3a2.59,2.59,0,0,0-.23-1.37,1,1,0,0,0-.83-.3,1.7,1.7,0,0,0-.73.15,1.24,1.24,0,0,0-.49.41,1.13,1.13,0,0,0-.17.46,5.75,5.75,0,0,0,0,1v2.68H62.86V269h1.5v.62a2.45,2.45,0,0,1,.68-.53,3,3,0,0,1,1.32-.28,2.73,2.73,0,0,1,1.12.21,1.68,1.68,0,0,1,.75.64,2,2,0,0,1,.23.58,6.6,6.6,0,0,1,.07,1.1Zm-1.29-.3h1v-3.22a5.91,5.91,0,0,0-.06-1,1.26,1.26,0,0,0-.19-.49,1.3,1.3,0,0,0-.61-.52,2.32,2.32,0,0,0-1-.19,2.65,2.65,0,0,0-1.19.25,2.24,2.24,0,0,0-.84.79l-.27.41v-1.25h-.9v5.25h1v-2.38a6.31,6.31,0,0,1,.06-1,1.34,1.34,0,0,1,.23-.57,1.37,1.37,0,0,1,.6-.51,2,2,0,0,1,.86-.18,1.26,1.26,0,0,1,1.07.42,2.89,2.89,0,0,1,.29,1.55Z"/><path class="cls-1" d="M47,191.2a5.65,5.65,0,0,1,.81-.29,3.47,3.47,0,0,1,.78-.1,3.54,3.54,0,0,1,2.68,1.11,3.91,3.91,0,0,1,1.06,2.82,4,4,0,0,1-1.19,3,4.31,4.31,0,0,1-3.11,1.15,3.91,3.91,0,0,1-2.91-1.12,4,4,0,0,1-1.1-2.95q0-2,2.65-5.69l.22-.29,2.12-3,1.51.76Zm-1.1,3.66a2.49,2.49,0,0,0,.61,1.75,2,2,0,0,0,1.57.66,2.25,2.25,0,0,0,1.71-.65,2.84,2.84,0,0,0,0-3.54,2.23,2.23,0,0,0-1.7-.65,2.06,2.06,0,0,0-1.58.67A2.51,2.51,0,0,0,45.94,194.86Z"/><path class="cls-1" d="M48.07,199.06a4.07,4.07,0,0,1-3-1.17,4.17,4.17,0,0,1-1.14-3c0-1.34.87-3.23,2.68-5.77l.22-.3L49,185.66l1.79.9-3.29,4.3a1.81,1.81,0,0,1,.31-.09,3.3,3.3,0,0,1,.82-.11,3.72,3.72,0,0,1,2.79,1.15,4.1,4.1,0,0,1,1.1,2.93,4.19,4.19,0,0,1-1.23,3.13A4.46,4.46,0,0,1,48.07,199.06Zm1-13-2.27,3.2c-1.74,2.45-2.62,4.34-2.62,5.6a3.89,3.89,0,0,0,1,2.84,3.76,3.76,0,0,0,2.81,1.08,4.14,4.14,0,0,0,3-1.11,3.89,3.89,0,0,0,1.13-2.91,3.8,3.8,0,0,0-1-2.72A3.41,3.41,0,0,0,48.63,191a3.22,3.22,0,0,0-.75.1,4.23,4.23,0,0,0-.77.28l-.56.26,3.78-4.93Zm-1,11.38a2.18,2.18,0,0,1-1.68-.71,2.64,2.64,0,0,1-.65-1.85,2.69,2.69,0,0,1,.65-1.86,2.2,2.2,0,0,1,1.69-.72,2.38,2.38,0,0,1,1.81.69,3,3,0,0,1,0,3.76A2.4,2.4,0,0,1,48.12,197.42Zm0-4.84a1.88,1.88,0,0,0-1.47.63,2.67,2.67,0,0,0,0,3.3,1.87,1.87,0,0,0,1.46.61,2.14,2.14,0,0,0,1.6-.6,2.69,2.69,0,0,0,0-3.34A2.07,2.07,0,0,0,48.13,192.58Z"/><path class="cls-2" d="M144.93,197v1.57h-8.14l4.54-5.43a10,10,0,0,0,1.23-1.8,3,3,0,0,0,.4-1.4,1.87,1.87,0,0,0-.54-1.42A2,2,0,0,0,141,188a1.85,1.85,0,0,0-1.36.52,2,2,0,0,0-.61,1.36h-1.9a3.32,3.32,0,0,1,1.09-2.61,4.28,4.28,0,0,1,3-1,4.06,4.06,0,0,1,2.78.9,3.13,3.13,0,0,1,1,2.47,4.82,4.82,0,0,1-.58,2.24,19.13,19.13,0,0,1-2.48,3.29l-1.54,1.8Z"/><path class="cls-2" d="M145.08,198.73h-8.61l4.74-5.68a9.59,9.59,0,0,0,1.22-1.76,3,3,0,0,0,.37-1.34,1.78,1.78,0,0,0-.48-1.32,1.93,1.93,0,0,0-1.37-.47,1.77,1.77,0,0,0-1.26.47,1.87,1.87,0,0,0-.56,1.27V190h-2.19v-.15a3.48,3.48,0,0,1,1.14-2.72,4.45,4.45,0,0,1,3.05-1,4.18,4.18,0,0,1,2.88.94,3.28,3.28,0,0,1,1.06,2.58,5,5,0,0,1-.6,2.31,18.91,18.91,0,0,1-2.5,3.32l-1.33,1.55h4.45Zm-8-.3h7.67v-1.27H140l1.76-2a20.36,20.36,0,0,0,2.46-3.27,4.8,4.8,0,0,0,.56-2.17,3,3,0,0,0-1-2.36,3.94,3.94,0,0,0-2.68-.86,4.16,4.16,0,0,0-2.85.93,3.15,3.15,0,0,0-1,2.35h1.61a2.18,2.18,0,0,1,.64-1.32,2.06,2.06,0,0,1,1.47-.56,2.17,2.17,0,0,1,1.57.56,2,2,0,0,1,.59,1.53,3.32,3.32,0,0,1-.41,1.47,10.42,10.42,0,0,1-1.26,1.82Z"/><path class="cls-1" d="M227.2,198.79V188.32h-2.52l.77-1.57H229v12Z"/><path class="cls-1" d="M229.15,198.94h-2.1V188.47h-2.61l.91-1.87h3.8Zm-1.8-.3h1.5V186.91h-3.31l-.62,1.25h2.43Z"/><path class="cls-1" d="M236.9,191.41a4.56,4.56,0,0,1,.8-.29,3.06,3.06,0,0,1,.79-.1,3.58,3.58,0,0,1,2.68,1.1,4,4,0,0,1,1.05,2.83,4,4,0,0,1-1.18,3,4.32,4.32,0,0,1-3.12,1.15A3.91,3.91,0,0,1,235,198a4,4,0,0,1-1.1-2.94q0-2,2.66-5.69l.22-.29,2.12-3,1.51.76Zm-1.1,3.65a2.54,2.54,0,0,0,.6,1.76,2,2,0,0,0,1.57.66,2.25,2.25,0,0,0,1.71-.65,2.42,2.42,0,0,0,.62-1.77,2.48,2.48,0,0,0-.61-1.78,2.24,2.24,0,0,0-1.7-.64,2,2,0,0,0-1.58.67A2.49,2.49,0,0,0,235.8,195.06Z"/><path class="cls-1" d="M237.92,199.27a4.06,4.06,0,0,1-3-1.17,4.18,4.18,0,0,1-1.15-3c0-1.33.91-3.27,2.69-5.78l.22-.29,2.19-3.11,1.79.9-3.3,4.3a1.92,1.92,0,0,1,.32-.09,3.24,3.24,0,0,1,.82-.11,3.72,3.72,0,0,1,2.79,1.15,4.54,4.54,0,0,1-.14,6.06A4.43,4.43,0,0,1,237.92,199.27Zm1-13-2.27,3.2c-1.74,2.45-2.63,4.33-2.63,5.6a3.91,3.91,0,0,0,1.06,2.84,3.77,3.77,0,0,0,2.8,1.07,4.14,4.14,0,0,0,3-1.1,3.86,3.86,0,0,0,1.14-2.91,3.8,3.8,0,0,0-1-2.72,3.43,3.43,0,0,0-2.57-1.06,2.76,2.76,0,0,0-.75.1,3.75,3.75,0,0,0-.77.28l-.56.26,3.78-4.94Zm-1,11.38a2.19,2.19,0,0,1-1.68-.71,3,3,0,0,1,0-3.71,2.17,2.17,0,0,1,1.69-.72,2.4,2.4,0,0,1,1.81.69,2.66,2.66,0,0,1,.66,1.88,2.62,2.62,0,0,1-.67,1.88A2.4,2.4,0,0,1,238,197.63Zm0-4.84a1.87,1.87,0,0,0-1.47.62,2.69,2.69,0,0,0,0,3.3,1.86,1.86,0,0,0,1.46.62,2.11,2.11,0,0,0,1.6-.6,2.29,2.29,0,0,0,.58-1.67,2.33,2.33,0,0,0-.57-1.67A2.07,2.07,0,0,0,238,192.79Z"/><path class="cls-2" d="M320,198.79V188.32h-2.51l.76-1.57h3.55v12Z"/><path class="cls-2" d="M322,198.94h-2.1V188.47h-2.6l.91-1.87H322Zm-1.8-.3h1.5V186.91h-3.31l-.61,1.25h2.42Z"/><path class="cls-2" d="M329.73,191.41a4.38,4.38,0,0,1,.81-.29,3,3,0,0,1,.78-.1,3.57,3.57,0,0,1,2.68,1.1,4,4,0,0,1,1.05,2.83,4,4,0,0,1-1.18,3,4.3,4.3,0,0,1-3.12,1.15,3.87,3.87,0,0,1-2.9-1.13,4,4,0,0,1-1.1-2.94q0-2,2.65-5.69l.22-.29,2.12-3,1.51.76Zm-1.1,3.65a2.5,2.5,0,0,0,.61,1.76,2,2,0,0,0,1.56.66,2.25,2.25,0,0,0,1.71-.65,2.42,2.42,0,0,0,.63-1.77,2.49,2.49,0,0,0-.62-1.78,2.22,2.22,0,0,0-1.7-.64,2,2,0,0,0-1.58.67A2.49,2.49,0,0,0,328.63,195.06Z"/><path class="cls-2" d="M330.75,199.27a4.06,4.06,0,0,1-3-1.17,4.17,4.17,0,0,1-1.14-3c0-1.33.9-3.27,2.68-5.78l.22-.29,2.2-3.11,1.78.9-3.29,4.3a1.81,1.81,0,0,1,.31-.09,3.3,3.3,0,0,1,.82-.11,3.72,3.72,0,0,1,2.79,1.15,4.08,4.08,0,0,1,1.1,2.93,4.19,4.19,0,0,1-1.23,3.13A4.47,4.47,0,0,1,330.75,199.27Zm1-13-2.27,3.2c-1.74,2.45-2.62,4.33-2.62,5.6a3.91,3.91,0,0,0,1.05,2.84,3.78,3.78,0,0,0,2.8,1.07,4.19,4.19,0,0,0,3-1.1A3.89,3.89,0,0,0,334.9,195a3.8,3.8,0,0,0-1-2.72,3.41,3.41,0,0,0-2.57-1.06,2.76,2.76,0,0,0-.75.1,4.23,4.23,0,0,0-.77.28l-.56.26,3.78-4.94Zm-1,11.38a2.17,2.17,0,0,1-1.67-.71,3,3,0,0,1,0-3.71,2.17,2.17,0,0,1,1.69-.72,2.38,2.38,0,0,1,1.81.69,3,3,0,0,1,0,3.76A2.4,2.4,0,0,1,330.8,197.63Zm0-4.84a1.87,1.87,0,0,0-1.47.62,2.38,2.38,0,0,0-.57,1.65,2.33,2.33,0,0,0,.57,1.65,1.83,1.83,0,0,0,1.45.62,2.13,2.13,0,0,0,1.61-.6,2.71,2.71,0,0,0,0-3.34A2.11,2.11,0,0,0,330.82,192.79Z"/><path class="cls-2" d="M122.62,274.72v-8.58H124v3.16h4.21v-3.16h1.4v8.58h-1.4v-4.17H124v4.17Z"/><path class="cls-2" d="M129.78,274.87h-1.7V270.7h-3.91v4.17h-1.7V266h1.7v3.16h3.91V266h1.7Zm-1.4-.3h1.1v-8.28h-1.1v3.17h-4.51v-3.17h-1.1v8.28h1.1V270.4h4.51Z"/><path class="cls-2" d="M136.84,272.13H132.4a1.87,1.87,0,0,0,.46,1.21,1.44,1.44,0,0,0,1.11.44,1.86,1.86,0,0,0,1-.26,2.12,2.12,0,0,0,.71-.83l1.07.6a3.28,3.28,0,0,1-1.16,1.25A3.14,3.14,0,0,1,134,275a2.82,2.82,0,0,1-2.13-.82,3,3,0,0,1-.79-2.17,2.94,2.94,0,0,1,.82-2.15,3.13,3.13,0,0,1,4.19-.07,3,3,0,0,1,.75,2.15Zm-1.32-.86a1.35,1.35,0,0,0-.45-.91,1.62,1.62,0,0,0-1-.31,1.57,1.57,0,0,0-1,.3,1.62,1.62,0,0,0-.54.92Z"/><path class="cls-2" d="M134,275.1a3,3,0,0,1-2.23-.86,3.13,3.13,0,0,1-.84-2.28,3.09,3.09,0,0,1,.86-2.25,3.29,3.29,0,0,1,4.41-.08,3.14,3.14,0,0,1,.79,2.26v.39h-4.43a1.66,1.66,0,0,0,.41,1,1.32,1.32,0,0,0,1,.39,1.83,1.83,0,0,0,.95-.23,2,2,0,0,0,.66-.78l.07-.13,1.34.74-.08.13a3.43,3.43,0,0,1-1.21,1.31A3.33,3.33,0,0,1,134,275.1Zm0-6a2.65,2.65,0,0,0-2,.8,2.79,2.79,0,0,0-.78,2A2.84,2.84,0,0,0,132,274a2.71,2.71,0,0,0,2,.77,3,3,0,0,0,1.55-.39,3.17,3.17,0,0,0,1-1.06l-.81-.45a2.2,2.2,0,0,1-.69.75,2,2,0,0,1-1.11.28,1.63,1.63,0,0,1-1.22-.48,2,2,0,0,1-.5-1.31V272h4.45v-.09a2.82,2.82,0,0,0-.71-2.05A2.63,2.63,0,0,0,134,269.12Zm1.69,2.3h-3.4l.05-.18a1.77,1.77,0,0,1,.58-1,1.68,1.68,0,0,1,1.1-.34,1.74,1.74,0,0,1,1.14.35,1.43,1.43,0,0,1,.51,1Zm-3-.3h2.67a1.15,1.15,0,0,0-.38-.64,1.71,1.71,0,0,0-1.86,0A1.4,1.4,0,0,0,132.68,271.12Z"/><path class="cls-2" d="M138.22,274.72v-9.08h1.28v9.08Z"/><path class="cls-2" d="M139.65,274.87h-1.58v-9.38h1.58Zm-1.27-.3h1v-8.78h-1Z"/><path class="cls-2" d="M141.2,266.76a.74.74,0,0,1,.24-.55.8.8,0,0,1,1.13,1.12.75.75,0,0,1-.57.23.76.76,0,0,1-.56-.23A.78.78,0,0,1,141.2,266.76Zm.17,8v-5.56h1.27v5.56Z"/><path class="cls-2" d="M142.79,274.87h-1.57V269h1.57Zm-1.27-.3h1v-5.26h-1Zm.48-6.86a.95.95,0,1,1,.68-1.62,1,1,0,0,1,.27.67.94.94,0,0,1-.28.68A.9.9,0,0,1,142,267.71Zm0-1.59a.62.62,0,0,0-.46.19.61.61,0,0,0-.19.45.59.59,0,0,0,.2.46.64.64,0,0,0,.91,0,.66.66,0,0,0,.18-.47.6.6,0,0,0-.18-.46A.62.62,0,0,0,142,266.12Z"/><path class="cls-2" d="M145.69,269.16v3.13a1.66,1.66,0,0,0,.33,1.16,1.44,1.44,0,0,0,1.09.35,1.4,1.4,0,0,0,1.08-.35,1.66,1.66,0,0,0,.34-1.16v-3.13h1.27v2.75a3.49,3.49,0,0,1-.64,2.32,3.28,3.28,0,0,1-4.1,0,3.4,3.4,0,0,1-.64-2.32v-2.75Z"/><path class="cls-2" d="M147.12,275.1a2.81,2.81,0,0,1-2.18-.77,3.63,3.63,0,0,1-.67-2.42V269h1.57v3.28a1.54,1.54,0,0,0,.29,1.06,1.73,1.73,0,0,0,2,0,1.49,1.49,0,0,0,.3-1.06V269H150v2.9a3.6,3.6,0,0,1-.68,2.42A2.75,2.75,0,0,1,147.12,275.1Zm-2.55-5.79v2.6a3.29,3.29,0,0,0,.6,2.22,3.14,3.14,0,0,0,3.88,0,3.39,3.39,0,0,0,.6-2.22v-2.6h-1v3a1.82,1.82,0,0,1-.38,1.27,2,2,0,0,1-2.38,0,1.82,1.82,0,0,1-.38-1.27v-3Z"/><path class="cls-2" d="M152.79,274.72h-1.28v-5.56h1.2v.91a2.45,2.45,0,0,1,.86-.84,2.34,2.34,0,0,1,1.14-.27,2,2,0,0,1,1.08.27,1.67,1.67,0,0,1,.65.83,3,3,0,0,1,.94-.84,2.4,2.4,0,0,1,1.12-.26,2.19,2.19,0,0,1,1,.2,1.47,1.47,0,0,1,.64.59,1.37,1.37,0,0,1,.16.43,4.3,4.3,0,0,1,.05.72v3.82H159v-2.85a3,3,0,0,0-.24-1.48A1,1,0,0,0,158,270a1.22,1.22,0,0,0-1.07.47,3.23,3.23,0,0,0-.32,1.68v2.53h-1.28v-2.85a2.84,2.84,0,0,0-.25-1.43.92.92,0,0,0-.86-.4,1.32,1.32,0,0,0-.68.17,1.23,1.23,0,0,0-.49.47,1.18,1.18,0,0,0-.17.47,8.1,8.1,0,0,0,0,1Z"/><path class="cls-2" d="M160.46,274.87h-1.57v-3a2.74,2.74,0,0,0-.22-1.4.79.79,0,0,0-.72-.28,1,1,0,0,0-.94.41,3,3,0,0,0-.3,1.59v2.68h-1.58v-3a3,3,0,0,0-.22-1.36.8.8,0,0,0-.74-.32,1.25,1.25,0,0,0-.61.15,1.24,1.24,0,0,0-.44.41,1.59,1.59,0,0,0-.14.42,7.73,7.73,0,0,0,0,1v2.68h-1.58V269h1.5v.61a2.62,2.62,0,0,1,.64-.53,2.57,2.57,0,0,1,1.21-.28,2.19,2.19,0,0,1,1.16.29,1.84,1.84,0,0,1,.61.68,2.9,2.9,0,0,1,.83-.69,2.46,2.46,0,0,1,1.19-.28,2.23,2.23,0,0,1,1,.22,1.55,1.55,0,0,1,.7.64,1.71,1.71,0,0,1,.18.48,4.72,4.72,0,0,1,.05.75Zm-1.27-.3h1V270.9a3.9,3.9,0,0,0,0-.69,1,1,0,0,0-.14-.38,1.33,1.33,0,0,0-.57-.53,1.93,1.93,0,0,0-.9-.19,2.12,2.12,0,0,0-1.05.25,2.8,2.8,0,0,0-.89.79l-.16.21-.1-.24a1.48,1.48,0,0,0-.59-.76,1.79,1.79,0,0,0-1-.25,2.08,2.08,0,0,0-1.06.25,2.35,2.35,0,0,0-.82.79l-.27.42v-1.26h-.9v5.26h1v-2.38a7.81,7.81,0,0,1,.05-1.06,1.5,1.5,0,0,1,.19-.53,1.38,1.38,0,0,1,.55-.52,1.47,1.47,0,0,1,.75-.19,1.07,1.07,0,0,1,1,.47,3,3,0,0,1,.27,1.51v2.7h1v-2.38a3.3,3.3,0,0,1,.35-1.76,1.33,1.33,0,0,1,1.19-.54,1.07,1.07,0,0,1,1,.42,3,3,0,0,1,.27,1.56Z"/><path class="cls-1" d="M217.13,273l1.11-.51a1.51,1.51,0,0,0,.58.87,1.81,1.81,0,0,0,1.08.3,1.36,1.36,0,0,0,1-.34,1.2,1.2,0,0,0,.37-.93c0-.5-.42-.95-1.25-1.35l-.27-.12a5.8,5.8,0,0,1-1.89-1.26,2,2,0,0,1-.47-1.36,2.17,2.17,0,0,1,.71-1.7,2.61,2.61,0,0,1,1.86-.65,3.17,3.17,0,0,1,1.59.36,2,2,0,0,1,.89,1.06l-1.09.56a1.7,1.7,0,0,0-.57-.59,1.27,1.27,0,0,0-.7-.19,1.33,1.33,0,0,0-.9.29,1,1,0,0,0-.33.79c0,.51.49,1,1.45,1.44l.18.08a5.09,5.09,0,0,1,1.75,1.15,2.09,2.09,0,0,1,.47,1.39,2.53,2.53,0,0,1-.77,1.94,2.9,2.9,0,0,1-2.07.72,3,3,0,0,1-1.8-.51A2.32,2.32,0,0,1,217.13,273Z"/><path class="cls-1" d="M219.84,275.1a3.17,3.17,0,0,1-1.88-.53,2.52,2.52,0,0,1-1-1.53l0-.12,1.39-.64,0,.17a1.37,1.37,0,0,0,.53.79,1.66,1.66,0,0,0,1,.27,1.24,1.24,0,0,0,.88-.3,1,1,0,0,0,.32-.82c0-.44-.39-.84-1.17-1.21l-.26-.13a6.08,6.08,0,0,1-1.95-1.29,2.23,2.23,0,0,1-.5-1.46,2.33,2.33,0,0,1,.76-1.81,2.79,2.79,0,0,1,2-.69,3.41,3.41,0,0,1,1.67.38,2.15,2.15,0,0,1,.95,1.13l0,.13-1.33.68-.07-.11a1.73,1.73,0,0,0-.52-.55,1.35,1.35,0,0,0-1.42.09.85.85,0,0,0-.28.68c0,.45.46.89,1.37,1.3l.17.08a5.33,5.33,0,0,1,1.8,1.19,2.23,2.23,0,0,1,.51,1.49,2.7,2.7,0,0,1-.81,2A3.09,3.09,0,0,1,219.84,275.1Zm-2.54-2a2.21,2.21,0,0,0,.83,1.23,2.84,2.84,0,0,0,1.71.48,2.77,2.77,0,0,0,2-.68,2.39,2.39,0,0,0,.72-1.83,2,2,0,0,0-.44-1.3,5.15,5.15,0,0,0-1.69-1.1l-.18-.09c-1-.47-1.54-1-1.54-1.57a1.16,1.16,0,0,1,.38-.9,1.45,1.45,0,0,1,1-.33,1.47,1.47,0,0,1,.78.21,2,2,0,0,1,.54.52l.85-.44a1.81,1.81,0,0,0-.77-.85,3,3,0,0,0-1.52-.34,2.5,2.5,0,0,0-1.76.61,2,2,0,0,0-.66,1.59,1.92,1.92,0,0,0,.43,1.27,6.1,6.1,0,0,0,1.84,1.21l.27.13c.89.42,1.34.92,1.34,1.48a1.39,1.39,0,0,1-.41,1,1.55,1.55,0,0,1-1.09.38,2,2,0,0,1-1.17-.33,1.62,1.62,0,0,1-.58-.79Z"/><path class="cls-1" d="M225.33,269.16v3.13a1.66,1.66,0,0,0,.33,1.16,1.44,1.44,0,0,0,1.09.35,1.4,1.4,0,0,0,1.08-.35,1.66,1.66,0,0,0,.34-1.16v-3.13h1.27v2.75a3.49,3.49,0,0,1-.64,2.32,3.28,3.28,0,0,1-4.1,0,3.4,3.4,0,0,1-.64-2.32v-2.75Z"/><path class="cls-1" d="M226.76,275.1a2.81,2.81,0,0,1-2.18-.77,3.63,3.63,0,0,1-.67-2.42V269h1.57v3.28a1.54,1.54,0,0,0,.29,1.06,1.73,1.73,0,0,0,1.95,0,1.49,1.49,0,0,0,.29-1.06V269h1.58v2.9a3.6,3.6,0,0,1-.68,2.42A2.75,2.75,0,0,1,226.76,275.1Zm-2.55-5.79v2.6a3.29,3.29,0,0,0,.6,2.22,3.14,3.14,0,0,0,3.88,0,3.39,3.39,0,0,0,.6-2.22v-2.6h-1v3a1.82,1.82,0,0,1-.38,1.27,1.6,1.6,0,0,1-1.19.4,1.64,1.64,0,0,1-1.2-.4,1.87,1.87,0,0,1-.37-1.27v-3Z"/><path class="cls-1" d="M231.21,274.72v-9.08h1.27v9.08Z"/><path class="cls-1" d="M232.63,274.87h-1.57v-9.38h1.57Zm-1.27-.3h1v-8.78h-1Z"/><path class="cls-1" d="M234.48,274.72v-4.44h-1v-1.12h1v-1.48a2.43,2.43,0,0,1,.46-1.64,1.78,1.78,0,0,1,1.42-.53,3,3,0,0,1,.42,0,2.16,2.16,0,0,1,.44.1v1.15a1.35,1.35,0,0,0-.3-.14,1.17,1.17,0,0,0-.32,0,.73.73,0,0,0-.65.28,1.64,1.64,0,0,0-.2.95v1.32h1.33v1.12h-1.33v4.44Z"/><path class="cls-1" d="M235.9,274.87h-1.57v-4.44h-1V269h1v-1.33a2.6,2.6,0,0,1,.49-1.74,2,2,0,0,1,1.54-.58l.44,0a3.94,3.94,0,0,1,.47.1l.1,0V267l-.22-.13a1,1,0,0,0-.27-.11.9.9,0,0,0-.28,0,.59.59,0,0,0-.53.22,1.61,1.61,0,0,0-.17.86V269h1.33v1.42H235.9Zm-1.27-.3h1v-4.44h1.33v-.82H235.6v-1.47a1.87,1.87,0,0,1,.22-1,.93.93,0,0,1,.78-.34,1.49,1.49,0,0,1,.36.05l.11,0v-.8l-.31-.06a2.69,2.69,0,0,0-.4,0,1.64,1.64,0,0,0-1.31.48,2.32,2.32,0,0,0-.42,1.54v1.63h-1v.82h1Z"/><path class="cls-1" d="M239.2,269.16v3.13a1.66,1.66,0,0,0,.34,1.16,1.4,1.4,0,0,0,1.08.35,1.44,1.44,0,0,0,1.09-.35,1.66,1.66,0,0,0,.33-1.16v-3.13h1.27v2.75a3.44,3.44,0,0,1-.64,2.32,2.58,2.58,0,0,1-2,.72,2.63,2.63,0,0,1-2.06-.72,3.46,3.46,0,0,1-.64-2.32v-2.75Z"/><path class="cls-1" d="M240.63,275.1a2.77,2.77,0,0,1-2.17-.77,3.57,3.57,0,0,1-.68-2.42V269h1.57v3.28a1.49,1.49,0,0,0,.3,1.06,1.73,1.73,0,0,0,1.95,0,1.54,1.54,0,0,0,.29-1.06V269h1.57v2.9a3.66,3.66,0,0,1-.67,2.42A2.77,2.77,0,0,1,240.63,275.1Zm-2.55-5.79v2.6a3.35,3.35,0,0,0,.6,2.22,2.53,2.53,0,0,0,1.95.67,2.48,2.48,0,0,0,1.93-.67,3.33,3.33,0,0,0,.6-2.22v-2.6h-1v3a1.82,1.82,0,0,1-.38,1.27,2,2,0,0,1-2.38,0,1.82,1.82,0,0,1-.38-1.27v-3Z"/><path class="cls-1" d="M246.3,270.05a1.89,1.89,0,0,1,.54-.82,1.36,1.36,0,0,1,.84-.26,1.93,1.93,0,0,1,.53.07,2.59,2.59,0,0,1,.51.18l-.46,1.08a1,1,0,0,0-.35-.17,1.44,1.44,0,0,0-.43-.06.94.94,0,0,0-.9.51,3.7,3.7,0,0,0-.28,1.7v2.44H245v-5.57h1.27Z"/><path class="cls-1" d="M246.45,274.87h-1.57V269h1.57v.43a1.48,1.48,0,0,1,.3-.31,1.44,1.44,0,0,1,.93-.3,2.1,2.1,0,0,1,.56.07,2.27,2.27,0,0,1,.55.2l.12.06-.58,1.38-.15-.11a1,1,0,0,0-.31-.15,1.54,1.54,0,0,0-.39,0,.8.8,0,0,0-.77.43,3.68,3.68,0,0,0-.26,1.63Zm-1.27-.3h1v-2.29a4,4,0,0,1,.29-1.77,1.1,1.1,0,0,1,1-.59,1.38,1.38,0,0,1,.71.16l.33-.78a2.08,2.08,0,0,0-.84-.18,1.22,1.22,0,0,0-.75.23,1.72,1.72,0,0,0-.49.75l-.29.78V269.3h-1Z"/><path class="cls-2" d="M309.63,273l1.11-.51a1.51,1.51,0,0,0,.58.87,1.81,1.81,0,0,0,1.08.3,1.36,1.36,0,0,0,1-.34,1.2,1.2,0,0,0,.37-.93c0-.5-.42-.95-1.25-1.35l-.27-.12a5.8,5.8,0,0,1-1.89-1.26,2,2,0,0,1-.47-1.36,2.17,2.17,0,0,1,.71-1.7,2.61,2.61,0,0,1,1.86-.65,3.17,3.17,0,0,1,1.59.36,2,2,0,0,1,.89,1.06l-1.09.56a1.7,1.7,0,0,0-.57-.59,1.27,1.27,0,0,0-.7-.19,1.33,1.33,0,0,0-.9.29,1,1,0,0,0-.33.79c0,.51.49,1,1.45,1.44l.18.08a5.09,5.09,0,0,1,1.75,1.15,2.09,2.09,0,0,1,.47,1.39,2.53,2.53,0,0,1-.77,1.94,2.9,2.9,0,0,1-2.07.72,3,3,0,0,1-1.8-.51A2.32,2.32,0,0,1,309.63,273Z"/><path class="cls-2" d="M312.34,275.1a3.17,3.17,0,0,1-1.88-.53,2.52,2.52,0,0,1-1-1.53l0-.12,1.39-.64,0,.17a1.37,1.37,0,0,0,.53.79,1.66,1.66,0,0,0,1,.27,1.24,1.24,0,0,0,.88-.3,1,1,0,0,0,.32-.82c0-.44-.39-.84-1.17-1.21l-.26-.13a6.08,6.08,0,0,1-1.95-1.29,2.23,2.23,0,0,1-.5-1.46,2.33,2.33,0,0,1,.76-1.81,2.79,2.79,0,0,1,2-.69,3.41,3.41,0,0,1,1.67.38,2.15,2.15,0,0,1,.95,1.13l0,.13-1.33.68-.07-.11a1.73,1.73,0,0,0-.52-.55,1.35,1.35,0,0,0-1.42.09.85.85,0,0,0-.28.68c0,.45.46.89,1.37,1.3l.17.08a5.33,5.33,0,0,1,1.8,1.19,2.23,2.23,0,0,1,.51,1.49,2.7,2.7,0,0,1-.81,2A3.09,3.09,0,0,1,312.34,275.1Zm-2.54-2a2.21,2.21,0,0,0,.83,1.23,2.84,2.84,0,0,0,1.71.48,2.77,2.77,0,0,0,2-.68,2.39,2.39,0,0,0,.72-1.83,2,2,0,0,0-.44-1.3,5.15,5.15,0,0,0-1.69-1.1l-.18-.09c-1-.47-1.54-1-1.54-1.57a1.16,1.16,0,0,1,.38-.9,1.45,1.45,0,0,1,1-.33,1.47,1.47,0,0,1,.78.21,2,2,0,0,1,.54.52l.85-.44a1.81,1.81,0,0,0-.77-.85,3,3,0,0,0-1.52-.34,2.5,2.5,0,0,0-1.76.61,2,2,0,0,0-.66,1.59,1.92,1.92,0,0,0,.43,1.27,6.1,6.1,0,0,0,1.84,1.21l.27.13c.89.42,1.34.92,1.34,1.48a1.39,1.39,0,0,1-.41,1,1.55,1.55,0,0,1-1.09.38,2,2,0,0,1-1.17-.33,1.62,1.62,0,0,1-.58-.79Z"/><path class="cls-2" d="M318.07,269.16v3.13a1.66,1.66,0,0,0,.33,1.16,1.44,1.44,0,0,0,1.09.35,1.4,1.4,0,0,0,1.08-.35,1.66,1.66,0,0,0,.34-1.16v-3.13h1.27v2.75a3.49,3.49,0,0,1-.64,2.32,3.28,3.28,0,0,1-4.1,0,3.4,3.4,0,0,1-.64-2.32v-2.75Z"/><path class="cls-2" d="M319.5,275.1a2.81,2.81,0,0,1-2.18-.77,3.63,3.63,0,0,1-.67-2.42V269h1.57v3.28a1.54,1.54,0,0,0,.29,1.06,1.73,1.73,0,0,0,1.95,0,1.49,1.49,0,0,0,.29-1.06V269h1.58v2.9a3.6,3.6,0,0,1-.68,2.42A2.75,2.75,0,0,1,319.5,275.1ZM317,269.31v2.6a3.29,3.29,0,0,0,.6,2.22,3.14,3.14,0,0,0,3.88,0,3.39,3.39,0,0,0,.6-2.22v-2.6h-1v3a1.82,1.82,0,0,1-.38,1.27,2,2,0,0,1-2.38,0,1.82,1.82,0,0,1-.38-1.27v-3Z"/><path class="cls-2" d="M323.89,274.72v-9.08h1.27v9.08Z"/><path class="cls-2" d="M325.31,274.87h-1.57v-9.38h1.57Zm-1.27-.3h1v-8.78h-1Z"/><path class="cls-2" d="M327.1,274.72v-4.44h-1v-1.12h1v-1.48a2.43,2.43,0,0,1,.46-1.64,1.78,1.78,0,0,1,1.42-.53,3,3,0,0,1,.42,0,2.16,2.16,0,0,1,.44.1v1.15a1.35,1.35,0,0,0-.3-.14,1.17,1.17,0,0,0-.32,0,.73.73,0,0,0-.65.28,1.64,1.64,0,0,0-.2.95v1.32h1.33v1.12h-1.33v4.44Z"/><path class="cls-2" d="M328.52,274.87H327v-4.44h-1V269h1v-1.33a2.6,2.6,0,0,1,.49-1.74,2,2,0,0,1,1.54-.58,3.25,3.25,0,0,1,.44,0,3.94,3.94,0,0,1,.47.1l.1,0V267l-.22-.13a1,1,0,0,0-.27-.11.9.9,0,0,0-.28,0,.59.59,0,0,0-.53.22,1.61,1.61,0,0,0-.17.86V269h1.33v1.42h-1.33Zm-1.27-.3h1v-4.44h1.33v-.82h-1.33v-1.47a1.87,1.87,0,0,1,.22-1,.93.93,0,0,1,.78-.34,1.49,1.49,0,0,1,.36.05l.11,0v-.8l-.31-.06a2.69,2.69,0,0,0-.4,0,1.64,1.64,0,0,0-1.31.48,2.32,2.32,0,0,0-.42,1.54v1.63h-1v.82h1Z"/><path class="cls-2" d="M332,269.16v3.13a1.66,1.66,0,0,0,.34,1.16,1.4,1.4,0,0,0,1.08.35,1.44,1.44,0,0,0,1.09-.35,1.66,1.66,0,0,0,.33-1.16v-3.13h1.27v2.75a3.44,3.44,0,0,1-.64,2.32,2.58,2.58,0,0,1-2,.72,2.63,2.63,0,0,1-2.06-.72,3.46,3.46,0,0,1-.64-2.32v-2.75Z"/><path class="cls-2" d="M333.43,275.1a2.77,2.77,0,0,1-2.17-.77,3.57,3.57,0,0,1-.68-2.42V269h1.57v3.28a1.49,1.49,0,0,0,.3,1.06,1.73,1.73,0,0,0,1.95,0,1.54,1.54,0,0,0,.29-1.06V269h1.57v2.9a3.66,3.66,0,0,1-.67,2.42A2.77,2.77,0,0,1,333.43,275.1Zm-2.55-5.79v2.6a3.35,3.35,0,0,0,.6,2.22,2.53,2.53,0,0,0,1.95.67,2.48,2.48,0,0,0,1.93-.67,3.33,3.33,0,0,0,.6-2.22v-2.6h-1v3a1.82,1.82,0,0,1-.38,1.27,2,2,0,0,1-2.38,0,1.82,1.82,0,0,1-.38-1.27v-3Z"/><path class="cls-2" d="M339.1,270.05a1.89,1.89,0,0,1,.54-.82,1.36,1.36,0,0,1,.84-.26,1.93,1.93,0,0,1,.53.07,2.59,2.59,0,0,1,.51.18l-.46,1.08a1,1,0,0,0-.35-.17,1.44,1.44,0,0,0-.43-.06.94.94,0,0,0-.9.51,3.7,3.7,0,0,0-.28,1.7v2.44h-1.27v-5.57h1.27Z"/><path class="cls-2" d="M339.25,274.87h-1.57V269h1.57v.43a1.48,1.48,0,0,1,.3-.31,1.44,1.44,0,0,1,.93-.3,2.1,2.1,0,0,1,.56.07,2.27,2.27,0,0,1,.55.2l.12.06-.58,1.38-.15-.11a1,1,0,0,0-.31-.15,1.6,1.6,0,0,0-.39,0,.8.8,0,0,0-.77.43,3.68,3.68,0,0,0-.26,1.63Zm-1.27-.3h1v-2.29a4,4,0,0,1,.29-1.77,1.1,1.1,0,0,1,1-.59,1.38,1.38,0,0,1,.71.16l.33-.78a2.08,2.08,0,0,0-.84-.18,1.22,1.22,0,0,0-.75.23,1.72,1.72,0,0,0-.49.75l-.29.78V269.3h-1Z"/><path class="cls-2" d="M120,288.06v-1.59h-3.77l4.58-6.35h.36v5.45h.95v.9h-.95v1.59Zm0-5.31-2,2.82h2v-2c0-.11,0-.23,0-.36S120,282.9,120,282.75Z"/><path class="cls-2" d="M121.33,288.21h-1.47v-1.59H116l4.79-6.65h.59v5.45h1v1.2h-1Zm-1.17-.3H121v-1.59h1v-.6h-1v-5.45h-.14l-4.36,6.05h3.63Zm0-2.19h-2.41l2.48-3.5,0,.54c0,.15,0,.28,0,.41s0,.25,0,.36Zm-1.83-.3h1.53v-1.89a2.62,2.62,0,0,1,0-.27Z"/><path class="cls-2" d="M123.25,287.46a.69.69,0,0,1,.21-.5.7.7,0,0,1,1,0,.72.72,0,0,1,.2.5.71.71,0,0,1-1.2.5A.67.67,0,0,1,123.25,287.46Z"/><path class="cls-2" d="M124,288.31a.85.85,0,0,1-.86-.85.84.84,0,0,1,.25-.6.85.85,0,0,1,1.22,0,.83.83,0,0,1,.24.6.85.85,0,0,1-.85.85Zm0-1.41a.51.51,0,0,0-.39.17.53.53,0,0,0-.16.39.54.54,0,0,0,.15.39.57.57,0,0,0,.79,0,.51.51,0,0,0,.16-.39.53.53,0,0,0-.16-.39A.52.52,0,0,0,124,286.9Z"/><path class="cls-2" d="M131.44,284.28a5,5,0,0,1-.76,2.93,2.55,2.55,0,0,1-4.15,0,6.4,6.4,0,0,1,0-6,2.43,2.43,0,0,1,2.09-1.07,2.39,2.39,0,0,1,2.09,1.07A5.55,5.55,0,0,1,131.44,284.28Zm-2.85,2.89a1.28,1.28,0,0,0,1.18-.75,5,5,0,0,0,.39-2.24,4.94,4.94,0,0,0-.39-2.21,1.23,1.23,0,0,0-1.14-.76,1.26,1.26,0,0,0-1.17.75,4.9,4.9,0,0,0-.4,2.24,4.8,4.8,0,0,0,.4,2.2A1.23,1.23,0,0,0,128.59,287.17Z"/><path class="cls-2" d="M128.61,288.42a2.56,2.56,0,0,1-2.21-1.13,5.42,5.42,0,0,1-.77-3.1,5.27,5.27,0,0,1,.78-3.08,2.56,2.56,0,0,1,2.21-1.14,2.51,2.51,0,0,1,2.21,1.14,5.67,5.67,0,0,1,.76,3.17,5.16,5.16,0,0,1-.78,3A2.57,2.57,0,0,1,128.61,288.42Zm0-8.15a2.24,2.24,0,0,0-2,1,6.22,6.22,0,0,0,0,5.83,2.23,2.23,0,0,0,2,1,2.26,2.26,0,0,0,1.95-1,4.87,4.87,0,0,0,.73-2.84,5.34,5.34,0,0,0-.71-3A2.2,2.2,0,0,0,128.62,280.27Zm0,7.05a1.39,1.39,0,0,1-1.27-.85,5.14,5.14,0,0,1-.41-2.27,5,5,0,0,1,.42-2.3,1.4,1.4,0,0,1,1.3-.84,1.36,1.36,0,0,1,1.27.84,5.1,5.1,0,0,1,.41,2.28,5.19,5.19,0,0,1-.41,2.31A1.41,1.41,0,0,1,128.59,287.32Zm0-6a1.11,1.11,0,0,0-1,.68,4.86,4.86,0,0,0-.38,2.16,4.8,4.8,0,0,0,.38,2.13,1.07,1.07,0,0,0,1,.69,1.11,1.11,0,0,0,1-.67,4.88,4.88,0,0,0,.38-2.17,5,5,0,0,0-.37-2.14A1.08,1.08,0,0,0,128.63,281.36Z"/><path class="cls-2" d="M137.81,284.28a5,5,0,0,1-.76,2.93,2.55,2.55,0,0,1-4.15,0,6.4,6.4,0,0,1,0-6,2.43,2.43,0,0,1,2.09-1.07,2.39,2.39,0,0,1,2.09,1.07A5.55,5.55,0,0,1,137.81,284.28ZM135,287.17a1.25,1.25,0,0,0,1.17-.75,4.87,4.87,0,0,0,.4-2.24,4.94,4.94,0,0,0-.39-2.21,1.23,1.23,0,0,0-1.14-.76,1.25,1.25,0,0,0-1.17.75,4.9,4.9,0,0,0-.4,2.24,4.8,4.8,0,0,0,.4,2.2A1.22,1.22,0,0,0,135,287.17Z"/><path class="cls-2" d="M135,288.42a2.56,2.56,0,0,1-2.21-1.13,5.42,5.42,0,0,1-.77-3.1,5.27,5.27,0,0,1,.78-3.08A2.55,2.55,0,0,1,135,280a2.51,2.51,0,0,1,2.21,1.14,5.67,5.67,0,0,1,.76,3.17,5.15,5.15,0,0,1-.79,3A2.57,2.57,0,0,1,135,288.42Zm0-8.15a2.24,2.24,0,0,0-2,1,6.22,6.22,0,0,0,0,5.83,2.23,2.23,0,0,0,2,1,2.26,2.26,0,0,0,2-1,4.87,4.87,0,0,0,.73-2.84,5.34,5.34,0,0,0-.71-3A2.2,2.2,0,0,0,135,280.27Zm0,7.05a1.39,1.39,0,0,1-1.27-.85,6.57,6.57,0,0,1,0-4.57,1.42,1.42,0,0,1,1.31-.84,1.36,1.36,0,0,1,1.27.84,5.1,5.1,0,0,1,.41,2.28,5.19,5.19,0,0,1-.41,2.31A1.41,1.41,0,0,1,135,287.32Zm0-6a1.11,1.11,0,0,0-1,.68,4.86,4.86,0,0,0-.38,2.16,4.8,4.8,0,0,0,.38,2.13,1.07,1.07,0,0,0,1,.69,1.12,1.12,0,0,0,1-.67,4.88,4.88,0,0,0,.38-2.17A5,5,0,0,0,136,282,1.09,1.09,0,0,0,135,281.36Z"/><path class="cls-2" d="M143.2,287v1h-5.27l2.94-3.52a6.59,6.59,0,0,0,.8-1.16,2.12,2.12,0,0,0,.25-.9,1.26,1.26,0,0,0-.35-.93,1.32,1.32,0,0,0-.95-.33,1.23,1.23,0,0,0-.88.33,1.27,1.27,0,0,0-.39.89h-1.23a2.15,2.15,0,0,1,.7-1.69,2.78,2.78,0,0,1,1.91-.63,2.62,2.62,0,0,1,1.8.58,2,2,0,0,1,.66,1.6,3.17,3.17,0,0,1-.38,1.45,12.64,12.64,0,0,1-1.61,2.13l-1,1.16Z"/><path class="cls-2" d="M143.35,288.21h-5.74l3.14-3.76a6.1,6.1,0,0,0,.78-1.13,1.9,1.9,0,0,0,.24-.84,1.09,1.09,0,0,0-.3-.82,1.2,1.2,0,0,0-.85-.29,1.06,1.06,0,0,0-.78.29,1.13,1.13,0,0,0-.34.79l0,.14H138v-.15a2.31,2.31,0,0,1,.76-1.8,2.91,2.91,0,0,1,2-.67,2.8,2.8,0,0,1,1.9.62,2.18,2.18,0,0,1,.71,1.71,3.35,3.35,0,0,1-.4,1.52,12.76,12.76,0,0,1-1.62,2.16l-.79.91h2.82Zm-5.1-.3h4.8v-.72h-3.17l1.21-1.41a11.28,11.28,0,0,0,1.58-2.1,3,3,0,0,0,.37-1.38,1.85,1.85,0,0,0-.61-1.48,2.45,2.45,0,0,0-1.7-.55,2.66,2.66,0,0,0-1.81.59,2,2,0,0,0-.65,1.43h.94a1.38,1.38,0,0,1,1.41-1.22,1.48,1.48,0,0,1,1.06.38,1.36,1.36,0,0,1,.39,1,2.16,2.16,0,0,1-.27,1,6.75,6.75,0,0,1-.82,1.19Z"/><path class="cls-2" d="M149.6,283.29a2.11,2.11,0,0,1,.51-.19,2.24,2.24,0,0,1,.51-.07,2.31,2.31,0,0,1,1.74.72,2.53,2.53,0,0,1,.68,1.82,2.61,2.61,0,0,1-.77,2,2.78,2.78,0,0,1-2,.74,2.56,2.56,0,0,1-1.89-.72,2.64,2.64,0,0,1-.71-1.91c0-.84.57-2.07,1.72-3.68l.14-.19,1.38-1.95,1,.5Zm-.72,2.36a1.6,1.6,0,0,0,.39,1.13,1.3,1.3,0,0,0,1,.43,1.43,1.43,0,0,0,1.1-.42,1.82,1.82,0,0,0,0-2.29,1.45,1.45,0,0,0-1.1-.42,1.31,1.31,0,0,0-1,.44A1.58,1.58,0,0,0,148.88,285.65Z"/><path class="cls-2" d="M150.26,288.42a2.67,2.67,0,0,1-2-.77,2.77,2.77,0,0,1-.76-2c0-.88.57-2.12,1.75-3.77l.14-.19,1.45-2.05,1.25.63L150,283h.05a2.5,2.5,0,0,1,.54-.07,2.46,2.46,0,0,1,1.84.76,2.72,2.72,0,0,1,.73,1.93,2.76,2.76,0,0,1-.81,2.07A2.93,2.93,0,0,1,150.26,288.42Zm.68-8.41-1.44,2a7.38,7.38,0,0,0-1.69,3.59,2.49,2.49,0,0,0,.67,1.8,2.39,2.39,0,0,0,1.78.68,2.61,2.61,0,0,0,1.91-.7,2.69,2.69,0,0,0,.08-3.57,2.13,2.13,0,0,0-1.63-.67,2,2,0,0,0-.47.06,3.23,3.23,0,0,0-.49.18l-.56.27,2.54-3.32Zm-.65,7.35a1.46,1.46,0,0,1-1.13-.48,1.77,1.77,0,0,1-.43-1.23,1.75,1.75,0,0,1,.44-1.23,1.43,1.43,0,0,1,1.13-.49,1.64,1.64,0,0,1,1.21.46,1.77,1.77,0,0,1,.44,1.26,1.73,1.73,0,0,1-.45,1.25A1.58,1.58,0,0,1,150.29,287.36Zm0-3.13a1.15,1.15,0,0,0-.91.39,1.45,1.45,0,0,0-.36,1,1.48,1.48,0,0,0,.35,1,1.16,1.16,0,0,0,.91.38,1.31,1.31,0,0,0,1-.37,1.7,1.7,0,0,0,0-2.09A1.29,1.29,0,0,0,150.3,284.23Z"/><path class="cls-2" d="M159.35,284.28a5,5,0,0,1-.75,2.93,2.56,2.56,0,0,1-4.16,0,5.27,5.27,0,0,1-.74-3,5.2,5.2,0,0,1,.75-3,2.42,2.42,0,0,1,2.09-1.07,2.37,2.37,0,0,1,2.08,1.07A5.47,5.47,0,0,1,159.35,284.28Zm-2.85,2.89a1.27,1.27,0,0,0,1.18-.75,5,5,0,0,0,.4-2.24,4.94,4.94,0,0,0-.39-2.21,1.23,1.23,0,0,0-1.14-.76,1.28,1.28,0,0,0-1.18.75,5.06,5.06,0,0,0-.39,2.24,5,5,0,0,0,.39,2.2A1.23,1.23,0,0,0,156.5,287.17Z"/><path class="cls-2" d="M156.52,288.42a2.52,2.52,0,0,1-2.2-1.14,5.37,5.37,0,0,1-.77-3.09,5.27,5.27,0,0,1,.78-3.08,2.71,2.71,0,0,1,4.42,0,5.65,5.65,0,0,1,.75,3.17,5.16,5.16,0,0,1-.78,3A2.57,2.57,0,0,1,156.52,288.42Zm0-8.15a2.26,2.26,0,0,0-2,1,6.26,6.26,0,0,0,0,5.83,2.22,2.22,0,0,0,2,1,2.26,2.26,0,0,0,2-1,4.85,4.85,0,0,0,.72-2.84,5.35,5.35,0,0,0-.7-3A2.2,2.2,0,0,0,156.54,280.27Zm0,7.05a1.37,1.37,0,0,1-1.26-.85,6.57,6.57,0,0,1,0-4.57,1.4,1.4,0,0,1,1.31-.84,1.37,1.37,0,0,1,1.27.84,5.13,5.13,0,0,1,.41,2.28,5,5,0,0,1-.42,2.31A1.41,1.41,0,0,1,156.5,287.32Zm.05-6a1.12,1.12,0,0,0-1,.67,4.74,4.74,0,0,0-.38,2.17,4.82,4.82,0,0,0,.37,2.13,1.08,1.08,0,0,0,1,.69,1.12,1.12,0,0,0,1.05-.67,6.46,6.46,0,0,0,0-4.31A1.07,1.07,0,0,0,156.55,281.36Z"/><path class="cls-2" d="M164.8,287v1h-5.27l2.94-3.52a6.59,6.59,0,0,0,.8-1.16,2,2,0,0,0,.25-.9,1.26,1.26,0,0,0-.35-.93,1.3,1.3,0,0,0-.94-.33,1.24,1.24,0,0,0-.89.33,1.36,1.36,0,0,0-.39.89h-1.23a2.12,2.12,0,0,1,.71-1.69,2.74,2.74,0,0,1,1.9-.63,2.62,2.62,0,0,1,1.8.58,2,2,0,0,1,.66,1.6,3.17,3.17,0,0,1-.38,1.45,12.45,12.45,0,0,1-1.6,2.13l-1,1.16Z"/><path class="cls-2" d="M165,288.21h-5.74l3.14-3.76a6.1,6.1,0,0,0,.78-1.13,1.9,1.9,0,0,0,.24-.84,1.09,1.09,0,0,0-.3-.82,1.19,1.19,0,0,0-.84-.29,1.09,1.09,0,0,0-.79.29,1.18,1.18,0,0,0-.34.79v.14h-1.52v-.15a2.28,2.28,0,0,1,.76-1.8,2.88,2.88,0,0,1,2-.67,2.79,2.79,0,0,1,1.9.62,2.18,2.18,0,0,1,.71,1.71,3.35,3.35,0,0,1-.4,1.52,12.76,12.76,0,0,1-1.62,2.16l-.79.91H165Zm-5.1-.3h4.8v-.72h-3.17l1.21-1.41a12,12,0,0,0,1.59-2.1,3,3,0,0,0,.36-1.38,1.85,1.85,0,0,0-.61-1.48,2.45,2.45,0,0,0-1.7-.55,2.64,2.64,0,0,0-1.8.59,2,2,0,0,0-.66,1.43h.94a1.53,1.53,0,0,1,.42-.84,1.41,1.41,0,0,1,1-.38,1.47,1.47,0,0,1,1.05.38,1.36,1.36,0,0,1,.39,1,2.16,2.16,0,0,1-.27,1,6.75,6.75,0,0,1-.82,1.19Z"/><path class="cls-1" d="M216.51,285.75h1.23v.07a1.06,1.06,0,0,0,.37.86,1.45,1.45,0,0,0,1,.32,1.57,1.57,0,0,0,1.11-.35,1.33,1.33,0,0,0,.39-1,1.37,1.37,0,0,0-.4-1.06,1.76,1.76,0,0,0-1.2-.36h-.24v-1H219a1.62,1.62,0,0,0,1.05-.29,1,1,0,0,0,.36-.86,1.07,1.07,0,0,0-.32-.81,1.24,1.24,0,0,0-.86-.29,1.38,1.38,0,0,0-.9.27,1.05,1.05,0,0,0-.34.78h-1.15a2,2,0,0,1,.68-1.54,2.59,2.59,0,0,1,1.74-.54,2.5,2.5,0,0,1,1.71.56,1.94,1.94,0,0,1,.64,1.53,1.89,1.89,0,0,1-.36,1.19,1.47,1.47,0,0,1-1,.56,1.74,1.74,0,0,1,1.13.66,2.22,2.22,0,0,1,.39,1.38,2.06,2.06,0,0,1-.73,1.66,3,3,0,0,1-2,.61,2.65,2.65,0,0,1-1.83-.62A2.31,2.31,0,0,1,216.51,285.75Z"/><path class="cls-1" d="M219.07,288.21a2.79,2.79,0,0,1-1.93-.66,2.45,2.45,0,0,1-.78-1.79v-.16h1.53v.22a.92.92,0,0,0,.32.75,1.33,1.33,0,0,0,.9.28,1.45,1.45,0,0,0,1-.31,1.44,1.44,0,0,0,0-1.87,1.64,1.64,0,0,0-1.1-.32h-.39V283H219a1.51,1.51,0,0,0,1-.26.89.89,0,0,0,.3-.74.91.91,0,0,0-.27-.7,1.09,1.09,0,0,0-.76-.25,1.21,1.21,0,0,0-.8.24.85.85,0,0,0-.29.66v.15h-1.46V282a2.2,2.2,0,0,1,.73-1.65,2.77,2.77,0,0,1,1.84-.57,2.6,2.6,0,0,1,1.81.6,2.09,2.09,0,0,1,.69,1.64,2.05,2.05,0,0,1-.39,1.28,1.6,1.6,0,0,1-.59.47,1.73,1.73,0,0,1,.73.57,2.37,2.37,0,0,1,.42,1.47,2.2,2.2,0,0,1-.78,1.77A3.12,3.12,0,0,1,219.07,288.21Zm-2.4-2.31a2.08,2.08,0,0,0,.67,1.43,2.48,2.48,0,0,0,1.73.58,2.8,2.8,0,0,0,1.88-.58,1.88,1.88,0,0,0,.68-1.54,2.08,2.08,0,0,0-.36-1.29,1.55,1.55,0,0,0-1-.6l-.88-.16.89-.14a1.34,1.34,0,0,0,.89-.5,1.74,1.74,0,0,0,.33-1.1,1.77,1.77,0,0,0-.58-1.41,2.38,2.38,0,0,0-1.62-.53,2.47,2.47,0,0,0-1.64.5,1.87,1.87,0,0,0-.62,1.28h.85a1.13,1.13,0,0,1,.38-.74,1.5,1.5,0,0,1,1-.31,1.37,1.37,0,0,1,1,.33,1.23,1.23,0,0,1,.37.92,1.19,1.19,0,0,1-.41,1,1.75,1.75,0,0,1-1.15.33h-.08v.71H219a1.87,1.87,0,0,1,1.3.4,1.72,1.72,0,0,1,0,2.31,1.75,1.75,0,0,1-1.21.4,1.69,1.69,0,0,1-1.1-.36,1.24,1.24,0,0,1-.42-.9Z"/><path class="cls-1" d="M227.82,286.83v1h-5.27l2.94-3.51a6.12,6.12,0,0,0,.8-1.17,2,2,0,0,0,.26-.9,1.22,1.22,0,0,0-.35-.92,1.29,1.29,0,0,0-.95-.34,1.22,1.22,0,0,0-.89.34,1.31,1.31,0,0,0-.39.88h-1.23a2.15,2.15,0,0,1,.71-1.69,2.77,2.77,0,0,1,1.91-.63,2.53,2.53,0,0,1,1.79.59,2,2,0,0,1,.66,1.59,3.05,3.05,0,0,1-.38,1.45,11.92,11.92,0,0,1-1.6,2.13l-1,1.16Z"/><path class="cls-1" d="M228,288h-5.74l3.15-3.76a6.63,6.63,0,0,0,.78-1.13,1.84,1.84,0,0,0,.23-.84,1.07,1.07,0,0,0-.3-.82,1.17,1.17,0,0,0-.84-.29,1.06,1.06,0,0,0-.78.3,1.14,1.14,0,0,0-.35.78v.14h-1.52v-.15a2.31,2.31,0,0,1,.76-1.8,2.91,2.91,0,0,1,2-.67,2.76,2.76,0,0,1,1.89.62,2.2,2.2,0,0,1,.71,1.71,3.3,3.3,0,0,1-.39,1.52,12.27,12.27,0,0,1-1.63,2.16l-.78.91H228Zm-5.1-.3h4.8V287H224.5l1.22-1.4a12.11,12.11,0,0,0,1.58-2.11,3,3,0,0,0,.36-1.38,1.86,1.86,0,0,0-.61-1.48,2.41,2.41,0,0,0-1.69-.55,2.65,2.65,0,0,0-1.81.59,2,2,0,0,0-.65,1.43h.94a1.41,1.41,0,0,1,.42-.84,1.37,1.37,0,0,1,1-.38,1.45,1.45,0,0,1,1.05.38,1.38,1.38,0,0,1,.4,1,2.3,2.3,0,0,1-.27,1,6.93,6.93,0,0,1-.82,1.19Z"/><path class="cls-1" d="M229.59,287.26a.69.69,0,0,1,.21-.51.66.66,0,0,1,.5-.21.69.69,0,0,1,.5.21.73.73,0,0,1,.2.51.7.7,0,0,1-.2.49.72.72,0,0,1-.5.2.69.69,0,0,1-.5-.2A.67.67,0,0,1,229.59,287.26Z"/><path class="cls-1" d="M230.3,288.1a.84.84,0,0,1-.86-.84.86.86,0,0,1,.25-.61.85.85,0,0,1,1.21,0,.81.81,0,0,1,.25.61.82.82,0,0,1-.25.6A.83.83,0,0,1,230.3,288.1Zm0-1.41a.54.54,0,0,0-.4.17.58.58,0,0,0-.16.4.53.53,0,0,0,.16.38.57.57,0,0,0,.79,0,.49.49,0,0,0,.16-.38.56.56,0,0,0-.55-.57Z"/><path class="cls-1" d="M237.78,284.07A5,5,0,0,1,237,287a2.56,2.56,0,0,1-4.16,0,5.27,5.27,0,0,1-.74-3,5.2,5.2,0,0,1,.75-3,2.42,2.42,0,0,1,2.09-1.07,2.38,2.38,0,0,1,2.09,1.08A5.49,5.49,0,0,1,237.78,284.07ZM234.92,287a1.26,1.26,0,0,0,1.18-.75,4.84,4.84,0,0,0,.4-2.24,5,5,0,0,0-.39-2.21A1.23,1.23,0,0,0,235,281a1.25,1.25,0,0,0-1.17.76,4.85,4.85,0,0,0-.4,2.23,5,5,0,0,0,.39,2.2A1.23,1.23,0,0,0,234.92,287Z"/><path class="cls-1" d="M235,288.21a2.55,2.55,0,0,1-2.21-1.13A5.42,5.42,0,0,1,232,284a5.3,5.3,0,0,1,.78-3.08,2.55,2.55,0,0,1,2.21-1.14,2.51,2.51,0,0,1,2.21,1.14,5.67,5.67,0,0,1,.76,3.17,5.15,5.15,0,0,1-.79,3A2.54,2.54,0,0,1,235,288.21Zm0-8.15a2.24,2.24,0,0,0-2,1,5,5,0,0,0-.73,2.91,5.09,5.09,0,0,0,.72,2.93,2.41,2.41,0,0,0,3.91,0,4.85,4.85,0,0,0,.73-2.84,5.34,5.34,0,0,0-.71-3A2.2,2.2,0,0,0,235,280.06Zm0,7.05a1.37,1.37,0,0,1-1.26-.85,5.11,5.11,0,0,1-.41-2.27,5.17,5.17,0,0,1,.41-2.3,1.42,1.42,0,0,1,1.31-.84,1.36,1.36,0,0,1,1.27.84,5.13,5.13,0,0,1,.41,2.28,5.19,5.19,0,0,1-.41,2.31A1.42,1.42,0,0,1,234.92,287.11Zm.05-6a1.11,1.11,0,0,0-1,.68,6.27,6.27,0,0,0,0,4.3,1.07,1.07,0,0,0,1,.68,1.12,1.12,0,0,0,1.05-.67,6.3,6.3,0,0,0,0-4.31A1.07,1.07,0,0,0,235,281.15Z"/><path class="cls-1" d="M240.48,283.08a3,3,0,0,1,.52-.19,2.22,2.22,0,0,1,.51-.06,2.26,2.26,0,0,1,1.73.71,2.53,2.53,0,0,1,.68,1.83,2.58,2.58,0,0,1-.76,1.95,2.75,2.75,0,0,1-2,.74,2.52,2.52,0,0,1-1.88-.72,2.64,2.64,0,0,1-.71-1.91c0-.84.57-2.07,1.72-3.68l.14-.19,1.37-1.95,1,.5Zm-.71,2.36a1.64,1.64,0,0,0,.39,1.14,1.32,1.32,0,0,0,1,.42,1.46,1.46,0,0,0,1.11-.41,1.6,1.6,0,0,0,.4-1.15,1.62,1.62,0,0,0-.39-1.15,1.47,1.47,0,0,0-1.11-.42,1.32,1.32,0,0,0-1,.44A1.63,1.63,0,0,0,239.77,285.44Z"/><path class="cls-1" d="M241.14,288.21a2.67,2.67,0,0,1-2-.77,2.75,2.75,0,0,1-.75-2c0-.88.57-2.11,1.74-3.77l.15-.19,1.44-2.05,1.26.64-2.07,2.7h0a2.08,2.08,0,0,1,.55-.07,2.42,2.42,0,0,1,1.84.76,2.68,2.68,0,0,1,.72,1.93,2.75,2.75,0,0,1-.81,2.06A2.92,2.92,0,0,1,241.14,288.21Zm.69-8.4-1.44,2a7.42,7.42,0,0,0-1.69,3.59,2.45,2.45,0,0,0,.67,1.8,2.38,2.38,0,0,0,1.77.68,2.6,2.6,0,0,0,1.91-.7,2.69,2.69,0,0,0,.08-3.57,2.12,2.12,0,0,0-1.62-.66,1.84,1.84,0,0,0-.47.06,3.17,3.17,0,0,0-.49.17l-.57.27,2.55-3.32Zm-.66,7.35a1.49,1.49,0,0,1-1.12-.48,1.77,1.77,0,0,1-.43-1.24,1.74,1.74,0,0,1,.43-1.23,1.47,1.47,0,0,1,1.13-.49,1.59,1.59,0,0,1,1.21.47,1.69,1.69,0,0,1,.44,1.25,1.76,1.76,0,0,1-.44,1.25A1.63,1.63,0,0,1,241.17,287.16Zm0-3.14a1.18,1.18,0,0,0-.91.39,1.45,1.45,0,0,0-.35,1,1.48,1.48,0,0,0,.35,1,1.14,1.14,0,0,0,.9.38,1.31,1.31,0,0,0,1-.37,1.45,1.45,0,0,0,.36-1,1.5,1.5,0,0,0-.35-1.05A1.31,1.31,0,0,0,241.18,284Z"/><path class="cls-1" d="M246.8,283.08a2.64,2.64,0,0,1,.51-.19,2.22,2.22,0,0,1,.51-.06,2.3,2.3,0,0,1,1.74.71,2.83,2.83,0,0,1-.09,3.78,2.74,2.74,0,0,1-2,.74,2.54,2.54,0,0,1-1.89-.72,2.64,2.64,0,0,1-.71-1.91c0-.84.57-2.07,1.72-3.68l.14-.19,1.37-1.95,1,.5Zm-.72,2.36a1.64,1.64,0,0,0,.39,1.14,1.33,1.33,0,0,0,1,.42,1.43,1.43,0,0,0,1.1-.41,1.6,1.6,0,0,0,.41-1.15,1.58,1.58,0,0,0-.4-1.15,1.43,1.43,0,0,0-1.1-.42,1.31,1.31,0,0,0-1,.44A1.59,1.59,0,0,0,246.08,285.44Z"/><path class="cls-1" d="M247.46,288.21a2.67,2.67,0,0,1-2-.77,2.71,2.71,0,0,1-.76-2c0-.88.57-2.11,1.75-3.77l.14-.19,1.45-2.05,1.25.64-2.07,2.7h.05a2,2,0,0,1,.54-.07,2.42,2.42,0,0,1,1.84.76,2.69,2.69,0,0,1,.73,1.93,2.75,2.75,0,0,1-.81,2.06A2.93,2.93,0,0,1,247.46,288.21Zm.68-8.4-1.44,2a7.46,7.46,0,0,0-1.69,3.59,2.49,2.49,0,0,0,.67,1.8,2.35,2.35,0,0,0,1.78.68,2.61,2.61,0,0,0,1.91-.7,2.69,2.69,0,0,0,.08-3.57,2.18,2.18,0,0,0-1.63-.66,2,2,0,0,0-.47.06,3.17,3.17,0,0,0-.49.17l-.56.27,2.54-3.32Zm-.65,7.35a1.49,1.49,0,0,1-1.13-.48,2,2,0,0,1,0-2.47,1.5,1.5,0,0,1,1.14-.49,1.59,1.59,0,0,1,1.21.47,2,2,0,0,1,0,2.5A1.59,1.59,0,0,1,247.49,287.16Zm0-3.14a1.15,1.15,0,0,0-.91.39,1.67,1.67,0,0,0,0,2.06,1.16,1.16,0,0,0,.91.38,1.31,1.31,0,0,0,1-.37,1.7,1.7,0,0,0,0-2.09A1.29,1.29,0,0,0,247.5,284Z"/><path class="cls-2" d="M308.89,285.75h1.22v.07a1.1,1.1,0,0,0,.37.86,1.48,1.48,0,0,0,1,.32,1.56,1.56,0,0,0,1.1-.35,1.58,1.58,0,0,0,0-2.09,1.73,1.73,0,0,0-1.19-.36h-.25v-1h.24a1.66,1.66,0,0,0,1.05-.29,1.21,1.21,0,0,0,0-1.67,1.23,1.23,0,0,0-.85-.29,1.34,1.34,0,0,0-.9.27,1,1,0,0,0-.34.78h-1.16a2.06,2.06,0,0,1,.68-1.54,2.6,2.6,0,0,1,1.75-.54,2.5,2.5,0,0,1,1.71.56A2,2,0,0,1,314,282a1.89,1.89,0,0,1-.36,1.19,1.44,1.44,0,0,1-1,.56,1.74,1.74,0,0,1,1.14.66,2.22,2.22,0,0,1,.39,1.38,2.07,2.07,0,0,1-.74,1.66,3,3,0,0,1-2,.61,2.67,2.67,0,0,1-1.83-.62A2.26,2.26,0,0,1,308.89,285.75Z"/><path class="cls-2" d="M311.44,288.21a2.79,2.79,0,0,1-1.93-.66,2.4,2.4,0,0,1-.77-1.79v-.16h1.53v.22a1,1,0,0,0,.32.75,1.36,1.36,0,0,0,.91.28,1.44,1.44,0,0,0,1-.31,1.44,1.44,0,0,0,0-1.87,1.61,1.61,0,0,0-1.09-.32H311V283h.39a1.48,1.48,0,0,0,.95-.26.87.87,0,0,0,.3-.74.91.91,0,0,0-.27-.7,1.06,1.06,0,0,0-.75-.25,1.22,1.22,0,0,0-.81.24.85.85,0,0,0-.28.66v.15h-1.46V282a2.25,2.25,0,0,1,.74-1.65,2.74,2.74,0,0,1,1.84-.57,2.64,2.64,0,0,1,1.81.6,2.12,2.12,0,0,1,.68,1.64,2.05,2.05,0,0,1-.39,1.28,1.57,1.57,0,0,1-.58.47,1.79,1.79,0,0,1,.73.57,2.37,2.37,0,0,1,.42,1.47,2.21,2.21,0,0,1-.79,1.77A3.09,3.09,0,0,1,311.44,288.21Zm-2.39-2.31a2,2,0,0,0,.66,1.43,2.51,2.51,0,0,0,1.73.58,2.83,2.83,0,0,0,1.89-.58,1.88,1.88,0,0,0,.68-1.54,2.08,2.08,0,0,0-.36-1.29,1.57,1.57,0,0,0-1-.6l-.89-.16.89-.14a1.29,1.29,0,0,0,.89-.5,1.74,1.74,0,0,0,.33-1.1,1.77,1.77,0,0,0-.58-1.41,2.33,2.33,0,0,0-1.61-.53,2.5,2.5,0,0,0-1.65.5,1.87,1.87,0,0,0-.62,1.28h.86a1.09,1.09,0,0,1,.38-.74,1.48,1.48,0,0,1,1-.31,1.4,1.4,0,0,1,1,.33,1.22,1.22,0,0,1,.36.92,1.16,1.16,0,0,1-.41,1,1.72,1.72,0,0,1-1.14.33h-.08v.71h.09a1.85,1.85,0,0,1,1.29.4,1.72,1.72,0,0,1,0,2.31,1.72,1.72,0,0,1-1.2.4,1.65,1.65,0,0,1-1.1-.36,1.2,1.2,0,0,1-.42-.9Z"/><path class="cls-2" d="M320.2,286.83v1h-5.27l2.94-3.51a6.62,6.62,0,0,0,.8-1.17,2,2,0,0,0,.25-.9,1.22,1.22,0,0,0-.35-.92,1.26,1.26,0,0,0-.94-.34,1.21,1.21,0,0,0-.89.34,1.31,1.31,0,0,0-.39.88h-1.23a2.12,2.12,0,0,1,.71-1.69,2.74,2.74,0,0,1,1.9-.63,2.57,2.57,0,0,1,1.8.59,2,2,0,0,1,.66,1.59,3.17,3.17,0,0,1-.38,1.45,12.45,12.45,0,0,1-1.6,2.13l-1,1.16Z"/><path class="cls-2" d="M320.35,288h-5.74l3.14-3.76a6.1,6.1,0,0,0,.78-1.13,1.86,1.86,0,0,0,.24-.84,1.1,1.1,0,0,0-.3-.82,1.19,1.19,0,0,0-.84-.29,1.08,1.08,0,0,0-.79.3,1.13,1.13,0,0,0-.34.78v.14H315v-.15a2.28,2.28,0,0,1,.76-1.8,2.88,2.88,0,0,1,2-.67,2.79,2.79,0,0,1,1.9.62,2.2,2.2,0,0,1,.71,1.71,3.32,3.32,0,0,1-.4,1.52,12.61,12.61,0,0,1-1.62,2.16l-.79.91h2.82Zm-5.1-.3h4.8V287h-3.17l1.21-1.4a11.6,11.6,0,0,0,1.58-2.11,2.89,2.89,0,0,0,.37-1.38,1.86,1.86,0,0,0-.61-1.48,2.45,2.45,0,0,0-1.7-.55,2.64,2.64,0,0,0-1.8.59,2,2,0,0,0-.66,1.43h.94a1.48,1.48,0,0,1,.43-.84,1.37,1.37,0,0,1,1-.38,1.47,1.47,0,0,1,1.05.38,1.37,1.37,0,0,1,.39,1,2.16,2.16,0,0,1-.27,1,6.4,6.4,0,0,1-.82,1.19Z"/><path class="cls-2" d="M322,287.26a.73.73,0,0,1,.2-.51.67.67,0,0,1,.5-.21.66.66,0,0,1,.5.21.69.69,0,0,1,.21.51.67.67,0,0,1-.21.49.69.69,0,0,1-.5.2.68.68,0,0,1-.7-.69Z"/><path class="cls-2" d="M322.67,288.1a.83.83,0,0,1-.6-.24.82.82,0,0,1-.25-.6.86.86,0,1,1,.85.84Zm0-1.41a.56.56,0,0,0-.55.57.49.49,0,0,0,.16.38.57.57,0,0,0,.79,0,.52.52,0,0,0,.15-.38.54.54,0,0,0-.16-.4A.51.51,0,0,0,322.67,286.69Z"/><path class="cls-2" d="M330.15,284.07a5,5,0,0,1-.75,2.93,2.42,2.42,0,0,1-2.08,1.06,2.38,2.38,0,0,1-2.08-1.07,6.43,6.43,0,0,1,0-6,2.42,2.42,0,0,1,2.09-1.07,2.37,2.37,0,0,1,2.08,1.08A5.41,5.41,0,0,1,330.15,284.07ZM327.3,287a1.28,1.28,0,0,0,1.18-.75,6.54,6.54,0,0,0,0-4.45,1.22,1.22,0,0,0-1.13-.76,1.27,1.27,0,0,0-1.18.76,5,5,0,0,0-.4,2.23,4.93,4.93,0,0,0,.4,2.2A1.22,1.22,0,0,0,327.3,287Z"/><path class="cls-2" d="M327.32,288.21a2.53,2.53,0,0,1-2.2-1.13,6.51,6.51,0,0,1,0-6.18,2.57,2.57,0,0,1,2.22-1.14,2.53,2.53,0,0,1,2.21,1.14,5.67,5.67,0,0,1,.75,3.17,5.16,5.16,0,0,1-.78,3A2.55,2.55,0,0,1,327.32,288.21Zm0-8.15a2.26,2.26,0,0,0-2,1,5.07,5.07,0,0,0-.72,2.91,5.18,5.18,0,0,0,.71,2.93,2.24,2.24,0,0,0,2,1,2.21,2.21,0,0,0,1.95-1,4.77,4.77,0,0,0,.73-2.84,5.43,5.43,0,0,0-.7-3A2.22,2.22,0,0,0,327.34,280.06Zm0,7.05a1.36,1.36,0,0,1-1.26-.85,5,5,0,0,1-.42-2.27,5,5,0,0,1,.42-2.3,1.4,1.4,0,0,1,1.31-.84,1.38,1.38,0,0,1,1.27.84,6.71,6.71,0,0,1,0,4.59A1.41,1.41,0,0,1,327.3,287.11Zm.05-6a1.12,1.12,0,0,0-1.05.68,6.27,6.27,0,0,0,0,4.3,1.09,1.09,0,0,0,1,.68,1.12,1.12,0,0,0,1.05-.67,6.46,6.46,0,0,0,0-4.31A1.07,1.07,0,0,0,327.35,281.15Z"/><path class="cls-2" d="M332.86,283.08a2.5,2.5,0,0,1,.52-.19,2.14,2.14,0,0,1,.5-.06,2.3,2.3,0,0,1,1.74.71,2.83,2.83,0,0,1-.09,3.78,2.74,2.74,0,0,1-2,.74,2.56,2.56,0,0,1-1.89-.72,2.64,2.64,0,0,1-.71-1.91c0-.84.58-2.07,1.72-3.68l.14-.19,1.38-1.95,1,.5Zm-.72,2.36a1.64,1.64,0,0,0,.39,1.14,1.34,1.34,0,0,0,1,.42,1.46,1.46,0,0,0,1.11-.41,1.64,1.64,0,0,0,.4-1.15,1.58,1.58,0,0,0-.4-1.15,1.43,1.43,0,0,0-1.1-.42,1.31,1.31,0,0,0-1,.44A1.59,1.59,0,0,0,332.14,285.44Z"/><path class="cls-2" d="M333.52,288.21a2.67,2.67,0,0,1-2-.77,2.75,2.75,0,0,1-.76-2c0-.88.57-2.11,1.75-3.77l.14-.19,1.45-2.05,1.25.64-2.07,2.7h0a2,2,0,0,1,.54-.07,2.46,2.46,0,0,1,1.85.76,2.68,2.68,0,0,1,.72,1.93,2.75,2.75,0,0,1-.81,2.06A2.93,2.93,0,0,1,333.52,288.21Zm.68-8.4-1.44,2a7.42,7.42,0,0,0-1.69,3.59,2.49,2.49,0,0,0,.67,1.8,2.39,2.39,0,0,0,1.78.68,2.61,2.61,0,0,0,1.91-.7,2.69,2.69,0,0,0,.08-3.57,2.13,2.13,0,0,0-1.63-.66,2,2,0,0,0-.47.06,3.17,3.17,0,0,0-.49.17l-.56.27,2.54-3.32Zm-.65,7.35a1.49,1.49,0,0,1-1.13-.48,1.81,1.81,0,0,1-.43-1.24,1.75,1.75,0,0,1,.44-1.23,1.47,1.47,0,0,1,1.13-.49,1.59,1.59,0,0,1,1.21.47,2,2,0,0,1,0,2.5A1.59,1.59,0,0,1,333.55,287.16Zm0-3.14a1.15,1.15,0,0,0-.91.39,1.45,1.45,0,0,0-.36,1,1.48,1.48,0,0,0,.35,1,1.16,1.16,0,0,0,.91.38,1.31,1.31,0,0,0,1-.37,1.7,1.7,0,0,0,0-2.09A1.29,1.29,0,0,0,333.56,284Z"/><path class="cls-2" d="M339.17,283.08a3,3,0,0,1,.52-.19,2.22,2.22,0,0,1,.51-.06,2.26,2.26,0,0,1,1.73.71,2.53,2.53,0,0,1,.68,1.83,2.58,2.58,0,0,1-.76,1.95,2.75,2.75,0,0,1-2,.74,2.52,2.52,0,0,1-1.88-.72,2.6,2.6,0,0,1-.71-1.91c0-.84.57-2.07,1.72-3.68l.13-.19,1.38-1.95,1,.5Zm-.71,2.36a1.64,1.64,0,0,0,.39,1.14,1.32,1.32,0,0,0,1,.42,1.46,1.46,0,0,0,1.11-.41,1.6,1.6,0,0,0,.4-1.15,1.58,1.58,0,0,0-.4-1.15,1.43,1.43,0,0,0-1.1-.42,1.32,1.32,0,0,0-1,.44A1.63,1.63,0,0,0,338.46,285.44Z"/><path class="cls-2" d="M339.83,288.21a2.67,2.67,0,0,1-2-.77,2.75,2.75,0,0,1-.75-2c0-.88.57-2.11,1.74-3.77l.14-.19,1.45-2.05,1.26.64-2.07,2.7h0a2.08,2.08,0,0,1,.55-.07,2.42,2.42,0,0,1,1.84.76,2.68,2.68,0,0,1,.72,1.93,2.75,2.75,0,0,1-.81,2.06A2.92,2.92,0,0,1,339.83,288.21Zm.69-8.4-1.44,2a7.46,7.46,0,0,0-1.69,3.59,2.45,2.45,0,0,0,.67,1.8,2.33,2.33,0,0,0,1.77.68,2.61,2.61,0,0,0,1.91-.7,2.69,2.69,0,0,0,.08-3.57,2.16,2.16,0,0,0-1.62-.66,1.84,1.84,0,0,0-.47.06,3.28,3.28,0,0,0-.5.17l-.56.27,2.55-3.32Zm-.66,7.35a1.49,1.49,0,0,1-1.12-.48,2,2,0,0,1,0-2.47,1.47,1.47,0,0,1,1.13-.49,1.59,1.59,0,0,1,1.21.47,1.73,1.73,0,0,1,.44,1.25,1.76,1.76,0,0,1-.44,1.25A1.63,1.63,0,0,1,339.86,287.16Zm0-3.14a1.18,1.18,0,0,0-.91.39,1.51,1.51,0,0,0-.35,1,1.43,1.43,0,0,0,.35,1,1.14,1.14,0,0,0,.9.38,1.31,1.31,0,0,0,1-.37,1.72,1.72,0,0,0,0-2.09A1.31,1.31,0,0,0,339.87,284Z"/><path class="cls-1" d="M30.49,287.85v-6.77H28.86l.49-1h2.3v7.78Z"/><path class="cls-1" d="M31.8,288H30.34v-6.77H28.62l.64-1.32H31.8Zm-1.16-.3h.86v-7.48H29.45l-.35.7h1.54Z"/><path class="cls-1" d="M39.39,286.83v1H34.13l2.93-3.51a6.79,6.79,0,0,0,.8-1.16,2.08,2.08,0,0,0,.26-.91,1.22,1.22,0,0,0-.35-.92,1.29,1.29,0,0,0-1-.34,1.22,1.22,0,0,0-.89.34,1.33,1.33,0,0,0-.39.88H34.31a2.15,2.15,0,0,1,.71-1.69,2.77,2.77,0,0,1,1.91-.63,2.57,2.57,0,0,1,1.8.59,2,2,0,0,1,.65,1.59,3.05,3.05,0,0,1-.38,1.45,11.92,11.92,0,0,1-1.6,2.13l-1,1.16Z"/><path class="cls-1" d="M39.54,288H33.8L37,284.24a6.63,6.63,0,0,0,.78-1.13,1.87,1.87,0,0,0,.23-.84,1.1,1.1,0,0,0-.29-.82,1.22,1.22,0,0,0-.85-.29,1.07,1.07,0,0,0-.78.3,1.14,1.14,0,0,0-.35.78v.14H34.16v-.15a2.31,2.31,0,0,1,.76-1.8,3,3,0,0,1,2-.67,2.8,2.8,0,0,1,1.9.62,2.19,2.19,0,0,1,.7,1.71,3.33,3.33,0,0,1-.39,1.52,12.56,12.56,0,0,1-1.63,2.16l-.78.91h2.81Zm-5.09-.3h4.79V287H36.08l1.21-1.4a12.11,12.11,0,0,0,1.58-2.11,3,3,0,0,0,.36-1.38,1.89,1.89,0,0,0-.6-1.48,2.45,2.45,0,0,0-1.7-.55,2.65,2.65,0,0,0-1.81.59,2,2,0,0,0-.65,1.43h.94a1.41,1.41,0,0,1,.42-.84,1.39,1.39,0,0,1,1-.38,1.45,1.45,0,0,1,1,.38,1.38,1.38,0,0,1,.4,1,2.16,2.16,0,0,1-.27,1,6.93,6.93,0,0,1-.82,1.19Z"/><path class="cls-1" d="M41.16,287.26a.69.69,0,0,1,.21-.51.66.66,0,0,1,.5-.21.69.69,0,0,1,.5.21.73.73,0,0,1,.2.51.7.7,0,0,1-.2.49.72.72,0,0,1-.5.2.69.69,0,0,1-.5-.2A.67.67,0,0,1,41.16,287.26Z"/><path class="cls-1" d="M41.87,288.1a.84.84,0,0,1-.86-.84.86.86,0,0,1,.25-.61.85.85,0,0,1,1.21,0,.85.85,0,0,1-.6,1.45Zm0-1.41a.51.51,0,0,0-.39.17.54.54,0,0,0-.17.4.53.53,0,0,0,.16.38.57.57,0,0,0,.79,0,.49.49,0,0,0,.16-.38.56.56,0,0,0-.55-.57Z"/><path class="cls-1" d="M49.35,284.07a4.93,4.93,0,0,1-.76,2.93,2.55,2.55,0,0,1-4.15,0,6.4,6.4,0,0,1,0-6,2.42,2.42,0,0,1,2.09-1.07A2.38,2.38,0,0,1,48.62,281,5.49,5.49,0,0,1,49.35,284.07ZM46.5,287a1.25,1.25,0,0,0,1.17-.75,4.84,4.84,0,0,0,.4-2.24,5,5,0,0,0-.39-2.21,1.23,1.23,0,0,0-1.14-.76,1.25,1.25,0,0,0-1.17.76A4.85,4.85,0,0,0,45,284a5,5,0,0,0,.39,2.2A1.23,1.23,0,0,0,46.5,287Z"/><path class="cls-1" d="M46.52,288.21a2.55,2.55,0,0,1-2.21-1.13,5.42,5.42,0,0,1-.77-3.1,5.3,5.3,0,0,1,.78-3.08,2.55,2.55,0,0,1,2.21-1.14,2.51,2.51,0,0,1,2.21,1.14,5.67,5.67,0,0,1,.76,3.17,5.15,5.15,0,0,1-.79,3A2.54,2.54,0,0,1,46.52,288.21Zm0-8.15a2.23,2.23,0,0,0-2,1,6.24,6.24,0,0,0,0,5.84,2.41,2.41,0,0,0,3.91,0,4.85,4.85,0,0,0,.73-2.84,5.34,5.34,0,0,0-.71-3A2.2,2.2,0,0,0,46.53,280.06Zm0,7.05a1.37,1.37,0,0,1-1.27-.85,5.11,5.11,0,0,1-.41-2.27,5.17,5.17,0,0,1,.41-2.3,1.42,1.42,0,0,1,1.31-.84,1.36,1.36,0,0,1,1.27.84,6.63,6.63,0,0,1,0,4.59A1.41,1.41,0,0,1,46.5,287.11Zm0-6a1.11,1.11,0,0,0-1,.68,4.83,4.83,0,0,0-.38,2.16,4.77,4.77,0,0,0,.38,2.13,1.07,1.07,0,0,0,1,.69,1.12,1.12,0,0,0,1-.67,4.82,4.82,0,0,0,.38-2.17,5,5,0,0,0-.37-2.14A1.09,1.09,0,0,0,46.54,281.15Z"/><path class="cls-1" d="M52.42,287.85v-6.77H50.79l.49-1h2.3v7.78Z"/><path class="cls-1" d="M53.73,288H52.27v-6.77H50.55l.64-1.32h2.54Zm-1.16-.3h.86v-7.48h-2l-.35.7h1.54Z"/><path class="cls-1" d="M62,284.07a5,5,0,0,1-.76,2.93,2.56,2.56,0,0,1-4.16,0,5.27,5.27,0,0,1-.74-3,5.2,5.2,0,0,1,.75-3,2.42,2.42,0,0,1,2.09-1.07A2.38,2.38,0,0,1,61.25,281,5.49,5.49,0,0,1,62,284.07ZM59.12,287a1.26,1.26,0,0,0,1.18-.75,4.84,4.84,0,0,0,.4-2.24,5,5,0,0,0-.39-2.21,1.23,1.23,0,0,0-1.14-.76,1.25,1.25,0,0,0-1.17.76,4.85,4.85,0,0,0-.4,2.23,5,5,0,0,0,.39,2.2A1.23,1.23,0,0,0,59.12,287Z"/><path class="cls-1" d="M59.14,288.21a2.55,2.55,0,0,1-2.2-1.13,5.42,5.42,0,0,1-.77-3.1A5.3,5.3,0,0,1,57,280.9a2.71,2.71,0,0,1,4.42,0,5.67,5.67,0,0,1,.76,3.17,5.15,5.15,0,0,1-.79,3A2.57,2.57,0,0,1,59.14,288.21Zm0-8.15a2.26,2.26,0,0,0-2,1,6.28,6.28,0,0,0,0,5.84,2.41,2.41,0,0,0,3.91,0,4.85,4.85,0,0,0,.73-2.84,5.34,5.34,0,0,0-.71-3A2.2,2.2,0,0,0,59.16,280.06Zm0,7.05a1.36,1.36,0,0,1-1.26-.85,5.11,5.11,0,0,1-.41-2.27,5.17,5.17,0,0,1,.41-2.3,1.4,1.4,0,0,1,1.31-.84,1.36,1.36,0,0,1,1.27.84,5.13,5.13,0,0,1,.41,2.28,5.19,5.19,0,0,1-.41,2.31A1.43,1.43,0,0,1,59.12,287.11Zm.05-6a1.11,1.11,0,0,0-1,.68,4.86,4.86,0,0,0-.38,2.16,4.77,4.77,0,0,0,.38,2.13,1.06,1.06,0,0,0,1,.69,1.12,1.12,0,0,0,1.05-.67,6.3,6.3,0,0,0,0-4.31A1.07,1.07,0,0,0,59.17,281.15Z"/><path class="cls-1" d="M63.37,287.69l3.21-6.61H63v-1h5.41l-4,8.08Z"/><path class="cls-1" d="M64.48,288.34l-1.31-.58.06-.14,3.11-6.39H62.8v-1.32h5.8l-.1.22Zm-.91-.73.77.34,3.78-7.73h-5v.7h3.72Z"/></g></g></svg>
