<svg width="181" height="309" viewBox="0 0 181 309" fill="none" xmlns="http://www.w3.org/2000/svg">
<mask id="path-1-inside-1" fill="white">
<path d="M71.1 7.19998C64.7 19.1 64.8 19 57.9 19C52.1 19 51.9 19.1 50.3 22.4C49.2 24.8 45.6 28 38.4 33C32.7 37 27.6 40.8 27 41.5C26.4 42.3 25 47.2 23.9 52.6C22.8 57.9 20.1 66.8 18 72.2C15.8 77.7 14 82.8 14 83.5C14 84.2 15.4 89 17.1 94.2C20 102.9 20.1 104.1 19.6 113.6C19 123.5 19 123.9 22.6 133.1C26.6 143.4 26.9 146.8 25 160.5C24 167.6 24.1 169.5 25.8 176.5C27 181.4 27.6 186.5 27.3 189.5L26.8 194.5L31.4 197.3C37.7 201.2 45.6 208.5 46.3 211C46.9 213.2 44.6 217 37.4 225.8C35 228.7 33 232 33 233C33 236.6 31.7 238.2 24.9 242.6C9.1 253 0 272.7 6.7 281.8L8.9 284.8L4.5 288.5C1 291.3 0 292.8 0 295.1C0 300 1.7 301.8 7.3 303.4C29.8 309.8 118.7 311 159.7 305.5C177.4 303.1 181 301.3 181 294.9C181 292 180.4 290.6 178 288.7C176.4 287.3 174.5 286 173.8 285.8C172.8 285.4 173.1 284.2 174.9 281C176.8 277.5 177.2 275.8 176.7 271.4C175.6 261.1 167.3 249.3 155.5 241.4C150.8 238.2 149.5 236.7 148.5 233.4C147.9 231.2 144.5 225.9 141.2 221.6C137.8 217.4 135 213.2 135 212.3C135 211.4 137.4 208.3 140.4 205.5C148.6 197.5 149.5 195.8 149.4 187.6C149.3 182.4 148.4 177.9 146.1 171C140 152.9 133.5 143 112 119C101.6 107.5 92.7 94.9 89 86.8C87 82.4 86.1 70 87.8 70C88.3 70 89.7 71.2 91.1 72.6C95.5 77.4 99.2 78.3 114 78.1L127.4 78L131.7 81C139.3 86.5 150.3 88.9 160.5 87.3C164.3 86.7 165.7 85.9 166.7 84C168.2 80.9 167.7 80.3 159 75.4C153.3 72.3 152.9 71.9 156 72.5C157.9 72.8 161.2 73.3 163.4 73.7L167.3 74.3L166.8 65.6C166.4 57.8 166.1 56.7 163.5 54C159.9 50.2 149.6 45 145.9 45C142 45 127.1 37.1 116.5 29.4C103.3 19.9 100.8 18.7 91.5 18.2C87.1 18 83 17.4 82.4 16.9C81.7 16.4 80.2 12.4 78.9 8C77.7 3.60001 76.3 0 75.8 0C75.4 0 73.3 3.29999 71.1 7.19998Z"/>
</mask>
<path d="M71.1 7.19998C64.7 19.1 64.8 19 57.9 19C52.1 19 51.9 19.1 50.3 22.4C49.2 24.8 45.6 28 38.4 33C32.7 37 27.6 40.8 27 41.5C26.4 42.3 25 47.2 23.9 52.6C22.8 57.9 20.1 66.8 18 72.2C15.8 77.7 14 82.8 14 83.5C14 84.2 15.4 89 17.1 94.2C20 102.9 20.1 104.1 19.6 113.6C19 123.5 19 123.9 22.6 133.1C26.6 143.4 26.9 146.8 25 160.5C24 167.6 24.1 169.5 25.8 176.5C27 181.4 27.6 186.5 27.3 189.5L26.8 194.5L31.4 197.3C37.7 201.2 45.6 208.5 46.3 211C46.9 213.2 44.6 217 37.4 225.8C35 228.7 33 232 33 233C33 236.6 31.7 238.2 24.9 242.6C9.1 253 0 272.7 6.7 281.8L8.9 284.8L4.5 288.5C1 291.3 0 292.8 0 295.1C0 300 1.7 301.8 7.3 303.4C29.8 309.8 118.7 311 159.7 305.5C177.4 303.1 181 301.3 181 294.9C181 292 180.4 290.6 178 288.7C176.4 287.3 174.5 286 173.8 285.8C172.8 285.4 173.1 284.2 174.9 281C176.8 277.5 177.2 275.8 176.7 271.4C175.6 261.1 167.3 249.3 155.5 241.4C150.8 238.2 149.5 236.7 148.5 233.4C147.9 231.2 144.5 225.9 141.2 221.6C137.8 217.4 135 213.2 135 212.3C135 211.4 137.4 208.3 140.4 205.5C148.6 197.5 149.5 195.8 149.4 187.6C149.3 182.4 148.4 177.9 146.1 171C140 152.9 133.5 143 112 119C101.6 107.5 92.7 94.9 89 86.8C87 82.4 86.1 70 87.8 70C88.3 70 89.7 71.2 91.1 72.6C95.5 77.4 99.2 78.3 114 78.1L127.4 78L131.7 81C139.3 86.5 150.3 88.9 160.5 87.3C164.3 86.7 165.7 85.9 166.7 84C168.2 80.9 167.7 80.3 159 75.4C153.3 72.3 152.9 71.9 156 72.5C157.9 72.8 161.2 73.3 163.4 73.7L167.3 74.3L166.8 65.6C166.4 57.8 166.1 56.7 163.5 54C159.9 50.2 149.6 45 145.9 45C142 45 127.1 37.1 116.5 29.4C103.3 19.9 100.8 18.7 91.5 18.2C87.1 18 83 17.4 82.4 16.9C81.7 16.4 80.2 12.4 78.9 8C77.7 3.60001 76.3 0 75.8 0C75.4 0 73.3 3.29999 71.1 7.19998Z" fill="#F0F7F4" stroke="#E27D5F" stroke-width="2" mask="url(#path-1-inside-1)"/>
</svg>
