<svg width="124" height="199" viewBox="0 0 124 199" fill="none" xmlns="http://www.w3.org/2000/svg">
<mask id="path-1-inside-1" fill="white">
<path d="M55 1.29993C46.7 3.59993 38.5 10.2999 34.5 17.9999C32.4 21.9999 32.2 29.2999 34 35.4999C35 39.3999 36.7 41.7999 41.4 46.2999C48.2 52.8999 48.2 54.4999 41.4 56.8999C30.9 60.6999 29 61.7999 29 64.3999C29 66.3999 30.3 67.7999 34.8 70.8999C37.9 72.9999 41.5 75.7999 42.7 77.1999C46.6 81.2999 49.1 88.4999 49.7 97.2999C50.9 115.1 46.1 128.7 35.7 137.1C32.5 139.7 29.1 143.3 28.2 145.1C27 147.5 25.3 148.8 22.3 149.7C9.90002 153.8 -0.799983 173.1 5.50002 180C7.50002 182.2 7.50002 182.2 5.50002 183.6C0.700017 187.1 -0.0999828 188.2 0.200017 190.8C0.700017 195.1 5.50002 196.7 21.5 198.1C37.6 199.4 88 198.8 103 197C119.2 195.1 124 193.1 124 188.4C124 186.4 120.6 182.7 117.8 181.8C117.1 181.5 117.5 180.2 119 178.3C120.9 175.7 121.2 174.4 120.6 170.9C119 161.1 111 151.5 101.8 148.4C97.8 147.1 96.8 146.3 96.3 143.9C96 142.4 94.7 140.3 93.3 139.5C80.2 130.9 75.2 119 76.3 99.1999C76.6 93.8999 77.4 87.7999 78.1 85.6999C79.7 80.7999 85.6 74.0999 91.9 70.0999C100.5 64.4999 99.9 62.1999 88.3 57.7999C83.6 55.9999 79.5 53.8999 79.2 53.0999C78.9 52.1999 79.9 50.6999 82.1 49.0999C90.6 42.5999 94 36.0999 94 26.2999C94 9.49992 73.2 -3.90007 55 1.29993Z"/>
</mask>
<path d="M55 1.29993C46.7 3.59993 38.5 10.2999 34.5 17.9999C32.4 21.9999 32.2 29.2999 34 35.4999C35 39.3999 36.7 41.7999 41.4 46.2999C48.2 52.8999 48.2 54.4999 41.4 56.8999C30.9 60.6999 29 61.7999 29 64.3999C29 66.3999 30.3 67.7999 34.8 70.8999C37.9 72.9999 41.5 75.7999 42.7 77.1999C46.6 81.2999 49.1 88.4999 49.7 97.2999C50.9 115.1 46.1 128.7 35.7 137.1C32.5 139.7 29.1 143.3 28.2 145.1C27 147.5 25.3 148.8 22.3 149.7C9.90002 153.8 -0.799983 173.1 5.50002 180C7.50002 182.2 7.50002 182.2 5.50002 183.6C0.700017 187.1 -0.0999828 188.2 0.200017 190.8C0.700017 195.1 5.50002 196.7 21.5 198.1C37.6 199.4 88 198.8 103 197C119.2 195.1 124 193.1 124 188.4C124 186.4 120.6 182.7 117.8 181.8C117.1 181.5 117.5 180.2 119 178.3C120.9 175.7 121.2 174.4 120.6 170.9C119 161.1 111 151.5 101.8 148.4C97.8 147.1 96.8 146.3 96.3 143.9C96 142.4 94.7 140.3 93.3 139.5C80.2 130.9 75.2 119 76.3 99.1999C76.6 93.8999 77.4 87.7999 78.1 85.6999C79.7 80.7999 85.6 74.0999 91.9 70.0999C100.5 64.4999 99.9 62.1999 88.3 57.7999C83.6 55.9999 79.5 53.8999 79.2 53.0999C78.9 52.1999 79.9 50.6999 82.1 49.0999C90.6 42.5999 94 36.0999 94 26.2999C94 9.49992 73.2 -3.90007 55 1.29993Z" fill="#F0F7F4" stroke="#E27D5F" stroke-width="2" mask="url(#path-1-inside-1)"/>
</svg>
